<svg xmlns="http://www.w3.org/2000/svg" xmlns:xlink="http://www.w3.org/1999/xlink" width="1000" zoomAndPan="magnify" viewBox="0 0 750 899.99999" height="1200" preserveAspectRatio="xMidYMid meet" version="1.0"><defs><g/><clipPath id="4d234c01c1"><path d="M 0 170.089844 L 750 170.089844 L 750 665.625 L 0 665.625 Z M 0 170.089844 " clip-rule="nonzero"/></clipPath><clipPath id="66c10758e2"><path d="M 35.25 170.089844 L 714.75 170.089844 C 734.21875 170.089844 750 185.871094 750 205.339844 L 750 630.375 C 750 649.84375 734.21875 665.625 714.75 665.625 L 35.25 665.625 C 15.78125 665.625 0 649.84375 0 630.375 L 0 205.339844 C 0 185.871094 15.78125 170.089844 35.25 170.089844 Z M 35.25 170.089844 " clip-rule="nonzero"/></clipPath><clipPath id="06de827080"><path d="M 249.777344 273.214844 L 500.640625 273.214844 L 500.640625 417.855469 L 249.777344 417.855469 Z M 249.777344 273.214844 " clip-rule="nonzero"/></clipPath><clipPath id="a7c8bdceb4"><path d="M 285.027344 273.214844 L 464.972656 273.214844 C 484.441406 273.214844 500.222656 288.996094 500.222656 308.464844 L 500.222656 382.605469 C 500.222656 402.074219 484.441406 417.855469 464.972656 417.855469 L 285.027344 417.855469 C 265.558594 417.855469 249.777344 402.074219 249.777344 382.605469 L 249.777344 308.464844 C 249.777344 288.996094 265.558594 273.214844 285.027344 273.214844 Z M 285.027344 273.214844 " clip-rule="nonzero"/></clipPath><clipPath id="5a42c0257f"><path d="M 11.332031 370.929688 L 240.726562 370.929688 L 240.726562 595.929688 L 11.332031 595.929688 Z M 11.332031 370.929688 " clip-rule="nonzero"/></clipPath><clipPath id="3ec328a616"><path d="M 46.582031 370.929688 L 205.152344 370.929688 C 224.621094 370.929688 240.402344 386.710938 240.402344 406.179688 L 240.402344 560.679688 C 240.402344 580.148438 224.621094 595.929688 205.152344 595.929688 L 46.582031 595.929688 C 27.113281 595.929688 11.332031 580.148438 11.332031 560.679688 L 11.332031 406.179688 C 11.332031 386.710938 27.113281 370.929688 46.582031 370.929688 Z M 46.582031 370.929688 " clip-rule="nonzero"/></clipPath><clipPath id="8251025c18"><path d="M 509.972656 370.929688 L 739 370.929688 L 739 595.929688 L 509.972656 595.929688 Z M 509.972656 370.929688 " clip-rule="nonzero"/></clipPath><clipPath id="4bb935d9aa"><path d="M 545.222656 370.929688 L 703.257812 370.929688 C 722.726562 370.929688 738.507812 386.710938 738.507812 406.179688 L 738.507812 560.679688 C 738.507812 580.148438 722.726562 595.929688 703.257812 595.929688 L 545.222656 595.929688 C 525.753906 595.929688 509.972656 580.148438 509.972656 560.679688 L 509.972656 406.179688 C 509.972656 386.710938 525.753906 370.929688 545.222656 370.929688 Z M 545.222656 370.929688 " clip-rule="nonzero"/></clipPath><clipPath id="51266e6aeb"><path d="M 249.777344 439.285156 L 500.410156 439.285156 L 500.410156 594.644531 L 249.777344 594.644531 Z M 249.777344 439.285156 " clip-rule="nonzero"/></clipPath><clipPath id="6992e55015"><path d="M 285.027344 439.285156 L 464.972656 439.285156 C 484.441406 439.285156 500.222656 455.066406 500.222656 474.535156 L 500.222656 559.394531 C 500.222656 578.859375 484.441406 594.644531 464.972656 594.644531 L 285.027344 594.644531 C 265.558594 594.644531 249.777344 578.859375 249.777344 559.394531 L 249.777344 474.535156 C 249.777344 455.066406 265.558594 439.285156 285.027344 439.285156 Z M 285.027344 439.285156 " clip-rule="nonzero"/></clipPath></defs><g clip-path="url(#4d234c01c1)"><g clip-path="url(#66c10758e2)"><path fill="#add8e6" d="M 0 170.089844 L 749.109375 170.089844 L 749.109375 665.625 L 0 665.625 Z M 0 170.089844 " fill-opacity="1" fill-rule="nonzero"/></g></g><g clip-path="url(#06de827080)"><g clip-path="url(#a7c8bdceb4)"><path fill="#ffffff" d="M 249.777344 273.214844 L 500.078125 273.214844 L 500.078125 417.855469 L 249.777344 417.855469 Z M 249.777344 273.214844 " fill-opacity="1" fill-rule="nonzero"/></g></g><g clip-path="url(#5a42c0257f)"><g clip-path="url(#3ec328a616)"><path fill="#ffffff" d="M 11.332031 370.929688 L 240.726562 370.929688 L 240.726562 595.929688 L 11.332031 595.929688 Z M 11.332031 370.929688 " fill-opacity="1" fill-rule="nonzero"/></g></g><g clip-path="url(#8251025c18)"><g clip-path="url(#4bb935d9aa)"><path fill="#ffffff" d="M 509.972656 370.929688 L 738.488281 370.929688 L 738.488281 595.929688 L 509.972656 595.929688 Z M 509.972656 370.929688 " fill-opacity="1" fill-rule="nonzero"/></g></g><g clip-path="url(#51266e6aeb)"><g clip-path="url(#6992e55015)"><path fill="#ffffff" d="M 249.777344 439.285156 L 500.410156 439.285156 L 500.410156 594.644531 L 249.777344 594.644531 Z M 249.777344 439.285156 " fill-opacity="1" fill-rule="nonzero"/></g></g><path fill="#6772e5" d="M 151.453125 466.925781 C 158.167969 466.925781 164.484375 473.019531 164.515625 484.1875 C 164.515625 496.378906 158.261719 501.945312 151.390625 501.945312 C 148.003906 501.945312 146 500.523438 144.613281 499.535156 L 144.585938 510.425781 L 135.003906 512.464844 L 135.003906 467.542969 L 143.445312 467.542969 L 143.9375 469.925781 C 145.292969 468.6875 147.695312 466.925781 151.453125 466.925781 Z M 92.339844 459.222656 L 82.976562 461.234375 L 82.945312 492.078125 C 82.945312 497.769531 87.199219 501.976562 92.863281 501.976562 C 96.007812 501.976562 98.316406 501.390625 99.582031 500.710938 L 99.582031 492.882812 C 98.347656 493.378906 92.3125 495.140625 92.3125 489.449219 L 92.3125 475.773438 L 99.582031 475.773438 L 99.582031 467.574219 L 92.3125 467.574219 Z M 66.4375 477.351562 C 66.4375 475.835938 67.667969 475.277344 69.699219 475.277344 C 72.628906 475.277344 76.292969 476.175781 79.21875 477.753906 L 79.21875 468.71875 C 76.046875 467.453125 72.90625 466.957031 69.699219 466.957031 C 61.90625 466.957031 56.734375 471.039062 56.734375 477.847656 C 56.734375 488.457031 71.300781 486.789062 71.300781 491.367188 C 71.300781 493.128906 69.761719 493.71875 67.636719 493.71875 C 64.464844 493.71875 60.398438 492.417969 57.164062 490.625 L 57.164062 499.78125 C 60.738281 501.328125 64.339844 501.976562 67.636719 501.976562 C 75.613281 501.976562 81.097656 498.019531 81.097656 491.117188 C 81.035156 479.640625 66.4375 481.683594 66.4375 477.351562 Z M 194.734375 484.558594 C 194.734375 485.488281 194.671875 487.5 194.671875 487.996094 L 175.910156 487.996094 C 176.34375 492.542969 179.640625 493.839844 183.335938 493.839844 C 187.125 493.839844 190.113281 493.035156 192.730469 491.738281 L 192.730469 499.441406 C 190.113281 500.894531 186.660156 501.945312 182.101562 501.945312 C 172.738281 501.945312 166.238281 496.101562 166.238281 484.5 C 166.238281 474.722656 171.753906 466.957031 180.871094 466.957031 C 189.988281 466.925781 194.734375 474.722656 194.734375 484.558594 Z M 131.429688 467.574219 L 131.429688 501.265625 L 121.820312 501.265625 L 121.820312 467.574219 Z M 110.886719 467.574219 L 111.5 470.421875 C 113.75 466.277344 118.246094 467.113281 119.480469 467.574219 L 119.480469 476.421875 C 118.277344 475.992188 114.457031 475.464844 112.210938 478.433594 L 112.210938 501.265625 L 102.628906 501.265625 L 102.628906 467.574219 Z M 149.144531 493.46875 C 146.894531 493.46875 145.539062 492.664062 144.613281 491.675781 L 144.585938 477.382812 C 145.570312 476.269531 146.957031 475.496094 149.144531 475.496094 C 152.625 475.496094 155.058594 479.425781 155.058594 484.46875 C 155.058594 489.601562 152.6875 493.46875 149.144531 493.46875 Z M 185.675781 480.910156 C 185.675781 476.546875 183.179688 474.753906 180.839844 474.753906 C 178.4375 474.753906 175.789062 476.546875 175.789062 480.910156 Z M 131.429688 462.59375 L 131.429688 454.765625 L 121.820312 456.808594 L 121.820312 464.667969 Z M 131.429688 462.59375 " fill-opacity="1" fill-rule="evenodd"/><path fill="#ffa500" d="M 440.804688 523.558594 C 440.804688 523.308594 440.554688 523.207031 440.328125 523.207031 L 439.902344 523.207031 L 439.902344 524.464844 L 440.128906 524.464844 L 440.128906 523.960938 L 440.304688 523.960938 L 440.582031 524.464844 L 440.855469 524.464844 L 440.53125 523.910156 C 440.679688 523.886719 440.804688 523.734375 440.804688 523.585938 Z M 440.128906 523.761719 L 440.128906 523.410156 L 440.328125 523.410156 C 440.453125 523.410156 440.582031 523.433594 440.582031 523.585938 C 440.582031 523.734375 440.429688 523.761719 440.304688 523.761719 Z M 440.328125 522.753906 C 439.726562 522.78125 439.222656 523.285156 439.246094 523.886719 C 439.273438 524.492188 439.777344 524.992188 440.378906 524.96875 C 440.984375 524.941406 441.484375 524.441406 441.460938 523.835938 C 441.460938 523.234375 440.957031 522.730469 440.355469 522.730469 C 440.355469 522.730469 440.328125 522.730469 440.328125 522.753906 Z M 440.328125 524.765625 C 439.800781 524.765625 439.375 524.339844 439.375 523.8125 C 439.375 523.285156 439.800781 522.855469 440.328125 522.855469 C 440.855469 522.855469 441.285156 523.285156 441.285156 523.8125 C 441.285156 523.8125 441.285156 523.835938 441.285156 523.835938 C 441.285156 524.363281 440.855469 524.792969 440.328125 524.792969 Z M 368.421875 522.929688 C 366.789062 522.929688 365.960938 521.449219 365.960938 520.039062 C 365.960938 518.632812 366.863281 517.222656 368.347656 517.222656 C 369.050781 517.222656 369.933594 517.578125 370.285156 518.078125 L 371.992188 516.34375 C 371.011719 515.414062 369.707031 514.886719 368.347656 514.9375 C 365.332031 514.9375 363.144531 517.097656 363.144531 520.066406 C 363.144531 523.082031 365.304688 525.21875 368.421875 525.21875 C 369.882812 525.21875 371.238281 524.792969 372.042969 523.910156 L 370.359375 522.101562 C 369.855469 522.628906 369.152344 522.929688 368.421875 522.929688 Z M 358.742188 524.941406 L 361.457031 524.941406 L 361.457031 515.214844 L 358.769531 515.214844 Z M 353.839844 520.542969 C 353.839844 521.675781 353.085938 522.90625 351.730469 522.90625 C 350.648438 522.90625 350.070312 522.152344 350.070312 520.566406 L 350.070312 515.238281 L 347.378906 515.238281 L 347.378906 521.273438 C 347.378906 523.285156 348.386719 525.246094 351.074219 525.246094 C 352.332031 525.246094 353.386719 524.238281 353.917969 523.484375 L 353.964844 523.484375 L 353.964844 524.96875 L 356.53125 524.96875 L 356.53125 515.214844 L 353.839844 515.214844 Z M 342.527344 516.445312 L 342.476562 516.445312 C 342.101562 516.015625 341.070312 514.9375 339.410156 514.9375 C 336.667969 514.9375 334.558594 517.074219 334.558594 520.039062 C 334.558594 523.058594 336.519531 525.21875 339.285156 525.21875 C 340.492188 525.195312 341.597656 524.667969 342.402344 523.761719 L 342.453125 523.761719 L 342.453125 529.71875 L 345.117188 529.71875 L 345.117188 515.214844 L 342.550781 515.214844 Z M 339.9375 522.929688 C 338.277344 522.929688 337.324219 521.472656 337.324219 520.039062 C 337.324219 518.65625 338.175781 517.199219 339.9375 517.199219 C 341.523438 517.199219 342.503906 518.707031 342.503906 520.066406 C 342.503906 521.421875 341.546875 522.929688 339.9375 522.929688 Z M 401.109375 514.9375 C 398.066406 514.9375 395.828125 517.074219 395.828125 520.039062 C 395.828125 523.109375 398.089844 525.246094 401.109375 525.246094 C 404.125 525.246094 406.386719 523.082031 406.386719 520.039062 C 406.386719 517.074219 404.175781 514.9375 401.109375 514.9375 Z M 401.109375 522.929688 C 399.347656 522.929688 398.566406 521.421875 398.566406 520.039062 C 398.566406 518.65625 399.371094 517.199219 401.109375 517.199219 C 402.84375 517.199219 403.695312 518.65625 403.695312 520.039062 C 403.695312 521.421875 402.894531 522.929688 401.109375 522.929688 Z M 434.695312 518.960938 C 433.3125 518.632812 432.8125 518.457031 432.8125 517.878906 C 432.8125 517.125 433.816406 516.949219 434.246094 516.949219 C 435.074219 516.949219 436.003906 517.449219 436.382812 517.902344 L 437.964844 516.394531 C 437.210938 515.488281 435.777344 514.960938 434.269531 514.960938 C 432.308594 514.960938 430.273438 515.941406 430.273438 518.105469 C 430.273438 519.988281 431.753906 520.542969 433.1875 520.894531 C 434.695312 521.246094 435.25 521.5 435.25 522.125 C 435.25 523.007812 434.246094 523.15625 433.867188 523.15625 C 432.9375 523.109375 432.058594 522.707031 431.429688 522 L 429.792969 523.660156 C 430.675781 524.667969 432.207031 525.246094 433.765625 525.246094 C 436.40625 525.246094 437.964844 523.988281 437.964844 521.925781 C 437.964844 519.964844 436.054688 519.285156 434.695312 518.960938 Z M 429.59375 515.214844 L 426.125 515.214844 L 422.652344 519.234375 L 422.605469 519.234375 L 422.605469 509.859375 L 419.914062 509.859375 L 419.914062 524.941406 L 422.605469 524.941406 L 422.605469 520.164062 L 422.652344 520.164062 L 426.25 524.941406 L 429.769531 524.941406 L 425.597656 519.636719 Z M 389.769531 514.960938 C 388.511719 514.960938 387.632812 515.464844 386.75 516.269531 L 386.726562 516.269531 L 386.726562 509.859375 L 384.035156 509.859375 L 384.035156 524.941406 L 386.601562 524.941406 L 386.601562 523.558594 L 386.652344 523.558594 C 387.328125 524.589844 388.460938 525.195312 389.691406 525.195312 C 392.457031 525.195312 394.570312 523.03125 394.570312 520.039062 C 394.570312 517.074219 392.507812 514.9375 389.769531 514.9375 Z M 389.242188 522.929688 C 387.605469 522.929688 386.652344 521.472656 386.652344 520.066406 C 386.652344 518.65625 387.65625 517.199219 389.242188 517.199219 C 390.976562 517.199219 391.832031 518.65625 391.832031 520.039062 C 391.832031 521.472656 390.898438 522.929688 389.242188 522.929688 Z M 383.03125 515.214844 L 379.5625 515.214844 L 376.089844 519.234375 L 376.042969 519.234375 L 376.042969 509.859375 L 373.351562 509.859375 L 373.351562 524.941406 L 376.042969 524.941406 L 376.042969 520.164062 L 376.089844 520.164062 L 379.6875 524.941406 L 383.207031 524.941406 L 379.058594 519.636719 Z M 412.898438 514.960938 C 409.832031 514.960938 407.621094 517.097656 407.621094 520.039062 C 407.621094 523.109375 409.882812 525.246094 412.898438 525.246094 C 415.917969 525.246094 418.179688 523.082031 418.179688 520.039062 C 418.179688 517.074219 415.941406 514.9375 412.898438 514.9375 Z M 412.898438 522.929688 C 411.140625 522.929688 410.335938 521.421875 410.335938 520.039062 C 410.335938 518.65625 411.140625 517.199219 412.898438 517.199219 C 414.660156 517.199219 415.4375 518.65625 415.4375 520.039062 C 415.4375 521.421875 414.632812 522.929688 412.898438 522.929688 Z M 412.898438 522.929688 " fill-opacity="1" fill-rule="nonzero"/><path fill="#2ca01c" d="M 331.539062 515.515625 C 331.539062 516.257812 331.46875 516.992188 331.324219 517.722656 C 331.179688 518.449219 330.964844 519.15625 330.679688 519.84375 C 330.394531 520.53125 330.046875 521.183594 329.632812 521.800781 C 329.222656 522.417969 328.75 522.988281 328.226562 523.515625 C 327.699219 524.039062 327.128906 524.507812 326.511719 524.921875 C 325.894531 525.335938 325.242188 525.683594 324.554688 525.96875 C 323.871094 526.25 323.164062 526.464844 322.433594 526.609375 C 321.703125 526.757812 320.96875 526.828125 320.226562 526.828125 C 319.484375 526.828125 318.746094 526.757812 318.019531 526.609375 C 317.289062 526.464844 316.582031 526.25 315.898438 525.96875 C 315.210938 525.683594 314.558594 525.335938 313.941406 524.921875 C 313.324219 524.507812 312.75 524.039062 312.226562 523.515625 C 311.699219 522.988281 311.230469 522.417969 310.820312 521.800781 C 310.40625 521.183594 310.058594 520.53125 309.773438 519.84375 C 309.488281 519.15625 309.273438 518.449219 309.128906 517.722656 C 308.984375 516.992188 308.914062 516.257812 308.914062 515.515625 C 308.914062 514.773438 308.984375 514.035156 309.128906 513.308594 C 309.273438 512.578125 309.488281 511.871094 309.773438 511.183594 C 310.058594 510.5 310.40625 509.847656 310.820312 509.230469 C 311.230469 508.609375 311.699219 508.039062 312.226562 507.515625 C 312.75 506.988281 313.324219 506.519531 313.941406 506.109375 C 314.558594 505.695312 315.210938 505.347656 315.898438 505.0625 C 316.582031 504.777344 317.289062 504.5625 318.019531 504.417969 C 318.746094 504.273438 319.484375 504.199219 320.226562 504.199219 C 320.96875 504.199219 321.703125 504.273438 322.433594 504.417969 C 323.164062 504.5625 323.871094 504.777344 324.554688 505.0625 C 325.242188 505.347656 325.894531 505.695312 326.511719 506.109375 C 327.128906 506.519531 327.699219 506.988281 328.226562 507.515625 C 328.75 508.039062 329.222656 508.609375 329.632812 509.230469 C 330.046875 509.847656 330.394531 510.5 330.679688 511.183594 C 330.964844 511.871094 331.179688 512.578125 331.324219 513.308594 C 331.46875 514.035156 331.539062 514.773438 331.539062 515.515625 Z M 331.539062 515.515625 " fill-opacity="1" fill-rule="nonzero"/><path fill="#ffffff" d="M 312.054688 515.515625 C 312.054688 517.953125 314.015625 519.914062 316.453125 519.914062 L 317.082031 519.914062 L 317.082031 518.28125 L 316.453125 518.28125 C 314.921875 518.28125 313.691406 517.046875 313.691406 515.515625 C 313.691406 513.980469 314.921875 512.75 316.453125 512.75 L 317.964844 512.75 L 317.964844 521.296875 C 317.964844 522.203125 318.691406 522.929688 319.597656 522.929688 L 319.597656 511.113281 L 316.453125 511.113281 C 314.015625 511.113281 312.054688 513.074219 312.054688 515.515625 Z M 323.996094 511.113281 L 323.367188 511.113281 L 323.367188 512.75 L 323.996094 512.75 C 325.53125 512.75 326.761719 513.980469 326.761719 515.515625 C 326.761719 517.046875 325.53125 518.28125 323.996094 518.28125 L 322.488281 518.28125 L 322.488281 509.730469 C 322.488281 508.828125 321.761719 508.097656 320.855469 508.097656 L 320.855469 519.914062 L 323.996094 519.914062 C 326.4375 519.914062 328.398438 517.953125 328.398438 515.515625 C 328.398438 513.074219 326.4375 511.113281 323.996094 511.113281 Z M 323.996094 511.113281 " fill-opacity="1" fill-rule="nonzero"/><path fill="#ffa500" d="M 345.621094 506.789062 C 346.046875 506.789062 346.375 506.464844 346.375 506.035156 C 346.375 505.609375 346.046875 505.28125 345.621094 505.28125 C 345.191406 505.28125 344.867188 505.609375 344.867188 506.035156 C 344.867188 506.464844 345.191406 506.789062 345.621094 506.789062 Z M 341.167969 507.292969 C 340.539062 507.292969 339.9375 507.644531 339.660156 508.222656 L 339.609375 508.222656 L 339.609375 507.417969 L 338.453125 507.417969 L 338.453125 512.371094 L 339.6875 512.371094 L 339.6875 509.65625 C 339.6875 509.003906 340.0625 508.324219 340.84375 508.324219 C 341.621094 508.324219 341.773438 509.054688 341.773438 509.632812 L 341.773438 512.398438 L 343.003906 512.398438 L 343.003906 509.253906 C 343.003906 508.25 342.476562 507.242188 341.167969 507.242188 Z M 335.941406 512.371094 L 337.195312 512.371094 L 337.195312 507.417969 L 335.941406 507.417969 Z M 358.441406 506.765625 C 358.871094 506.765625 359.195312 506.4375 359.195312 506.011719 C 359.195312 505.582031 358.871094 505.257812 358.441406 505.257812 C 358.015625 505.257812 357.6875 505.582031 357.6875 506.011719 C 357.6875 506.4375 358.015625 506.765625 358.441406 506.765625 Z M 356.429688 507.417969 L 356.429688 508.523438 L 357.8125 508.523438 L 357.8125 512.371094 L 359.070312 512.371094 L 359.070312 508.523438 L 360.453125 508.523438 L 360.453125 507.417969 Z M 354.320312 512.371094 L 355.574219 512.371094 L 355.574219 507.417969 L 354.320312 507.417969 Z M 343.632812 508.523438 L 345.015625 508.523438 L 345.015625 512.371094 L 346.273438 512.371094 L 346.273438 508.523438 L 347.65625 508.523438 L 347.65625 507.417969 L 343.632812 507.417969 Z M 351.828125 510.160156 C 351.828125 510.8125 351.453125 511.492188 350.671875 511.492188 C 349.894531 511.492188 349.742188 510.738281 349.742188 510.160156 L 349.742188 507.417969 L 348.484375 507.417969 L 348.484375 510.511719 C 348.484375 511.515625 349.039062 512.523438 350.320312 512.523438 C 350.976562 512.523438 351.554688 512.171875 351.855469 511.59375 L 351.878906 511.59375 L 351.878906 512.398438 L 353.0625 512.398438 L 353.0625 507.417969 L 351.804688 507.417969 Z M 351.828125 510.160156 " fill-opacity="1" fill-rule="nonzero"/><path fill="#010202" d="M 694.398438 472 C 694.664062 472.132812 694.796875 472.398438 695.0625 472.53125 C 696.390625 473.867188 697.6875 475.167969 698.886719 476.367188 C 698.753906 480.199219 697.457031 483.734375 695.59375 487.03125 C 692.433594 492.433594 687.316406 496.5 681.261719 498.367188 C 679.566406 498.898438 677.707031 499.300781 676.011719 499.300781 C 674.679688 497.964844 673.515625 496.800781 672.1875 495.464844 C 671.921875 495.199219 671.652344 495.066406 671.519531 494.667969 C 677.039062 494.265625 682.425781 491.898438 686.351562 488.066406 C 689.109375 485.433594 691.472656 482.132812 692.800781 478.601562 C 693.730469 476.632812 694.265625 474.367188 694.398438 472 Z M 694.398438 472 " fill-opacity="1" fill-rule="nonzero"/><path fill="#010202" d="M 578.519531 480.566406 C 579.320312 479.765625 580.351562 479.132812 581.546875 479.132812 C 582.609375 479 583.773438 479.132812 584.707031 479.800781 C 584.039062 481.132812 583.375 482.566406 582.742188 483.867188 C 581.414062 483.332031 579.851562 483.332031 578.6875 484.132812 C 577.890625 484.667969 577.257812 485.464844 576.859375 486.367188 C 576.460938 487.433594 576.195312 488.601562 576.195312 489.667969 C 576.195312 492.964844 576.195312 496.132812 576.195312 499.398438 C 574.765625 499.398438 573.167969 499.398438 571.738281 499.398438 C 571.738281 492.800781 571.738281 486.234375 571.738281 479.632812 C 573.167969 479.632812 574.628906 479.632812 576.058594 479.632812 C 576.058594 481.332031 576.058594 483.066406 576.058594 484.765625 C 576.691406 483.332031 577.355469 481.765625 578.519531 480.566406 Z M 578.519531 480.566406 " fill-opacity="1" fill-rule="nonzero"/><path fill="#010202" d="M 588.664062 480.300781 C 590.359375 479.101562 592.617188 478.964844 594.582031 479.101562 C 596.144531 479.234375 597.871094 479.632812 599.167969 480.667969 C 600.367188 481.601562 601.132812 483.167969 601.398438 484.632812 C 601.664062 485.566406 601.664062 486.464844 601.664062 487.53125 C 601.664062 491.5 601.664062 495.433594 601.664062 499.398438 C 600.234375 499.398438 598.769531 499.398438 597.339844 499.398438 C 597.339844 498.332031 597.339844 497.300781 597.339844 496.101562 C 596.941406 496.898438 596.410156 497.800781 595.777344 498.332031 C 594.582031 499.265625 593.152344 499.765625 591.722656 499.765625 C 589.890625 499.898438 587.898438 499.5 586.46875 498.433594 C 585.269531 497.632812 584.507812 496.199219 584.238281 494.734375 C 584.105469 493.53125 584.238281 492.234375 584.90625 491.03125 C 585.4375 490.101562 586.234375 489.464844 587.132812 488.933594 C 588.0625 488.398438 589.226562 488.132812 590.292969 487.867188 C 592.121094 487.464844 593.980469 487.464844 595.679688 486.933594 C 596.34375 486.800781 597.007812 486.398438 597.242188 485.867188 C 597.640625 485.066406 597.507812 484.167969 596.976562 483.5 C 596.441406 482.832031 595.644531 482.566406 594.878906 482.433594 C 593.683594 482.167969 592.519531 482.300781 591.457031 482.832031 C 590.390625 483.367188 589.757812 484.398438 589.492188 485.601562 C 588.296875 485.066406 587 484.667969 585.800781 484.265625 C 586.136719 482.800781 587.199219 481.234375 588.664062 480.300781 M 596.277344 489.132812 C 595.34375 489.800781 594.183594 490.066406 592.984375 490.332031 C 591.921875 490.464844 591.023438 490.734375 590.09375 491.265625 C 589.425781 491.667969 588.761719 492.332031 588.664062 493.234375 C 588.527344 494.167969 588.664062 495.066406 589.195312 495.867188 C 589.726562 496.53125 590.390625 496.800781 591.15625 496.933594 C 592.484375 497.199219 594.046875 496.933594 595.113281 496 C 596.175781 495.199219 596.808594 494.03125 597.074219 492.699219 C 597.472656 491.132812 597.339844 489.398438 597.339844 487.699219 C 597.175781 488.199219 596.773438 488.734375 596.277344 489.132812 Z M 596.277344 489.132812 " fill-opacity="1" fill-rule="nonzero"/><path fill="#010202" d="M 612.703125 480.167969 C 614.132812 478.964844 616.125 478.832031 617.824219 479.234375 C 619.253906 479.5 620.582031 480.566406 621.246094 481.867188 C 621.644531 482.398438 621.777344 483.066406 622.046875 483.699219 C 622.445312 482.265625 623.242188 480.933594 624.40625 480 C 625.734375 479.066406 627.566406 478.933594 629.128906 479.199219 C 630.691406 479.464844 632.152344 480.265625 633.085938 481.566406 C 633.882812 482.632812 634.28125 483.933594 634.414062 485.265625 C 634.546875 485.933594 634.414062 486.601562 634.414062 487.367188 C 634.414062 491.433594 634.414062 495.398438 634.414062 499.464844 C 632.984375 499.464844 631.519531 499.464844 630.089844 499.464844 C 630.089844 495.5 630.089844 491.699219 630.089844 487.734375 C 630.089844 486.398438 629.957031 485.101562 629.160156 484.03125 C 628.628906 483.234375 627.730469 482.832031 626.800781 482.832031 C 625.601562 482.699219 624.4375 483.101562 623.640625 484.03125 C 622.578125 485.367188 622.445312 487.066406 622.3125 488.632812 C 622.3125 492.199219 622.3125 495.867188 622.3125 499.433594 C 620.882812 499.433594 619.417969 499.433594 617.988281 499.433594 C 617.988281 495.601562 617.988281 491.800781 617.988281 487.964844 C 617.988281 486.765625 617.855469 485.601562 617.457031 484.53125 C 617.058594 483.734375 616.394531 483.101562 615.628906 482.964844 C 614.429688 482.699219 613.132812 482.832031 612.203125 483.5 C 611.40625 484.167969 611.007812 485.066406 610.773438 486 C 610.507812 486.933594 610.375 487.832031 610.375 488.765625 C 610.375 492.332031 610.375 495.867188 610.375 499.433594 C 608.945312 499.433594 607.480469 499.433594 606.050781 499.433594 C 606.050781 492.832031 606.050781 486.265625 606.050781 479.667969 C 607.480469 479.667969 608.945312 479.667969 610.375 479.667969 C 610.375 481.101562 610.375 482.699219 610.375 484.132812 C 610.707031 482.53125 611.371094 481.101562 612.703125 480.167969 Z M 612.703125 480.167969 " fill-opacity="1" fill-rule="nonzero"/><path fill="#010202" d="M 645.917969 480.167969 C 647.25 479.234375 649.078125 478.964844 650.640625 479.101562 C 652.46875 479.234375 654.332031 480.167969 655.628906 481.464844 C 657.058594 482.898438 657.988281 484.765625 658.386719 486.734375 C 658.785156 488.699219 658.785156 490.699219 658.253906 492.53125 C 657.855469 494.367188 656.925781 496.234375 655.496094 497.667969 C 654.066406 499 652.203125 499.765625 650.375 499.898438 C 648.679688 500.03125 646.816406 499.765625 645.519531 498.566406 C 644.457031 497.765625 643.691406 496.464844 643.292969 495.132812 C 643.292969 499.101562 643.292969 502.898438 643.292969 506.867188 C 641.730469 506.867188 640.265625 506.867188 638.703125 506.867188 C 638.703125 497.765625 638.703125 488.566406 638.703125 479.464844 C 640.265625 479.464844 641.730469 479.464844 643.292969 479.464844 C 643.292969 480.800781 643.292969 482.101562 643.292969 483.433594 C 643.824219 482.265625 644.621094 480.964844 645.917969 480.167969 M 647.515625 482.800781 C 646.984375 482.933594 646.449219 483.066406 645.953125 483.464844 C 644.753906 484.132812 643.855469 485.433594 643.457031 486.765625 C 642.925781 488.332031 642.925781 490.066406 643.324219 491.765625 C 643.589844 493.332031 644.523438 494.800781 645.820312 495.601562 C 647.148438 496.398438 648.710938 496.53125 650.140625 496.132812 C 651.570312 495.734375 652.769531 494.699219 653.433594 493.367188 C 654.363281 491.667969 654.496094 489.667969 654.230469 487.832031 C 653.964844 486.265625 653.167969 484.667969 651.871094 483.632812 C 650.507812 482.800781 648.945312 482.53125 647.515625 482.800781 Z M 647.515625 482.800781 " fill-opacity="1" fill-rule="nonzero"/><path fill="#010202" d="M 687.945312 497.964844 C 689.277344 497.03125 690.574219 496 691.769531 494.800781 C 694.132812 494.800781 696.492188 494.800781 698.851562 494.800781 C 700.28125 496.234375 701.878906 497.832031 703.308594 499.265625 C 702.378906 499.398438 701.347656 499.265625 700.414062 499.265625 C 695.960938 499.265625 691.339844 499.265625 686.882812 499.265625 C 686.617188 499.265625 686.21875 499.265625 685.953125 499.265625 C 686.515625 498.867188 687.316406 498.464844 687.945312 497.964844 Z M 687.945312 497.964844 " fill-opacity="1" fill-rule="nonzero"/><g fill="#c1ff72" fill-opacity="1"><g transform="translate(287.378895, 355.863457)"><g><path d="M 15.96875 0.421875 C 13.269531 0.421875 10.894531 -0.132812 8.84375 -1.25 C 6.800781 -2.375 5.195312 -4.054688 4.03125 -6.296875 C 2.875 -8.546875 2.296875 -11.316406 2.296875 -14.609375 C 2.296875 -17.898438 2.875 -20.664062 4.03125 -22.90625 C 5.195312 -25.15625 6.800781 -26.835938 8.84375 -27.953125 C 10.894531 -29.066406 13.269531 -29.625 15.96875 -29.625 C 18.78125 -29.625 21.164062 -29.070312 23.125 -27.96875 C 25.09375 -26.875 26.492188 -25.203125 27.328125 -22.953125 L 23.125 -20.375 L 22.625 -20.40625 C 22 -21.914062 21.148438 -23 20.078125 -23.65625 C 19.003906 -24.320312 17.632812 -24.65625 15.96875 -24.65625 C 13.539062 -24.65625 11.644531 -23.851562 10.28125 -22.25 C 8.925781 -20.644531 8.25 -18.097656 8.25 -14.609375 C 8.25 -11.128906 8.925781 -8.585938 10.28125 -6.984375 C 11.644531 -5.378906 13.539062 -4.578125 15.96875 -4.578125 C 19.757812 -4.578125 22.082031 -6.421875 22.9375 -10.109375 L 23.4375 -10.109375 L 27.6875 -7.890625 C 26.894531 -5.117188 25.53125 -3.039062 23.59375 -1.65625 C 21.664062 -0.269531 19.125 0.421875 15.96875 0.421875 Z M 15.96875 0.421875 "/></g></g></g><g fill="#c1ff72" fill-opacity="1"><g transform="translate(316.032199, 355.863457)"><g><path d="M 4.875 9.34375 C 3.925781 9.34375 3.066406 9.269531 2.296875 9.125 C 1.535156 8.976562 0.914062 8.785156 0.4375 8.546875 L 1.3125 4.078125 L 1.671875 3.953125 C 2.003906 4.128906 2.414062 4.269531 2.90625 4.375 C 3.40625 4.476562 3.914062 4.53125 4.4375 4.53125 C 5.332031 4.53125 6.070312 4.414062 6.65625 4.1875 C 7.25 3.957031 7.753906 3.570312 8.171875 3.03125 C 8.585938 2.488281 8.953125 1.738281 9.265625 0.78125 L 0.484375 -22.046875 L 6.28125 -22.046875 L 11.75 -6.71875 L 12.234375 -6.71875 L 17.5625 -22.046875 L 23.203125 -22.046875 L 14.34375 1.375 C 13.632812 3.269531 12.859375 4.789062 12.015625 5.9375 C 11.171875 7.09375 10.171875 7.945312 9.015625 8.5 C 7.867188 9.0625 6.488281 9.34375 4.875 9.34375 Z M 4.875 9.34375 "/></g></g></g><g fill="#c1ff72" fill-opacity="1"><g transform="translate(339.690156, 355.863457)"><g><path d="M 3.171875 0 L 3.171875 -22.046875 L 8.484375 -22.046875 L 8.484375 -18.796875 L 8.90625 -18.703125 C 10.28125 -21.203125 12.503906 -22.453125 15.578125 -22.453125 C 18.128906 -22.453125 20 -21.757812 21.1875 -20.375 C 22.382812 -18.988281 22.984375 -16.972656 22.984375 -14.328125 L 22.984375 0 L 17.4375 0 L 17.4375 -13.640625 C 17.4375 -15.109375 17.144531 -16.164062 16.5625 -16.8125 C 15.976562 -17.457031 15.039062 -17.78125 13.75 -17.78125 C 12.164062 -17.78125 10.929688 -17.265625 10.046875 -16.234375 C 9.160156 -15.210938 8.71875 -13.601562 8.71875 -11.40625 L 8.71875 0 Z M 3.171875 0 "/></g></g></g><g fill="#c1ff72" fill-opacity="1"><g transform="translate(365.506104, 355.863457)"><g><path d="M 12.84375 0.421875 C 10.71875 0.421875 8.832031 -0.0195312 7.1875 -0.90625 C 5.550781 -1.789062 4.273438 -3.09375 3.359375 -4.8125 C 2.441406 -6.53125 1.984375 -8.597656 1.984375 -11.015625 C 1.984375 -13.429688 2.441406 -15.5 3.359375 -17.21875 C 4.273438 -18.9375 5.546875 -20.238281 7.171875 -21.125 C 8.796875 -22.007812 10.65625 -22.453125 12.75 -22.453125 C 17.394531 -22.453125 20.375 -20.769531 21.6875 -17.40625 L 17.890625 -14.6875 L 17.46875 -14.6875 C 17.007812 -15.726562 16.414062 -16.5 15.6875 -17 C 14.96875 -17.507812 13.988281 -17.765625 12.75 -17.765625 C 11.144531 -17.765625 9.894531 -17.210938 9 -16.109375 C 8.113281 -15.003906 7.671875 -13.304688 7.671875 -11.015625 C 7.671875 -8.742188 8.125 -7.050781 9.03125 -5.9375 C 9.9375 -4.832031 11.207031 -4.28125 12.84375 -4.28125 C 14.039062 -4.28125 15.054688 -4.601562 15.890625 -5.25 C 16.722656 -5.894531 17.320312 -6.820312 17.6875 -8.03125 L 18.109375 -8.078125 L 22.046875 -5.921875 C 21.484375 -4.046875 20.445312 -2.519531 18.9375 -1.34375 C 17.425781 -0.164062 15.394531 0.421875 12.84375 0.421875 Z M 12.84375 0.421875 "/></g></g></g><g fill="#c1ff72" fill-opacity="1"><g transform="translate(388.224937, 355.863457)"><g><path d="M 12.8125 0.421875 C 10.65625 0.421875 8.757812 -0.0195312 7.125 -0.90625 C 5.488281 -1.789062 4.222656 -3.085938 3.328125 -4.796875 C 2.429688 -6.515625 1.984375 -8.585938 1.984375 -11.015625 C 1.984375 -13.429688 2.429688 -15.5 3.328125 -17.21875 C 4.222656 -18.9375 5.488281 -20.238281 7.125 -21.125 C 8.757812 -22.007812 10.65625 -22.453125 12.8125 -22.453125 C 14.96875 -22.453125 16.859375 -22.007812 18.484375 -21.125 C 20.117188 -20.238281 21.390625 -18.9375 22.296875 -17.21875 C 23.203125 -15.5 23.65625 -13.429688 23.65625 -11.015625 C 23.65625 -8.585938 23.203125 -6.515625 22.296875 -4.796875 C 21.390625 -3.085938 20.117188 -1.789062 18.484375 -0.90625 C 16.859375 -0.0195312 14.96875 0.421875 12.8125 0.421875 Z M 12.8125 -4.28125 C 16.226562 -4.28125 17.9375 -6.523438 17.9375 -11.015625 C 17.9375 -13.335938 17.5 -15.039062 16.625 -16.125 C 15.75 -17.21875 14.476562 -17.765625 12.8125 -17.765625 C 9.382812 -17.765625 7.671875 -15.515625 7.671875 -11.015625 C 7.671875 -6.523438 9.382812 -4.28125 12.8125 -4.28125 Z M 12.8125 -4.28125 "/></g></g></g><g fill="#c1ff72" fill-opacity="1"><g transform="translate(413.84107, 355.863457)"><g><path d="M 5.640625 0.1875 C 4.929688 0.1875 4.304688 0.046875 3.765625 -0.234375 C 3.222656 -0.523438 2.804688 -0.925781 2.515625 -1.4375 C 2.234375 -1.945312 2.09375 -2.519531 2.09375 -3.15625 C 2.09375 -3.789062 2.234375 -4.363281 2.515625 -4.875 C 2.804688 -5.382812 3.222656 -5.785156 3.765625 -6.078125 C 4.304688 -6.367188 4.929688 -6.515625 5.640625 -6.515625 C 6.359375 -6.515625 6.984375 -6.367188 7.515625 -6.078125 C 8.054688 -5.796875 8.46875 -5.398438 8.75 -4.890625 C 9.039062 -4.390625 9.1875 -3.816406 9.1875 -3.171875 C 9.1875 -2.203125 8.863281 -1.398438 8.21875 -0.765625 C 7.570312 -0.128906 6.710938 0.1875 5.640625 0.1875 Z M 5.640625 0.1875 "/></g></g></g><g fill="#c1ff72" fill-opacity="1"><g transform="translate(425.130551, 355.863457)"><g><path d="M 5.9375 -24.671875 C 4.9375 -24.671875 4.125 -24.972656 3.5 -25.578125 C 2.875 -26.191406 2.5625 -26.976562 2.5625 -27.9375 C 2.5625 -28.882812 2.875 -29.660156 3.5 -30.265625 C 4.125 -30.867188 4.9375 -31.171875 5.9375 -31.171875 C 6.601562 -31.171875 7.191406 -31.03125 7.703125 -30.75 C 8.222656 -30.46875 8.625 -30.082031 8.90625 -29.59375 C 9.195312 -29.113281 9.34375 -28.5625 9.34375 -27.9375 C 9.34375 -27.3125 9.195312 -26.75 8.90625 -26.25 C 8.625 -25.757812 8.222656 -25.375 7.703125 -25.09375 C 7.191406 -24.8125 6.601562 -24.671875 5.9375 -24.671875 Z M 3.171875 0 L 3.171875 -22.046875 L 8.71875 -22.046875 L 8.71875 0 Z M 3.171875 0 "/></g></g></g><g fill="#c1ff72" fill-opacity="1"><g transform="translate(436.999493, 355.863457)"><g><path d="M 12.8125 0.421875 C 10.65625 0.421875 8.757812 -0.0195312 7.125 -0.90625 C 5.488281 -1.789062 4.222656 -3.085938 3.328125 -4.796875 C 2.429688 -6.515625 1.984375 -8.585938 1.984375 -11.015625 C 1.984375 -13.429688 2.429688 -15.5 3.328125 -17.21875 C 4.222656 -18.9375 5.488281 -20.238281 7.125 -21.125 C 8.757812 -22.007812 10.65625 -22.453125 12.8125 -22.453125 C 14.96875 -22.453125 16.859375 -22.007812 18.484375 -21.125 C 20.117188 -20.238281 21.390625 -18.9375 22.296875 -17.21875 C 23.203125 -15.5 23.65625 -13.429688 23.65625 -11.015625 C 23.65625 -8.585938 23.203125 -6.515625 22.296875 -4.796875 C 21.390625 -3.085938 20.117188 -1.789062 18.484375 -0.90625 C 16.859375 -0.0195312 14.96875 0.421875 12.8125 0.421875 Z M 12.8125 -4.28125 C 16.226562 -4.28125 17.9375 -6.523438 17.9375 -11.015625 C 17.9375 -13.335938 17.5 -15.039062 16.625 -16.125 C 15.75 -17.21875 14.476562 -17.765625 12.8125 -17.765625 C 9.382812 -17.765625 7.671875 -15.515625 7.671875 -11.015625 C 7.671875 -6.523438 9.382812 -4.28125 12.8125 -4.28125 Z M 12.8125 -4.28125 "/></g></g></g></svg>