<svg xmlns="http://www.w3.org/2000/svg" xmlns:xlink="http://www.w3.org/1999/xlink" width="1587" zoomAndPan="magnify" viewBox="0 0 1190.25 1683.749945" height="2245" preserveAspectRatio="xMidYMid meet" version="1.0"><defs><filter x="0%" y="0%" width="100%" height="100%" id="aa7450e8a8"><feColorMatrix values="0 0 0 0 1 0 0 0 0 1 0 0 0 0 1 0 0 0 1 0" color-interpolation-filters="sRGB"/></filter><g/><mask id="cc49f356d9"><g filter="url(#aa7450e8a8)"><rect x="-119.025" width="1428.3" fill="#000000" y="-168.374994" height="2020.499934" fill-opacity="0.49"/></g></mask><clipPath id="7fda7275cc"><path d="M 1.027344 0.890625 L 732.773438 0.890625 L 732.773438 732.640625 L 1.027344 732.640625 Z M 1.027344 0.890625 " clip-rule="nonzero"/></clipPath><clipPath id="c7539be907"><path d="M 56.492188 0.890625 L 677.308594 0.890625 C 707.941406 0.890625 732.773438 25.722656 732.773438 56.355469 L 732.773438 677.175781 C 732.773438 707.808594 707.941406 732.640625 677.308594 732.640625 L 56.492188 732.640625 C 25.859375 732.640625 1.027344 707.808594 1.027344 677.175781 L 1.027344 56.355469 C 1.027344 25.722656 25.859375 0.890625 56.492188 0.890625 Z M 56.492188 0.890625 " clip-rule="nonzero"/></clipPath><clipPath id="7a84f7e958"><rect x="0" width="733" y="0" height="733"/></clipPath><clipPath id="7a24f3c6a4"><path d="M 563.59375 749.382812 L 850.664062 749.382812 L 850.664062 1108.40625 L 563.59375 1108.40625 Z M 563.59375 749.382812 " clip-rule="nonzero"/></clipPath><clipPath id="604e5c14e3"><path d="M 757 812 L 850.664062 812 L 850.664062 911 L 757 911 Z M 757 812 " clip-rule="nonzero"/></clipPath><clipPath id="243cef133b"><path d="M 743 749.382812 L 850.664062 749.382812 L 850.664062 858 L 743 858 Z M 743 749.382812 " clip-rule="nonzero"/></clipPath></defs><g mask="url(#cc49f356d9)"><g transform="matrix(1, 0, 0, 1, 228, 475)"><g clip-path="url(#7a84f7e958)"><g clip-path="url(#7fda7275cc)"><g clip-path="url(#c7539be907)"><path fill="#919191" d="M 1.027344 0.890625 L 732.777344 0.890625 L 732.777344 732.640625 L 1.027344 732.640625 Z M 1.027344 0.890625 " fill-opacity="1" fill-rule="nonzero"/></g></g></g></g></g><g fill="#000000" fill-opacity="1"><g transform="translate(329.237505, 807.812258)"><g><path d="M 37.59375 -76.75 C 50.050781 -76.75 59.5625 -73.53125 66.125 -67.09375 C 72.6875 -60.65625 75.96875 -51.082031 75.96875 -38.375 C 75.96875 -25.707031 72.6875 -16.144531 66.125 -9.6875 C 59.5625 -3.226562 50.050781 0 37.59375 0 L 9.96875 0 L 9.96875 -76.75 Z M 36.703125 -12.75 C 44.609375 -12.75 50.519531 -14.769531 54.4375 -18.8125 C 58.351562 -22.863281 60.3125 -29.382812 60.3125 -38.375 C 60.3125 -47.375 58.351562 -53.894531 54.4375 -57.9375 C 50.519531 -61.976562 44.609375 -64 36.703125 -64 L 25.140625 -64 L 25.140625 -12.75 Z M 36.703125 -12.75 "/></g></g></g><g fill="#000000" fill-opacity="1"><g transform="translate(411.287929, 807.812258)"><g><path d="M 8.34375 0 L 8.34375 -57.90625 L 22.46875 -57.90625 L 22.46875 -49.296875 L 23.578125 -49.078125 C 24.972656 -52.304688 26.804688 -54.671875 29.078125 -56.171875 C 31.359375 -57.679688 34.125 -58.4375 37.375 -58.4375 C 40.664062 -58.4375 43.171875 -57.875 44.890625 -56.75 L 42.421875 -44.203125 L 41.3125 -44 C 40.363281 -44.382812 39.453125 -44.660156 38.578125 -44.828125 C 37.710938 -45.003906 36.648438 -45.09375 35.390625 -45.09375 C 31.328125 -45.09375 28.226562 -43.664062 26.09375 -40.8125 C 23.957031 -37.957031 22.890625 -33.382812 22.890625 -27.09375 L 22.890625 0 Z M 8.34375 0 "/></g></g></g><g fill="#000000" fill-opacity="1"><g transform="translate(456.696517, 807.812258)"><g><path d="M 33.65625 1.109375 C 27.976562 1.109375 22.992188 -0.0507812 18.703125 -2.375 C 14.421875 -4.707031 11.097656 -8.125 8.734375 -12.625 C 6.378906 -17.125 5.203125 -22.554688 5.203125 -28.921875 C 5.203125 -35.296875 6.378906 -40.738281 8.734375 -45.25 C 11.097656 -49.769531 14.421875 -53.191406 18.703125 -55.515625 C 22.992188 -57.835938 27.976562 -59 33.65625 -59 C 39.320312 -59 44.296875 -57.835938 48.578125 -55.515625 C 52.867188 -53.191406 56.203125 -49.769531 58.578125 -45.25 C 60.960938 -40.738281 62.15625 -35.296875 62.15625 -28.921875 C 62.15625 -22.554688 60.960938 -17.125 58.578125 -12.625 C 56.203125 -8.125 52.867188 -4.707031 48.578125 -2.375 C 44.296875 -0.0507812 39.320312 1.109375 33.65625 1.109375 Z M 33.65625 -11.234375 C 42.644531 -11.234375 47.140625 -17.128906 47.140625 -28.921875 C 47.140625 -35.046875 45.984375 -39.535156 43.671875 -42.390625 C 41.367188 -45.242188 38.03125 -46.671875 33.65625 -46.671875 C 24.65625 -46.671875 20.15625 -40.753906 20.15625 -28.921875 C 20.15625 -17.128906 24.65625 -11.234375 33.65625 -11.234375 Z M 33.65625 -11.234375 "/></g></g></g><g fill="#000000" fill-opacity="1"><g transform="translate(523.995707, 807.812258)"><g><path d="M 8.34375 23.46875 L 8.34375 -57.90625 L 22.890625 -57.90625 L 22.890625 -50.34375 L 23.984375 -50.140625 C 25.703125 -53.078125 27.992188 -55.285156 30.859375 -56.765625 C 33.734375 -58.253906 37.097656 -59 40.953125 -59 C 45.609375 -59 49.675781 -57.894531 53.15625 -55.6875 C 56.632812 -53.488281 59.34375 -50.140625 61.28125 -45.640625 C 63.226562 -41.148438 64.203125 -35.578125 64.203125 -28.921875 C 64.203125 -22.304688 63.175781 -16.757812 61.125 -12.28125 C 59.082031 -7.800781 56.238281 -4.445312 52.59375 -2.21875 C 48.957031 0 44.757812 1.109375 40 1.109375 C 36.394531 1.109375 33.28125 0.503906 30.65625 -0.703125 C 28.03125 -1.910156 25.804688 -3.796875 23.984375 -6.359375 L 22.890625 -6.140625 L 22.890625 23.46875 Z M 35.96875 -11.234375 C 40.300781 -11.234375 43.585938 -12.648438 45.828125 -15.484375 C 48.066406 -18.316406 49.1875 -22.796875 49.1875 -28.921875 C 49.1875 -35.046875 48.066406 -39.535156 45.828125 -42.390625 C 43.585938 -45.242188 40.300781 -46.671875 35.96875 -46.671875 C 31.90625 -46.671875 28.679688 -45.195312 26.296875 -42.25 C 23.921875 -39.3125 22.734375 -34.867188 22.734375 -28.921875 C 22.734375 -23.003906 23.921875 -18.578125 26.296875 -15.640625 C 28.679688 -12.703125 31.90625 -11.234375 35.96875 -11.234375 Z M 35.96875 -11.234375 "/></g></g></g><g fill="#000000" fill-opacity="1"><g transform="translate(593.342228, 807.812258)"><g/></g></g><g fill="#000000" fill-opacity="1"><g transform="translate(618.697563, 807.812258)"><g><path d="M 12.8125 24.5625 C 10.320312 24.5625 8.070312 24.367188 6.0625 23.984375 C 4.050781 23.597656 2.414062 23.09375 1.15625 22.46875 L 3.46875 10.703125 L 4.40625 10.390625 C 5.28125 10.847656 6.363281 11.21875 7.65625 11.5 C 8.957031 11.78125 10.289062 11.921875 11.65625 11.921875 C 14 11.921875 15.945312 11.613281 17.5 11 C 19.0625 10.382812 20.382812 9.367188 21.46875 7.953125 C 22.550781 6.535156 23.515625 4.566406 24.359375 2.046875 L 1.265625 -57.90625 L 16.484375 -57.90625 L 30.875 -17.640625 L 32.125 -17.640625 L 46.140625 -57.90625 L 60.953125 -57.90625 L 37.6875 3.625 C 35.832031 8.59375 33.796875 12.585938 31.578125 15.609375 C 29.359375 18.640625 26.734375 20.890625 23.703125 22.359375 C 20.671875 23.828125 17.039062 24.5625 12.8125 24.5625 Z M 12.8125 24.5625 "/></g></g></g><g fill="#000000" fill-opacity="1"><g transform="translate(680.852197, 807.812258)"><g><path d="M 33.65625 1.109375 C 27.976562 1.109375 22.992188 -0.0507812 18.703125 -2.375 C 14.421875 -4.707031 11.097656 -8.125 8.734375 -12.625 C 6.378906 -17.125 5.203125 -22.554688 5.203125 -28.921875 C 5.203125 -35.296875 6.378906 -40.738281 8.734375 -45.25 C 11.097656 -49.769531 14.421875 -53.191406 18.703125 -55.515625 C 22.992188 -57.835938 27.976562 -59 33.65625 -59 C 39.320312 -59 44.296875 -57.835938 48.578125 -55.515625 C 52.867188 -53.191406 56.203125 -49.769531 58.578125 -45.25 C 60.960938 -40.738281 62.15625 -35.296875 62.15625 -28.921875 C 62.15625 -22.554688 60.960938 -17.125 58.578125 -12.625 C 56.203125 -8.125 52.867188 -4.707031 48.578125 -2.375 C 44.296875 -0.0507812 39.320312 1.109375 33.65625 1.109375 Z M 33.65625 -11.234375 C 42.644531 -11.234375 47.140625 -17.128906 47.140625 -28.921875 C 47.140625 -35.046875 45.984375 -39.535156 43.671875 -42.390625 C 41.367188 -45.242188 38.03125 -46.671875 33.65625 -46.671875 C 24.65625 -46.671875 20.15625 -40.753906 20.15625 -28.921875 C 20.15625 -17.128906 24.65625 -11.234375 33.65625 -11.234375 Z M 33.65625 -11.234375 "/></g></g></g><g fill="#000000" fill-opacity="1"><g transform="translate(748.151371, 807.812258)"><g><path d="M 26.515625 1.109375 C 20.003906 1.109375 15.195312 -0.664062 12.09375 -4.21875 C 9 -7.769531 7.453125 -12.875 7.453125 -19.53125 L 7.453125 -57.90625 L 22 -57.90625 L 22 -21.359375 C 22 -17.828125 22.757812 -15.25 24.28125 -13.625 C 25.800781 -12 28.15625 -11.1875 31.34375 -11.1875 C 35.363281 -11.1875 38.492188 -12.503906 40.734375 -15.140625 C 42.972656 -17.785156 44.09375 -21.941406 44.09375 -27.609375 L 44.09375 -57.90625 L 58.640625 -57.90625 L 58.640625 0 L 44.671875 0 L 44.671875 -8.5 L 43.578125 -8.765625 C 41.722656 -5.441406 39.457031 -2.960938 36.78125 -1.328125 C 34.101562 0.296875 30.679688 1.109375 26.515625 1.109375 Z M 26.515625 1.109375 "/></g></g></g><g fill="#000000" fill-opacity="1"><g transform="translate(815.135589, 807.812258)"><g><path d="M 8.34375 0 L 8.34375 -57.90625 L 22.46875 -57.90625 L 22.46875 -49.296875 L 23.578125 -49.078125 C 24.972656 -52.304688 26.804688 -54.671875 29.078125 -56.171875 C 31.359375 -57.679688 34.125 -58.4375 37.375 -58.4375 C 40.664062 -58.4375 43.171875 -57.875 44.890625 -56.75 L 42.421875 -44.203125 L 41.3125 -44 C 40.363281 -44.382812 39.453125 -44.660156 38.578125 -44.828125 C 37.710938 -45.003906 36.648438 -45.09375 35.390625 -45.09375 C 31.328125 -45.09375 28.226562 -43.664062 26.09375 -40.8125 C 23.957031 -37.957031 22.890625 -33.382812 22.890625 -27.09375 L 22.890625 0 Z M 8.34375 0 "/></g></g></g><g fill="#000000" fill-opacity="1"><g transform="translate(392.119256, 957.415454)"><g><path d="M 33.75 1.109375 C 28.15625 1.109375 23.203125 -0.0507812 18.890625 -2.375 C 14.585938 -4.707031 11.226562 -8.128906 8.8125 -12.640625 C 6.40625 -17.160156 5.203125 -22.585938 5.203125 -28.921875 C 5.203125 -35.296875 6.40625 -40.738281 8.8125 -45.25 C 11.226562 -49.769531 14.570312 -53.191406 18.84375 -55.515625 C 23.113281 -57.835938 28 -59 33.5 -59 C 45.707031 -59 53.523438 -54.570312 56.953125 -45.71875 L 46.984375 -38.578125 L 45.890625 -38.578125 C 44.691406 -41.316406 43.140625 -43.347656 41.234375 -44.671875 C 39.328125 -46.003906 36.75 -46.671875 33.5 -46.671875 C 29.289062 -46.671875 26.015625 -45.21875 23.671875 -42.3125 C 21.328125 -39.40625 20.15625 -34.941406 20.15625 -28.921875 C 20.15625 -22.972656 21.34375 -18.535156 23.71875 -15.609375 C 26.101562 -12.691406 29.445312 -11.234375 33.75 -11.234375 C 36.90625 -11.234375 39.578125 -12.082031 41.765625 -13.78125 C 43.953125 -15.476562 45.515625 -17.921875 46.453125 -21.109375 L 47.5625 -21.203125 L 57.90625 -15.546875 C 56.4375 -10.640625 53.710938 -6.632812 49.734375 -3.53125 C 45.765625 -0.4375 40.4375 1.109375 33.75 1.109375 Z M 33.75 1.109375 "/></g></g></g><g fill="#000000" fill-opacity="1"><g transform="translate(451.806612, 957.415454)"><g><path d="M 33.65625 1.109375 C 27.976562 1.109375 22.992188 -0.0507812 18.703125 -2.375 C 14.421875 -4.707031 11.097656 -8.125 8.734375 -12.625 C 6.378906 -17.125 5.203125 -22.554688 5.203125 -28.921875 C 5.203125 -35.296875 6.378906 -40.738281 8.734375 -45.25 C 11.097656 -49.769531 14.421875 -53.191406 18.703125 -55.515625 C 22.992188 -57.835938 27.976562 -59 33.65625 -59 C 39.320312 -59 44.296875 -57.835938 48.578125 -55.515625 C 52.867188 -53.191406 56.203125 -49.769531 58.578125 -45.25 C 60.960938 -40.738281 62.15625 -35.296875 62.15625 -28.921875 C 62.15625 -22.554688 60.960938 -17.125 58.578125 -12.625 C 56.203125 -8.125 52.867188 -4.707031 48.578125 -2.375 C 44.296875 -0.0507812 39.320312 1.109375 33.65625 1.109375 Z M 33.65625 -11.234375 C 42.644531 -11.234375 47.140625 -17.128906 47.140625 -28.921875 C 47.140625 -35.046875 45.984375 -39.535156 43.671875 -42.390625 C 41.367188 -45.242188 38.03125 -46.671875 33.65625 -46.671875 C 24.65625 -46.671875 20.15625 -40.753906 20.15625 -28.921875 C 20.15625 -17.128906 24.65625 -11.234375 33.65625 -11.234375 Z M 33.65625 -11.234375 "/></g></g></g><g fill="#000000" fill-opacity="1"><g transform="translate(519.105801, 957.415454)"><g><path d="M 8.34375 0 L 8.34375 -57.90625 L 22.3125 -57.90625 L 22.3125 -49.40625 L 23.40625 -49.140625 C 27.019531 -55.710938 32.867188 -59 40.953125 -59 C 47.628906 -59 52.535156 -57.179688 55.671875 -53.546875 C 58.804688 -49.910156 60.375 -44.609375 60.375 -37.640625 L 60.375 0 L 45.828125 0 L 45.828125 -35.859375 C 45.828125 -39.703125 45.054688 -42.472656 43.515625 -44.171875 C 41.972656 -45.867188 39.507812 -46.71875 36.125 -46.71875 C 31.957031 -46.71875 28.707031 -45.367188 26.375 -42.671875 C 24.050781 -39.984375 22.890625 -35.75 22.890625 -29.96875 L 22.890625 0 Z M 8.34375 0 "/></g></g></g><g fill="#000000" fill-opacity="1"><g transform="translate(586.929947, 957.415454)"><g><path d="M 39.953125 -13.8125 L 43.734375 -3.046875 C 42.160156 -1.753906 40.179688 -0.738281 37.796875 0 C 35.421875 0.738281 32.726562 1.109375 29.71875 1.109375 C 23.445312 1.109375 18.679688 -0.597656 15.421875 -4.015625 C 12.171875 -7.429688 10.546875 -12.394531 10.546875 -18.90625 L 10.546875 -46.40625 L 1.734375 -46.40625 L 1.734375 -57.953125 L 10.546875 -57.953125 L 10.546875 -69.25 L 25.09375 -71.609375 L 25.09375 -57.953125 L 41.53125 -57.953125 L 41.53125 -46.40625 L 25.09375 -46.40625 L 25.09375 -19.953125 C 25.09375 -17.078125 25.6875 -14.984375 26.875 -13.671875 C 28.0625 -12.359375 29.796875 -11.703125 32.078125 -11.703125 C 34.671875 -11.703125 36.925781 -12.40625 38.84375 -13.8125 Z M 39.953125 -13.8125 "/></g></g></g><g fill="#000000" fill-opacity="1"><g transform="translate(631.918571, 957.415454)"><g><path d="M 22.578125 1.109375 C 18.867188 1.109375 15.644531 0.425781 12.90625 -0.9375 C 10.175781 -2.3125 8.078125 -4.316406 6.609375 -6.953125 C 5.140625 -9.597656 4.40625 -12.773438 4.40625 -16.484375 C 4.40625 -19.910156 5.140625 -22.785156 6.609375 -25.109375 C 8.078125 -27.441406 10.351562 -29.351562 13.4375 -30.84375 C 16.519531 -32.332031 20.546875 -33.476562 25.515625 -34.28125 C 28.984375 -34.84375 31.617188 -35.453125 33.421875 -36.109375 C 35.222656 -36.773438 36.4375 -37.53125 37.0625 -38.375 C 37.695312 -39.21875 38.015625 -40.285156 38.015625 -41.578125 C 38.015625 -43.429688 37.363281 -44.847656 36.0625 -45.828125 C 34.769531 -46.804688 32.617188 -47.296875 29.609375 -47.296875 C 26.390625 -47.296875 23.328125 -46.578125 20.421875 -45.140625 C 17.515625 -43.710938 14.992188 -41.828125 12.859375 -39.484375 L 11.8125 -39.484375 L 5.71875 -48.671875 C 8.65625 -51.921875 12.242188 -54.453125 16.484375 -56.265625 C 20.722656 -58.085938 25.34375 -59 30.34375 -59 C 38.007812 -59 43.554688 -57.375 46.984375 -54.125 C 50.410156 -50.875 52.125 -46.253906 52.125 -40.265625 L 52.125 -15.125 C 52.125 -12.53125 53.265625 -11.234375 55.546875 -11.234375 C 56.421875 -11.234375 57.273438 -11.390625 58.109375 -11.703125 L 58.84375 -11.5 L 59.90625 -1.359375 C 59.09375 -0.835938 57.96875 -0.410156 56.53125 -0.078125 C 55.101562 0.253906 53.53125 0.421875 51.8125 0.421875 C 48.351562 0.421875 45.648438 -0.238281 43.703125 -1.5625 C 41.765625 -2.894531 40.375 -4.984375 39.53125 -7.828125 L 38.421875 -7.921875 C 35.585938 -1.898438 30.304688 1.109375 22.578125 1.109375 Z M 27.1875 -9.765625 C 30.550781 -9.765625 33.238281 -10.890625 35.25 -13.140625 C 37.257812 -15.398438 38.265625 -18.546875 38.265625 -22.578125 L 38.265625 -28.453125 L 37.28125 -28.65625 C 36.40625 -27.957031 35.253906 -27.375 33.828125 -26.90625 C 32.410156 -26.4375 30.375 -25.972656 27.71875 -25.515625 C 24.570312 -24.984375 22.304688 -24.078125 20.921875 -22.796875 C 19.535156 -21.523438 18.84375 -19.71875 18.84375 -17.375 C 18.84375 -14.894531 19.578125 -13.003906 21.046875 -11.703125 C 22.515625 -10.410156 24.5625 -9.765625 27.1875 -9.765625 Z M 27.1875 -9.765625 "/></g></g></g><g fill="#000000" fill-opacity="1"><g transform="translate(692.970793, 957.415454)"><g><path d="M 33.75 1.109375 C 28.15625 1.109375 23.203125 -0.0507812 18.890625 -2.375 C 14.585938 -4.707031 11.226562 -8.128906 8.8125 -12.640625 C 6.40625 -17.160156 5.203125 -22.585938 5.203125 -28.921875 C 5.203125 -35.296875 6.40625 -40.738281 8.8125 -45.25 C 11.226562 -49.769531 14.570312 -53.191406 18.84375 -55.515625 C 23.113281 -57.835938 28 -59 33.5 -59 C 45.707031 -59 53.523438 -54.570312 56.953125 -45.71875 L 46.984375 -38.578125 L 45.890625 -38.578125 C 44.691406 -41.316406 43.140625 -43.347656 41.234375 -44.671875 C 39.328125 -46.003906 36.75 -46.671875 33.5 -46.671875 C 29.289062 -46.671875 26.015625 -45.21875 23.671875 -42.3125 C 21.328125 -39.40625 20.15625 -34.941406 20.15625 -28.921875 C 20.15625 -22.972656 21.34375 -18.535156 23.71875 -15.609375 C 26.101562 -12.691406 29.445312 -11.234375 33.75 -11.234375 C 36.90625 -11.234375 39.578125 -12.082031 41.765625 -13.78125 C 43.953125 -15.476562 45.515625 -17.921875 46.453125 -21.109375 L 47.5625 -21.203125 L 57.90625 -15.546875 C 56.4375 -10.640625 53.710938 -6.632812 49.734375 -3.53125 C 45.765625 -0.4375 40.4375 1.109375 33.75 1.109375 Z M 33.75 1.109375 "/></g></g></g><g fill="#000000" fill-opacity="1"><g transform="translate(752.658164, 957.415454)"><g><path d="M 39.953125 -13.8125 L 43.734375 -3.046875 C 42.160156 -1.753906 40.179688 -0.738281 37.796875 0 C 35.421875 0.738281 32.726562 1.109375 29.71875 1.109375 C 23.445312 1.109375 18.679688 -0.597656 15.421875 -4.015625 C 12.171875 -7.429688 10.546875 -12.394531 10.546875 -18.90625 L 10.546875 -46.40625 L 1.734375 -46.40625 L 1.734375 -57.953125 L 10.546875 -57.953125 L 10.546875 -69.25 L 25.09375 -71.609375 L 25.09375 -57.953125 L 41.53125 -57.953125 L 41.53125 -46.40625 L 25.09375 -46.40625 L 25.09375 -19.953125 C 25.09375 -17.078125 25.6875 -14.984375 26.875 -13.671875 C 28.0625 -12.359375 29.796875 -11.703125 32.078125 -11.703125 C 34.671875 -11.703125 36.925781 -12.40625 38.84375 -13.8125 Z M 39.953125 -13.8125 "/></g></g></g><g clip-path="url(#7a24f3c6a4)"><path fill="#de3b38" d="M 599.476562 749.386719 L 743.011719 749.386719 L 796.835938 803.238281 L 850.664062 857.089844 L 850.664062 1072.5 C 850.664062 1073.675781 850.605469 1074.847656 850.492188 1076.019531 C 850.375 1077.191406 850.203125 1078.351562 849.972656 1079.503906 C 849.746094 1080.65625 849.460938 1081.796875 849.117188 1082.921875 C 848.777344 1084.046875 848.382812 1085.152344 847.933594 1086.238281 C 847.480469 1087.324219 846.980469 1088.386719 846.425781 1089.425781 C 845.871094 1090.460938 845.269531 1091.46875 844.617188 1092.445312 C 843.960938 1093.425781 843.261719 1094.367188 842.519531 1095.277344 C 841.773438 1096.183594 840.984375 1097.054688 840.152344 1097.886719 C 839.320312 1098.71875 838.453125 1099.507812 837.542969 1100.253906 C 836.636719 1101 835.691406 1101.699219 834.714844 1102.351562 C 833.738281 1103.003906 832.730469 1103.609375 831.695312 1104.164062 C 830.660156 1104.71875 829.597656 1105.21875 828.511719 1105.667969 C 827.425781 1106.121094 826.320312 1106.515625 825.195312 1106.855469 C 824.070312 1107.199219 822.933594 1107.484375 821.78125 1107.710938 C 820.628906 1107.941406 819.464844 1108.113281 818.296875 1108.230469 C 817.128906 1108.34375 815.953125 1108.402344 814.78125 1108.402344 L 599.476562 1108.402344 C 598.300781 1108.402344 597.128906 1108.34375 595.960938 1108.230469 C 594.792969 1108.113281 593.628906 1107.941406 592.476562 1107.710938 C 591.324219 1107.484375 590.1875 1107.199219 589.0625 1106.855469 C 587.9375 1106.515625 586.832031 1106.121094 585.746094 1105.667969 C 584.660156 1105.21875 583.597656 1104.71875 582.5625 1104.164062 C 581.527344 1103.609375 580.519531 1103.003906 579.542969 1102.351562 C 578.566406 1101.699219 577.621094 1101 576.714844 1100.253906 C 575.804688 1099.507812 574.933594 1098.71875 574.105469 1097.886719 C 573.273438 1097.054688 572.484375 1096.183594 571.738281 1095.277344 C 570.992188 1094.367188 570.292969 1093.425781 569.640625 1092.445312 C 568.988281 1091.46875 568.386719 1090.460938 567.832031 1089.425781 C 567.277344 1088.386719 566.773438 1087.324219 566.324219 1086.238281 C 565.875 1085.152344 565.480469 1084.046875 565.140625 1082.921875 C 564.796875 1081.796875 564.511719 1080.65625 564.285156 1079.503906 C 564.054688 1078.351562 563.882812 1077.191406 563.765625 1076.019531 C 563.652344 1074.847656 563.59375 1073.675781 563.59375 1072.5 L 563.59375 785.289062 C 563.59375 784.113281 563.652344 782.941406 563.765625 781.769531 C 563.882812 780.601562 564.054688 779.4375 564.285156 778.285156 C 564.511719 777.132812 564.796875 775.992188 565.140625 774.867188 C 565.480469 773.742188 565.875 772.636719 566.324219 771.550781 C 566.773438 770.464844 567.277344 769.402344 567.832031 768.363281 C 568.386719 767.328125 568.988281 766.320312 569.640625 765.34375 C 570.292969 764.367188 570.992188 763.421875 571.738281 762.511719 C 572.484375 761.605469 573.273438 760.734375 574.105469 759.902344 C 574.933594 759.070312 575.804688 758.28125 576.714844 757.535156 C 577.621094 756.789062 578.566406 756.089844 579.542969 755.4375 C 580.519531 754.785156 581.527344 754.179688 582.5625 753.625 C 583.597656 753.070312 584.660156 752.570312 585.746094 752.121094 C 586.832031 751.671875 587.9375 751.273438 589.0625 750.933594 C 590.1875 750.59375 591.324219 750.304688 592.476562 750.078125 C 593.628906 749.847656 594.792969 749.675781 595.960938 749.558594 C 597.128906 749.445312 598.300781 749.386719 599.476562 749.386719 Z M 599.476562 749.386719 " fill-opacity="1" fill-rule="nonzero"/></g><g fill="#ffffff" fill-opacity="1"><g transform="translate(599.4778, 1009.134537)"><g><path d="M 68.125 -50.640625 C 68.125 -45.867188 67.035156 -41.609375 64.859375 -37.859375 C 62.691406 -34.109375 59.582031 -31.207031 55.53125 -29.15625 C 51.488281 -27.101562 46.679688 -26.078125 41.109375 -26.078125 L 22.703125 -26.078125 L 22.703125 0 L 7.203125 0 L 7.203125 -74.09375 L 40.46875 -74.09375 C 49.34375 -74.09375 56.171875 -72.050781 60.953125 -67.96875 C 65.734375 -63.882812 68.125 -58.109375 68.125 -50.640625 Z M 52.515625 -50.375 C 52.515625 -58.164062 47.921875 -62.0625 38.734375 -62.0625 L 22.703125 -62.0625 L 22.703125 -38.015625 L 39.15625 -38.015625 C 43.4375 -38.015625 46.734375 -39.078125 49.046875 -41.203125 C 51.359375 -43.328125 52.515625 -46.382812 52.515625 -50.375 Z M 52.515625 -50.375 "/></g></g></g><g fill="#ffffff" fill-opacity="1"><g transform="translate(671.277186, 1009.134537)"><g><path d="M 73.21875 -37.59375 C 73.21875 -29.957031 71.71875 -23.289062 68.71875 -17.59375 C 65.726562 -11.894531 61.488281 -7.535156 56 -4.515625 C 50.519531 -1.503906 44.242188 0 37.171875 0 L 7.203125 0 L 7.203125 -74.09375 L 34.015625 -74.09375 C 46.484375 -74.09375 56.132812 -70.945312 62.96875 -64.65625 C 69.800781 -58.363281 73.21875 -49.34375 73.21875 -37.59375 Z M 57.609375 -37.59375 C 57.609375 -45.5625 55.539062 -51.640625 51.40625 -55.828125 C 47.269531 -60.015625 41.363281 -62.109375 33.6875 -62.109375 L 22.703125 -62.109375 L 22.703125 -11.984375 L 35.84375 -11.984375 C 42.507812 -11.984375 47.800781 -14.28125 51.71875 -18.875 C 55.644531 -23.46875 57.609375 -29.707031 57.609375 -37.59375 Z M 57.609375 -37.59375 "/></g></g></g><g fill="#ffffff" fill-opacity="1"><g transform="translate(749.016053, 1009.134537)"><g><path d="M 22.703125 -62.109375 L 22.703125 -39.171875 L 60.609375 -39.171875 L 60.609375 -27.1875 L 22.703125 -27.1875 L 22.703125 0 L 7.203125 0 L 7.203125 -74.09375 L 61.8125 -74.09375 L 61.8125 -62.109375 Z M 22.703125 -62.109375 "/></g></g></g><g clip-path="url(#604e5c14e3)"><path fill="#d13532" d="M 850.664062 910.226562 L 757.726562 850.269531 L 804.195312 812.753906 L 850.664062 857.089844 Z M 850.664062 910.226562 " fill-opacity="1" fill-rule="nonzero"/></g><g clip-path="url(#243cef133b)"><path fill="#d56c6f" d="M 743.011719 749.386719 L 743.011719 821.191406 C 743.011719 822.367188 743.070312 823.539062 743.183594 824.710938 C 743.300781 825.878906 743.472656 827.042969 743.703125 828.195312 C 743.929688 829.347656 744.214844 830.488281 744.558594 831.613281 C 744.898438 832.738281 745.292969 833.84375 745.742188 834.929688 C 746.195312 836.015625 746.695312 837.078125 747.25 838.113281 C 747.804688 839.152344 748.40625 840.160156 749.058594 841.136719 C 749.710938 842.113281 750.410156 843.058594 751.15625 843.964844 C 751.902344 844.875 752.691406 845.746094 753.523438 846.578125 C 754.351562 847.40625 755.222656 848.195312 756.132812 848.941406 C 757.039062 849.6875 757.984375 850.386719 758.960938 851.042969 C 759.9375 851.695312 760.945312 852.296875 761.980469 852.851562 C 763.015625 853.40625 764.078125 853.910156 765.164062 854.359375 C 766.25 854.808594 767.355469 855.203125 768.480469 855.546875 C 769.605469 855.886719 770.742188 856.171875 771.894531 856.402344 C 773.046875 856.632812 774.210938 856.804688 775.378906 856.917969 C 776.546875 857.035156 777.722656 857.089844 778.894531 857.089844 L 850.664062 857.089844 Z M 743.011719 749.386719 " fill-opacity="1" fill-rule="nonzero"/></g><g fill="#000000" fill-opacity="1"><g transform="translate(585.599758, 1069.489487)"><g><path d="M 13.28125 0.4375 C 11.238281 0.4375 9.40625 -0.0234375 7.78125 -0.953125 C 6.15625 -1.878906 4.875 -3.25 3.9375 -5.0625 C 3 -6.875 2.53125 -9.039062 2.53125 -11.5625 C 2.53125 -14.09375 3 -16.257812 3.9375 -18.0625 C 4.875 -19.875 6.15625 -21.242188 7.78125 -22.171875 C 9.40625 -23.109375 11.238281 -23.578125 13.28125 -23.578125 C 15.726562 -23.578125 17.671875 -23.113281 19.109375 -22.1875 C 20.554688 -21.269531 21.601562 -20.039062 22.25 -18.5 L 19.921875 -16.828125 L 19.5 -16.828125 C 18.875 -18.097656 18.066406 -19.03125 17.078125 -19.625 C 16.097656 -20.21875 14.832031 -20.515625 13.28125 -20.515625 C 11.851562 -20.515625 10.597656 -20.175781 9.515625 -19.5 C 8.441406 -18.832031 7.609375 -17.828125 7.015625 -16.484375 C 6.421875 -15.140625 6.125 -13.5 6.125 -11.5625 C 6.125 -9.625 6.421875 -7.988281 7.015625 -6.65625 C 7.617188 -5.320312 8.457031 -4.316406 9.53125 -3.640625 C 10.601562 -2.960938 11.851562 -2.625 13.28125 -2.625 C 14.882812 -2.625 16.210938 -2.984375 17.265625 -3.703125 C 18.328125 -4.429688 19.15625 -5.582031 19.75 -7.15625 L 20.203125 -7.15625 L 22.4375 -5.828125 C 21.84375 -3.890625 20.769531 -2.359375 19.21875 -1.234375 C 17.675781 -0.117188 15.695312 0.4375 13.28125 0.4375 Z M 13.28125 0.4375 "/></g></g></g><g fill="#000000" fill-opacity="1"><g transform="translate(609.448467, 1069.489487)"><g><path d="M 13.28125 0.4375 C 11.09375 0.4375 9.191406 -0.0195312 7.578125 -0.9375 C 5.960938 -1.863281 4.71875 -3.222656 3.84375 -5.015625 C 2.96875 -6.816406 2.53125 -9 2.53125 -11.5625 C 2.53125 -14.113281 2.96875 -16.289062 3.84375 -18.09375 C 4.71875 -19.90625 5.960938 -21.269531 7.578125 -22.1875 C 9.191406 -23.113281 11.09375 -23.578125 13.28125 -23.578125 C 15.457031 -23.578125 17.351562 -23.113281 18.96875 -22.1875 C 20.582031 -21.269531 21.828125 -19.90625 22.703125 -18.09375 C 23.578125 -16.289062 24.015625 -14.113281 24.015625 -11.5625 C 24.015625 -9 23.578125 -6.816406 22.703125 -5.015625 C 21.828125 -3.222656 20.582031 -1.863281 18.96875 -0.9375 C 17.351562 -0.0195312 15.457031 0.4375 13.28125 0.4375 Z M 13.28125 -2.625 C 15.582031 -2.625 17.34375 -3.347656 18.5625 -4.796875 C 19.789062 -6.253906 20.40625 -8.507812 20.40625 -11.5625 C 20.40625 -14.625 19.789062 -16.878906 18.5625 -18.328125 C 17.34375 -19.785156 15.582031 -20.515625 13.28125 -20.515625 C 10.96875 -20.515625 9.195312 -19.78125 7.96875 -18.3125 C 6.738281 -16.851562 6.125 -14.601562 6.125 -11.5625 C 6.125 -8.507812 6.738281 -6.253906 7.96875 -4.796875 C 9.195312 -3.347656 10.96875 -2.625 13.28125 -2.625 Z M 13.28125 -2.625 "/></g></g></g><g fill="#000000" fill-opacity="1"><g transform="translate(636.002966, 1069.489487)"><g><path d="M 4.03125 0 L 4.03125 -23.140625 L 7.28125 -23.140625 L 7.28125 -19.5 L 7.71875 -19.40625 C 8.488281 -20.757812 9.46875 -21.789062 10.65625 -22.5 C 11.851562 -23.21875 13.3125 -23.578125 15.03125 -23.578125 C 17.820312 -23.578125 19.84375 -22.863281 21.09375 -21.4375 C 22.34375 -20.019531 22.96875 -17.835938 22.96875 -14.890625 L 22.96875 0 L 19.546875 0 L 19.546875 -14.8125 C 19.546875 -16.207031 19.367188 -17.328125 19.015625 -18.171875 C 18.660156 -19.015625 18.109375 -19.628906 17.359375 -20.015625 C 16.609375 -20.398438 15.625 -20.59375 14.40625 -20.59375 C 12.320312 -20.59375 10.640625 -19.90625 9.359375 -18.53125 C 8.085938 -17.15625 7.453125 -14.9375 7.453125 -11.875 L 7.453125 0 Z M 4.03125 0 "/></g></g></g><g fill="#000000" fill-opacity="1"><g transform="translate(662.641366, 1069.489487)"><g><path d="M 15.640625 -3.671875 L 16.734375 -1.21875 C 16.191406 -0.675781 15.472656 -0.265625 14.578125 0.015625 C 13.691406 0.296875 12.734375 0.4375 11.703125 0.4375 C 7.285156 0.4375 5.078125 -1.796875 5.078125 -6.265625 L 5.078125 -20.34375 L 1.046875 -20.34375 L 1.046875 -23.15625 L 5.078125 -23.15625 L 5.078125 -28.046875 L 8.5 -28.609375 L 8.5 -23.15625 L 15.9375 -23.15625 L 15.9375 -20.34375 L 8.5 -20.34375 L 8.5 -6.609375 C 8.5 -3.953125 9.648438 -2.625 11.953125 -2.625 C 13.210938 -2.625 14.296875 -2.972656 15.203125 -3.671875 Z M 15.640625 -3.671875 "/></g></g></g><g fill="#000000" fill-opacity="1"><g transform="translate(680.260465, 1069.489487)"><g><path d="M 9.546875 0.4375 C 7.265625 0.4375 5.484375 -0.15625 4.203125 -1.34375 C 2.921875 -2.53125 2.28125 -4.226562 2.28125 -6.4375 C 2.28125 -7.8125 2.5625 -8.96875 3.125 -9.90625 C 3.695312 -10.851562 4.578125 -11.625 5.765625 -12.21875 C 6.953125 -12.8125 8.503906 -13.269531 10.421875 -13.59375 C 12.097656 -13.875 13.375 -14.1875 14.25 -14.53125 C 15.125 -14.882812 15.710938 -15.273438 16.015625 -15.703125 C 16.316406 -16.140625 16.46875 -16.6875 16.46875 -17.34375 C 16.46875 -18.394531 16.101562 -19.195312 15.375 -19.75 C 14.65625 -20.3125 13.5 -20.59375 11.90625 -20.59375 C 10.414062 -20.59375 9.132812 -20.300781 8.0625 -19.71875 C 6.988281 -19.144531 6.007812 -18.285156 5.125 -17.140625 L 4.703125 -17.140625 L 3.015625 -19.5 C 3.992188 -20.75 5.238281 -21.738281 6.75 -22.46875 C 8.257812 -23.207031 9.976562 -23.578125 11.90625 -23.578125 C 14.632812 -23.578125 16.644531 -22.976562 17.9375 -21.78125 C 19.226562 -20.582031 19.875 -18.929688 19.875 -16.828125 L 19.875 -4.546875 C 19.875 -3.265625 20.421875 -2.625 21.515625 -2.625 C 21.878906 -2.625 22.226562 -2.6875 22.5625 -2.8125 L 22.859375 -2.71875 L 23.265625 -0.359375 C 23.003906 -0.191406 22.664062 -0.0625 22.25 0.03125 C 21.84375 0.125 21.425781 0.171875 21 0.171875 C 19.71875 0.171875 18.753906 -0.109375 18.109375 -0.671875 C 17.460938 -1.234375 17.046875 -2.054688 16.859375 -3.140625 L 16.421875 -3.1875 C 15.765625 -1.96875 14.875 -1.054688 13.75 -0.453125 C 12.632812 0.140625 11.234375 0.4375 9.546875 0.4375 Z M 10.296875 -2.28125 C 11.585938 -2.28125 12.703125 -2.578125 13.640625 -3.171875 C 14.585938 -3.765625 15.3125 -4.597656 15.8125 -5.671875 C 16.3125 -6.753906 16.5625 -8.003906 16.5625 -9.421875 L 16.5625 -12.359375 L 16.171875 -12.4375 C 15.648438 -12.070312 15.019531 -11.765625 14.28125 -11.515625 C 13.539062 -11.273438 12.503906 -11.054688 11.171875 -10.859375 C 9.835938 -10.679688 8.773438 -10.398438 7.984375 -10.015625 C 7.191406 -9.640625 6.625 -9.160156 6.28125 -8.578125 C 5.945312 -8.003906 5.78125 -7.289062 5.78125 -6.4375 C 5.78125 -5.082031 6.175781 -4.050781 6.96875 -3.34375 C 7.769531 -2.632812 8.878906 -2.28125 10.296875 -2.28125 Z M 10.296875 -2.28125 "/></g></g></g><g fill="#000000" fill-opacity="1"><g transform="translate(704.193075, 1069.489487)"><g><path d="M 13.28125 0.4375 C 11.238281 0.4375 9.40625 -0.0234375 7.78125 -0.953125 C 6.15625 -1.878906 4.875 -3.25 3.9375 -5.0625 C 3 -6.875 2.53125 -9.039062 2.53125 -11.5625 C 2.53125 -14.09375 3 -16.257812 3.9375 -18.0625 C 4.875 -19.875 6.15625 -21.242188 7.78125 -22.171875 C 9.40625 -23.109375 11.238281 -23.578125 13.28125 -23.578125 C 15.726562 -23.578125 17.671875 -23.113281 19.109375 -22.1875 C 20.554688 -21.269531 21.601562 -20.039062 22.25 -18.5 L 19.921875 -16.828125 L 19.5 -16.828125 C 18.875 -18.097656 18.066406 -19.03125 17.078125 -19.625 C 16.097656 -20.21875 14.832031 -20.515625 13.28125 -20.515625 C 11.851562 -20.515625 10.597656 -20.175781 9.515625 -19.5 C 8.441406 -18.832031 7.609375 -17.828125 7.015625 -16.484375 C 6.421875 -15.140625 6.125 -13.5 6.125 -11.5625 C 6.125 -9.625 6.421875 -7.988281 7.015625 -6.65625 C 7.617188 -5.320312 8.457031 -4.316406 9.53125 -3.640625 C 10.601562 -2.960938 11.851562 -2.625 13.28125 -2.625 C 14.882812 -2.625 16.210938 -2.984375 17.265625 -3.703125 C 18.328125 -4.429688 19.15625 -5.582031 19.75 -7.15625 L 20.203125 -7.15625 L 22.4375 -5.828125 C 21.84375 -3.890625 20.769531 -2.359375 19.21875 -1.234375 C 17.675781 -0.117188 15.695312 0.4375 13.28125 0.4375 Z M 13.28125 0.4375 "/></g></g></g><g fill="#000000" fill-opacity="1"><g transform="translate(728.041784, 1069.489487)"><g><path d="M 15.640625 -3.671875 L 16.734375 -1.21875 C 16.191406 -0.675781 15.472656 -0.265625 14.578125 0.015625 C 13.691406 0.296875 12.734375 0.4375 11.703125 0.4375 C 7.285156 0.4375 5.078125 -1.796875 5.078125 -6.265625 L 5.078125 -20.34375 L 1.046875 -20.34375 L 1.046875 -23.15625 L 5.078125 -23.15625 L 5.078125 -28.046875 L 8.5 -28.609375 L 8.5 -23.15625 L 15.9375 -23.15625 L 15.9375 -20.34375 L 8.5 -20.34375 L 8.5 -6.609375 C 8.5 -3.953125 9.648438 -2.625 11.953125 -2.625 C 13.210938 -2.625 14.296875 -2.972656 15.203125 -3.671875 Z M 15.640625 -3.671875 "/></g></g></g><g fill="#000000" fill-opacity="1"><g transform="translate(745.660884, 1069.489487)"><g><path d="M 5.640625 0.203125 C 4.847656 0.203125 4.21875 -0.015625 3.75 -0.453125 C 3.289062 -0.898438 3.0625 -1.5 3.0625 -2.25 C 3.0625 -2.96875 3.289062 -3.5625 3.75 -4.03125 C 4.21875 -4.5 4.847656 -4.734375 5.640625 -4.734375 C 6.453125 -4.734375 7.085938 -4.507812 7.546875 -4.0625 C 8.015625 -3.613281 8.25 -3.019531 8.25 -2.28125 C 8.25 -1.539062 8.015625 -0.941406 7.546875 -0.484375 C 7.078125 -0.0234375 6.441406 0.203125 5.640625 0.203125 Z M 5.640625 0.203125 "/></g></g></g><g fill="#000000" fill-opacity="1"><g transform="translate(756.966472, 1069.489487)"><g><path d="M 4.03125 9.375 L 4.03125 -23.140625 L 7.453125 -23.140625 L 7.453125 -19.671875 L 7.890625 -19.59375 C 9.609375 -22.25 12.128906 -23.578125 15.453125 -23.578125 C 17.378906 -23.578125 19.0625 -23.132812 20.5 -22.25 C 21.945312 -21.375 23.066406 -20.035156 23.859375 -18.234375 C 24.660156 -16.441406 25.0625 -14.21875 25.0625 -11.5625 C 25.0625 -8.914062 24.640625 -6.695312 23.796875 -4.90625 C 22.960938 -3.113281 21.800781 -1.773438 20.3125 -0.890625 C 18.832031 -0.00390625 17.128906 0.4375 15.203125 0.4375 C 13.640625 0.4375 12.25 0.164062 11.03125 -0.375 C 9.8125 -0.925781 8.765625 -1.820312 7.890625 -3.0625 L 7.453125 -2.984375 L 7.453125 9.375 Z M 14.453125 -2.625 C 19.140625 -2.625 21.484375 -5.601562 21.484375 -11.5625 C 21.484375 -17.53125 19.140625 -20.515625 14.453125 -20.515625 C 13.078125 -20.515625 11.863281 -20.195312 10.8125 -19.5625 C 9.769531 -18.9375 8.945312 -17.957031 8.34375 -16.625 C 7.75 -15.289062 7.453125 -13.601562 7.453125 -11.5625 C 7.453125 -9.53125 7.75 -7.847656 8.34375 -6.515625 C 8.945312 -5.179688 9.769531 -4.195312 10.8125 -3.5625 C 11.863281 -2.9375 13.078125 -2.625 14.453125 -2.625 Z M 14.453125 -2.625 "/></g></g></g><g fill="#000000" fill-opacity="1"><g transform="translate(784.569727, 1069.489487)"><g><path d="M 12 0.4375 C 10.132812 0.4375 8.492188 -0.00390625 7.078125 -0.890625 C 5.660156 -1.773438 4.546875 -3.113281 3.734375 -4.90625 C 2.929688 -6.695312 2.53125 -8.914062 2.53125 -11.5625 C 2.53125 -14.195312 2.945312 -16.410156 3.78125 -18.203125 C 4.625 -20.003906 5.785156 -21.347656 7.265625 -22.234375 C 8.742188 -23.128906 10.453125 -23.578125 12.390625 -23.578125 C 13.929688 -23.578125 15.316406 -23.285156 16.546875 -22.703125 C 17.773438 -22.117188 18.832031 -21.164062 19.71875 -19.84375 L 20.15625 -19.921875 L 20.15625 -32.421875 L 23.578125 -32.421875 L 23.578125 0 L 20.15625 0 L 20.15625 -3.375 L 19.71875 -3.453125 C 18.957031 -2.304688 17.929688 -1.367188 16.640625 -0.640625 C 15.347656 0.078125 13.800781 0.4375 12 0.4375 Z M 13.0625 -2.625 C 15.21875 -2.625 16.9375 -3.359375 18.21875 -4.828125 C 19.507812 -6.304688 20.15625 -8.550781 20.15625 -11.5625 C 20.15625 -14.582031 19.507812 -16.828125 18.21875 -18.296875 C 16.9375 -19.773438 15.21875 -20.515625 13.0625 -20.515625 C 10.84375 -20.515625 9.128906 -19.789062 7.921875 -18.34375 C 6.722656 -16.90625 6.125 -14.644531 6.125 -11.5625 C 6.125 -5.601562 8.4375 -2.625 13.0625 -2.625 Z M 13.0625 -2.625 "/></g></g></g><g fill="#000000" fill-opacity="1"><g transform="translate(812.193967, 1069.489487)"><g><path d="M 5.15625 0 L 5.15625 -20.34375 L 1.125 -20.34375 L 1.125 -23.15625 L 5.15625 -23.15625 C 4.90625 -24.164062 4.78125 -25.125 4.78125 -26.03125 C 4.78125 -27.519531 5.097656 -28.78125 5.734375 -29.8125 C 6.367188 -30.84375 7.253906 -31.609375 8.390625 -32.109375 C 9.523438 -32.609375 10.832031 -32.859375 12.3125 -32.859375 C 14.613281 -32.859375 16.382812 -32.363281 17.625 -31.375 L 16.296875 -28.96875 L 15.859375 -28.875 C 14.953125 -29.601562 13.769531 -29.96875 12.3125 -29.96875 C 10.957031 -29.96875 9.929688 -29.617188 9.234375 -28.921875 C 8.546875 -28.222656 8.203125 -27.226562 8.203125 -25.9375 C 8.203125 -25.144531 8.328125 -24.21875 8.578125 -23.15625 L 15.9375 -23.15625 L 15.9375 -20.34375 L 8.578125 -20.34375 L 8.578125 0 Z M 5.15625 0 "/></g></g></g></svg>