<svg xmlns="http://www.w3.org/2000/svg" xmlns:xlink="http://www.w3.org/1999/xlink" width="500" zoomAndPan="magnify" viewBox="0 0 375 374.999991" height="500" preserveAspectRatio="xMidYMid meet" version="1.0"><defs><g/><clipPath id="ea60ab981a"><path d="M 87 227 L 258.75 227 L 258.75 287 L 87 287 Z M 87 227 " clip-rule="nonzero"/></clipPath></defs><path fill="#3f5965" d="M 178.484375 302.574219 C 181.542969 301.667969 184.519531 300.621094 187.421875 299.457031 C 137.253906 309.382812 86.851562 279.652344 72 229.644531 C 57.152344 179.640625 83.15625 127.21875 130.613281 108.152344 C 127.546875 108.761719 124.480469 109.507812 121.421875 110.417969 C 68.359375 126.171875 38.117188 181.964844 53.875 235.027344 C 69.632812 288.089844 125.421875 318.332031 178.484375 302.574219 " fill-opacity="1" fill-rule="nonzero"/><path fill="#289db9" d="M 54.300781 277.136719 C 56.964844 279.222656 59.695312 281.15625 62.480469 282.949219 C 23.128906 245.671875 17.914062 183.875 52.027344 140.367188 C 86.140625 96.863281 147.398438 87.1875 192.984375 116.511719 C 190.578125 114.234375 188.054688 112.039062 185.394531 109.953125 C 139.226562 73.753906 72.457031 81.835938 36.253906 128 C 0.0585938 174.167969 8.136719 240.9375 54.300781 277.136719 " fill-opacity="1" fill-rule="nonzero"/><g clip-path="url(#ea60ab981a)"><path fill="#289db9" d="M 153.082031 272.285156 C 125.707031 264.925781 103.1875 248.511719 87.875 227.136719 C 99.945312 253.792969 123.414062 275.035156 153.878906 283.222656 C 193.675781 293.921875 234.308594 279.359375 258.757812 249.355469 C 230.324219 272.785156 191.367188 282.574219 153.082031 272.285156 " fill-opacity="1" fill-rule="nonzero"/></g><g fill="#3f5965" fill-opacity="1"><g transform="translate(81.314416, 217.514585)"><g><path d="M 0.625 0 L 8.203125 -43.59375 L 21.796875 -43.5625 C 26.847656 -43.539062 30.640625 -42.507812 33.171875 -40.46875 C 35.703125 -38.4375 36.847656 -35.578125 36.609375 -31.890625 C 36.328125 -27.472656 33.785156 -24.25 28.984375 -22.21875 C 30.710938 -21.613281 32.054688 -20.488281 33.015625 -18.84375 C 33.972656 -17.195312 34.382812 -15.253906 34.25 -13.015625 C 33.96875 -8.910156 32.351562 -5.710938 29.40625 -3.421875 C 26.46875 -1.140625 22.453125 0 17.359375 0 Z M 12.71875 -18.984375 L 10.65625 -7.21875 L 17.578125 -7.1875 C 19.734375 -7.1875 21.535156 -7.71875 22.984375 -8.78125 C 24.441406 -9.851562 25.3125 -11.296875 25.59375 -13.109375 C 25.875 -14.910156 25.628906 -16.3125 24.859375 -17.3125 C 24.085938 -18.320312 22.796875 -18.867188 20.984375 -18.953125 Z M 13.796875 -25.328125 L 19.765625 -25.265625 C 21.972656 -25.304688 23.78125 -25.828125 25.1875 -26.828125 C 26.59375 -27.828125 27.4375 -29.210938 27.71875 -30.984375 C 28.21875 -34.492188 26.375 -36.257812 22.1875 -36.28125 L 15.71875 -36.3125 Z M 13.796875 -25.328125 "/></g></g></g><g fill="#3f5965" fill-opacity="1"><g transform="translate(116.689098, 217.514585)"><g><path d="M 9.015625 0 L 0.515625 0 L 8.5 -45.984375 L 16.96875 -45.984375 Z M 9.015625 0 "/></g></g></g><g fill="#3f5965" fill-opacity="1"><g transform="translate(129.881998, 217.514585)"><g><path d="M 20.140625 -3.359375 C 17.753906 -0.660156 14.785156 0.65625 11.234375 0.59375 C 8.117188 0.550781 5.757812 -0.5625 4.15625 -2.75 C 2.5625 -4.945312 1.945312 -7.84375 2.3125 -11.4375 L 5.8125 -32.390625 L 14.25 -32.390625 L 10.6875 -11.34375 C 10.601562 -10.6875 10.59375 -10.066406 10.65625 -9.484375 C 10.851562 -7.492188 11.960938 -6.46875 13.984375 -6.40625 C 16.597656 -6.320312 18.765625 -7.332031 20.484375 -9.4375 L 24.515625 -32.390625 L 33.015625 -32.390625 L 27.390625 0 L 19.515625 0 Z M 20.140625 -3.359375 "/></g></g></g><g fill="#3f5965" fill-opacity="1"><g transform="translate(160.586828, 217.514585)"><g><path d="M 15.484375 0.59375 C 12.648438 0.570312 10.140625 -0.117188 7.953125 -1.484375 C 5.765625 -2.847656 4.128906 -4.722656 3.046875 -7.109375 C 1.972656 -9.492188 1.554688 -12.125 1.796875 -15 L 1.890625 -16.203125 C 2.179688 -19.347656 3.097656 -22.238281 4.640625 -24.875 C 6.179688 -27.507812 8.15625 -29.539062 10.5625 -30.96875 C 12.976562 -32.394531 15.65625 -33.066406 18.59375 -32.984375 C 22.757812 -32.910156 25.914062 -31.378906 28.0625 -28.390625 C 30.207031 -25.410156 31.019531 -21.632812 30.5 -17.0625 L 30.03125 -13.375 L 10.171875 -13.375 C 10.097656 -11.28125 10.609375 -9.601562 11.703125 -8.34375 C 12.804688 -7.09375 14.304688 -6.445312 16.203125 -6.40625 C 19.273438 -6.320312 21.96875 -7.507812 24.28125 -9.96875 L 28.140625 -5.171875 C 26.921875 -3.335938 25.160156 -1.90625 22.859375 -0.875 C 20.566406 0.144531 18.109375 0.632812 15.484375 0.59375 Z M 18.171875 -26.015625 C 16.617188 -26.054688 15.238281 -25.566406 14.03125 -24.546875 C 12.820312 -23.523438 11.738281 -21.757812 10.78125 -19.25 L 22.390625 -19.25 L 22.578125 -20.03125 C 22.691406 -20.820312 22.703125 -21.578125 22.609375 -22.296875 C 22.398438 -23.460938 21.90625 -24.367188 21.125 -25.015625 C 20.351562 -25.660156 19.367188 -25.992188 18.171875 -26.015625 Z M 18.171875 -26.015625 "/></g></g></g><g fill="#289db9" fill-opacity="1"><g transform="translate(188.037254, 216.32372)"><g><path d="M 35.78125 -12.65625 L 46.28125 -43.59375 L 55.234375 -43.59375 L 39.03125 0 L 30.203125 0 L 27.90625 -29.046875 L 16.5 0 L 7.671875 0 L 5.09375 -43.59375 L 13.65625 -43.59375 L 14.515625 -12.8125 L 26.25 -43.59375 L 33.703125 -43.59375 Z M 35.78125 -12.65625 "/></g></g></g><g fill="#289db9" fill-opacity="1"><g transform="translate(237.452165, 216.32372)"><g><path d="M 18.828125 0 C 18.566406 -0.820312 18.457031 -1.800781 18.5 -2.9375 C 16.0625 -0.5 13.304688 0.675781 10.234375 0.59375 C 7.398438 0.550781 5.050781 -0.367188 3.1875 -2.171875 C 1.320312 -3.972656 0.445312 -6.203125 0.5625 -8.859375 C 0.707031 -12.390625 2.191406 -15.097656 5.015625 -16.984375 C 7.835938 -18.867188 11.625 -19.8125 16.375 -19.8125 L 20.328125 -19.765625 L 20.75 -21.703125 C 20.863281 -22.359375 20.894531 -22.988281 20.84375 -23.59375 C 20.738281 -24.53125 20.378906 -25.257812 19.765625 -25.78125 C 19.160156 -26.3125 18.359375 -26.585938 17.359375 -26.609375 C 16.046875 -26.648438 14.929688 -26.328125 14.015625 -25.640625 C 13.097656 -24.953125 12.507812 -23.957031 12.25 -22.65625 L 3.765625 -22.640625 C 3.910156 -25.722656 5.332031 -28.226562 8.03125 -30.15625 C 10.738281 -32.082031 14.078125 -33.023438 18.046875 -32.984375 C 21.722656 -32.910156 24.597656 -31.820312 26.671875 -29.71875 C 28.742188 -27.613281 29.613281 -24.898438 29.28125 -21.578125 L 26.796875 -6.078125 L 26.640625 -4.15625 C 26.597656 -2.738281 26.769531 -1.539062 27.15625 -0.5625 L 27.125 0 Z M 12.328125 -5.953125 C 14.765625 -5.878906 16.894531 -6.9375 18.71875 -9.125 L 19.765625 -14.734375 L 16.828125 -14.765625 C 13.710938 -14.679688 11.46875 -13.734375 10.09375 -11.921875 C 9.59375 -11.253906 9.28125 -10.441406 9.15625 -9.484375 C 9 -8.410156 9.222656 -7.554688 9.828125 -6.921875 C 10.441406 -6.296875 11.273438 -5.972656 12.328125 -5.953125 Z M 12.328125 -5.953125 "/></g></g></g><g fill="#289db9" fill-opacity="1"><g transform="translate(266.750519, 216.32372)"><g><path d="M 13.71875 -10.6875 L 22.9375 -32.390625 L 32.03125 -32.390625 L 16.375 0 L 8.296875 0 L 2.75 -32.390625 L 11.3125 -32.390625 Z M 13.71875 -10.6875 "/></g></g></g><g fill="#289db9" fill-opacity="1"><g transform="translate(294.222806, 216.32372)"><g><path d="M 15.484375 0.59375 C 12.648438 0.570312 10.140625 -0.117188 7.953125 -1.484375 C 5.765625 -2.847656 4.128906 -4.722656 3.046875 -7.109375 C 1.972656 -9.492188 1.554688 -12.125 1.796875 -15 L 1.890625 -16.203125 C 2.179688 -19.347656 3.097656 -22.238281 4.640625 -24.875 C 6.179688 -27.507812 8.15625 -29.539062 10.5625 -30.96875 C 12.976562 -32.394531 15.65625 -33.066406 18.59375 -32.984375 C 22.757812 -32.910156 25.914062 -31.378906 28.0625 -28.390625 C 30.207031 -25.410156 31.019531 -21.632812 30.5 -17.0625 L 30.03125 -13.375 L 10.171875 -13.375 C 10.097656 -11.28125 10.609375 -9.601562 11.703125 -8.34375 C 12.804688 -7.09375 14.304688 -6.445312 16.203125 -6.40625 C 19.273438 -6.320312 21.96875 -7.507812 24.28125 -9.96875 L 28.140625 -5.171875 C 26.921875 -3.335938 25.160156 -1.90625 22.859375 -0.875 C 20.566406 0.144531 18.109375 0.632812 15.484375 0.59375 Z M 18.171875 -26.015625 C 16.617188 -26.054688 15.238281 -25.566406 14.03125 -24.546875 C 12.820312 -23.523438 11.738281 -21.757812 10.78125 -19.25 L 22.390625 -19.25 L 22.578125 -20.03125 C 22.691406 -20.820312 22.703125 -21.578125 22.609375 -22.296875 C 22.398438 -23.460938 21.90625 -24.367188 21.125 -25.015625 C 20.351562 -25.660156 19.367188 -25.992188 18.171875 -26.015625 Z M 18.171875 -26.015625 "/></g></g></g><g fill="#289db9" fill-opacity="1"><g transform="translate(323.790575, 216.32372)"><g><path d="M 18.859375 -9.125 C 19.179688 -10.726562 18.070312 -11.890625 15.53125 -12.609375 L 12.8125 -13.296875 C 6.363281 -15.066406 3.226562 -18.195312 3.40625 -22.6875 C 3.507812 -25.738281 4.863281 -28.226562 7.46875 -30.15625 C 10.070312 -32.082031 13.210938 -33.023438 16.890625 -32.984375 C 20.535156 -32.953125 23.484375 -31.988281 25.734375 -30.09375 C 27.992188 -28.195312 29.144531 -25.671875 29.1875 -22.515625 L 20.8125 -22.546875 C 20.84375 -25.316406 19.460938 -26.722656 16.671875 -26.765625 C 15.359375 -26.765625 14.21875 -26.429688 13.25 -25.765625 C 12.28125 -25.109375 11.6875 -24.222656 11.46875 -23.109375 C 11.164062 -21.515625 12.375 -20.390625 15.09375 -19.734375 L 16.28125 -19.453125 C 19.039062 -18.796875 21.144531 -18.039062 22.59375 -17.1875 C 24.050781 -16.34375 25.175781 -15.289062 25.96875 -14.03125 C 26.757812 -12.78125 27.125 -11.273438 27.0625 -9.515625 C 27 -7.460938 26.332031 -5.664062 25.0625 -4.125 C 23.800781 -2.59375 22.066406 -1.40625 19.859375 -0.5625 C 17.660156 0.269531 15.34375 0.65625 12.90625 0.59375 C 9.3125 0.550781 6.316406 -0.476562 3.921875 -2.5 C 1.523438 -4.519531 0.304688 -7.140625 0.265625 -10.359375 L 8.234375 -10.296875 C 8.316406 -7.203125 9.972656 -5.632812 13.203125 -5.59375 C 14.753906 -5.59375 16.035156 -5.910156 17.046875 -6.546875 C 18.054688 -7.191406 18.660156 -8.050781 18.859375 -9.125 Z M 18.859375 -9.125 "/></g></g></g><g fill="#289db9" fill-opacity="1"><g transform="translate(121.017609, 239.151833)"><g><path d="M 6.03125 0.25 C 5.28125 0.25 4.550781 0.128906 3.84375 -0.109375 C 3.144531 -0.347656 2.523438 -0.71875 1.984375 -1.21875 C 1.441406 -1.71875 1.035156 -2.347656 0.765625 -3.109375 L 2.6875 -3.640625 C 2.957031 -2.878906 3.425781 -2.316406 4.09375 -1.953125 C 4.769531 -1.597656 5.472656 -1.421875 6.203125 -1.421875 C 6.753906 -1.421875 7.273438 -1.515625 7.765625 -1.703125 C 8.265625 -1.890625 8.664062 -2.171875 8.96875 -2.546875 C 9.28125 -2.921875 9.4375 -3.367188 9.4375 -3.890625 C 9.4375 -4.398438 9.296875 -4.804688 9.015625 -5.109375 C 8.742188 -5.410156 8.382812 -5.660156 7.9375 -5.859375 C 7.488281 -6.054688 6.992188 -6.234375 6.453125 -6.390625 C 5.921875 -6.546875 5.378906 -6.710938 4.828125 -6.890625 C 4.285156 -7.078125 3.789062 -7.3125 3.34375 -7.59375 C 2.894531 -7.882812 2.53125 -8.257812 2.25 -8.71875 C 1.976562 -9.175781 1.84375 -9.765625 1.84375 -10.484375 C 1.84375 -11.359375 2.082031 -12.082031 2.5625 -12.65625 C 3.050781 -13.238281 3.675781 -13.671875 4.4375 -13.953125 C 5.207031 -14.242188 6.015625 -14.390625 6.859375 -14.390625 C 7.546875 -14.390625 8.222656 -14.289062 8.890625 -14.09375 C 9.554688 -13.894531 10.148438 -13.601562 10.671875 -13.21875 C 11.203125 -12.832031 11.601562 -12.34375 11.875 -11.75 L 9.921875 -11.203125 C 9.671875 -11.691406 9.242188 -12.066406 8.640625 -12.328125 C 8.046875 -12.585938 7.425781 -12.71875 6.78125 -12.71875 C 6.269531 -12.71875 5.789062 -12.640625 5.34375 -12.484375 C 4.894531 -12.335938 4.535156 -12.097656 4.265625 -11.765625 C 3.992188 -11.441406 3.859375 -11.035156 3.859375 -10.546875 C 3.859375 -10.078125 3.992188 -9.691406 4.265625 -9.390625 C 4.535156 -9.097656 4.898438 -8.859375 5.359375 -8.671875 C 5.828125 -8.484375 6.332031 -8.3125 6.875 -8.15625 C 7.414062 -8 7.957031 -7.820312 8.5 -7.625 C 9.039062 -7.4375 9.539062 -7.203125 10 -6.921875 C 10.457031 -6.640625 10.820312 -6.28125 11.09375 -5.84375 C 11.375 -5.40625 11.515625 -4.847656 11.515625 -4.171875 C 11.515625 -3.460938 11.359375 -2.832031 11.046875 -2.28125 C 10.734375 -1.726562 10.316406 -1.265625 9.796875 -0.890625 C 9.273438 -0.523438 8.691406 -0.242188 8.046875 -0.046875 C 7.398438 0.148438 6.726562 0.25 6.03125 0.25 Z M 6.03125 0.25 "/></g></g></g><g fill="#289db9" fill-opacity="1"><g transform="translate(133.910043, 239.151833)"><g><path d="M 3.65625 0.234375 C 2.625 0.234375 1.894531 -0.046875 1.46875 -0.609375 C 1.050781 -1.171875 0.84375 -1.867188 0.84375 -2.703125 C 0.84375 -3.210938 0.90625 -3.742188 1.03125 -4.296875 L 2.34375 -10.5 L 4.171875 -10.5 L 2.859375 -4.34375 C 2.804688 -4.082031 2.757812 -3.828125 2.71875 -3.578125 C 2.6875 -3.335938 2.671875 -3.113281 2.671875 -2.90625 C 2.671875 -2.4375 2.785156 -2.050781 3.015625 -1.75 C 3.242188 -1.457031 3.671875 -1.3125 4.296875 -1.3125 C 5.128906 -1.3125 5.863281 -1.597656 6.5 -2.171875 C 7.132812 -2.742188 7.59375 -3.6875 7.875 -5 L 9.0625 -10.5 L 10.859375 -10.5 L 8.640625 0 L 7.265625 0 L 7.140625 -1.484375 C 6.679688 -0.890625 6.1875 -0.453125 5.65625 -0.171875 C 5.132812 0.0976562 4.46875 0.234375 3.65625 0.234375 Z M 3.65625 0.234375 "/></g></g></g><g fill="#289db9" fill-opacity="1"><g transform="translate(145.341756, 239.151833)"><g><path d="M 0.171875 0 L 2.390625 -10.5 L 3.71875 -10.5 L 3.890625 -8.53125 C 4.328125 -9.15625 4.835938 -9.664062 5.421875 -10.0625 C 6.015625 -10.46875 6.832031 -10.671875 7.875 -10.671875 L 8.109375 -10.671875 L 7.703125 -8.78125 C 7.304688 -8.800781 6.941406 -8.78125 6.609375 -8.71875 C 5.535156 -8.550781 4.710938 -8.078125 4.140625 -7.296875 C 3.566406 -6.515625 3.15625 -5.53125 2.90625 -4.34375 L 1.984375 0 Z M 0.171875 0 "/></g></g></g><g fill="#289db9" fill-opacity="1"><g transform="translate(152.81471, 239.151833)"><g><path d="M 0.78125 0 L 2.703125 -9.0625 L 0.9375 -9.0625 L 1.25 -10.5 L 3 -10.5 L 3.265625 -11.625 C 3.429688 -12.34375 3.601562 -12.921875 3.78125 -13.359375 C 3.96875 -13.796875 4.1875 -14.125 4.4375 -14.34375 C 4.695312 -14.570312 5.015625 -14.722656 5.390625 -14.796875 C 5.773438 -14.878906 6.257812 -14.929688 6.84375 -14.953125 L 7.921875 -14.953125 L 7.59375 -13.4375 L 7.09375 -13.4375 C 6.75 -13.4375 6.453125 -13.410156 6.203125 -13.359375 C 5.953125 -13.304688 5.738281 -13.171875 5.5625 -12.953125 C 5.394531 -12.742188 5.253906 -12.398438 5.140625 -11.921875 L 4.828125 -10.5 L 6.984375 -10.5 L 6.671875 -9.0625 L 4.53125 -9.0625 L 2.609375 0 Z M 0.78125 0 "/></g></g></g><g fill="#289db9" fill-opacity="1"><g transform="translate(159.589061, 239.151833)"><g><path d="M 4.84375 -12.515625 C 4.488281 -12.515625 4.179688 -12.644531 3.921875 -12.90625 C 3.660156 -13.164062 3.53125 -13.472656 3.53125 -13.828125 C 3.53125 -14.191406 3.660156 -14.503906 3.921875 -14.765625 C 4.179688 -15.023438 4.488281 -15.15625 4.84375 -15.15625 C 5.21875 -15.15625 5.535156 -15.023438 5.796875 -14.765625 C 6.054688 -14.503906 6.1875 -14.191406 6.1875 -13.828125 C 6.1875 -13.472656 6.054688 -13.164062 5.796875 -12.90625 C 5.535156 -12.644531 5.21875 -12.515625 4.84375 -12.515625 Z M 0.96875 0 L 2.90625 -9.0625 L 1.203125 -9.0625 L 1.5 -10.5 L 5.015625 -10.5 L 2.796875 0 Z M 0.96875 0 "/></g></g></g><g fill="#289db9" fill-opacity="1"><g transform="translate(165.304917, 239.151833)"><g><path d="M 0.171875 0 L 2.390625 -10.5 L 3.75 -10.5 L 3.875 -9.046875 C 4.226562 -9.492188 4.691406 -9.875 5.265625 -10.1875 C 5.835938 -10.507812 6.59375 -10.671875 7.53125 -10.671875 C 8.425781 -10.671875 9.125 -10.429688 9.625 -9.953125 C 10.125 -9.472656 10.375 -8.734375 10.375 -7.734375 C 10.375 -7.253906 10.3125 -6.703125 10.1875 -6.078125 L 8.875 0 L 7.078125 0 L 8.328125 -5.90625 C 8.453125 -6.53125 8.515625 -7.039062 8.515625 -7.4375 C 8.515625 -8.050781 8.375 -8.484375 8.09375 -8.734375 C 7.8125 -8.984375 7.363281 -9.109375 6.75 -9.109375 C 6.238281 -9.109375 5.742188 -8.992188 5.265625 -8.765625 C 4.785156 -8.535156 4.359375 -8.148438 3.984375 -7.609375 C 3.617188 -7.078125 3.335938 -6.351562 3.140625 -5.4375 L 1.984375 0 Z M 0.171875 0 "/></g></g></g><g fill="#289db9" fill-opacity="1"><g transform="translate(176.948334, 239.151833)"><g><path d="M 3.8125 4.015625 C 2.925781 4.015625 2.117188 3.800781 1.390625 3.375 C 0.660156 2.957031 0.171875 2.382812 -0.078125 1.65625 L 1.828125 1.125 C 1.890625 1.457031 2.097656 1.765625 2.453125 2.046875 C 2.804688 2.335938 3.300781 2.484375 3.9375 2.484375 C 4.6875 2.484375 5.28125 2.347656 5.71875 2.078125 C 6.15625 1.816406 6.484375 1.460938 6.703125 1.015625 C 6.929688 0.566406 7.109375 0.0664062 7.234375 -0.484375 L 7.515625 -1.6875 C 7.160156 -1.238281 6.726562 -0.898438 6.21875 -0.671875 C 5.71875 -0.453125 5.191406 -0.34375 4.640625 -0.34375 C 3.984375 -0.34375 3.351562 -0.5 2.75 -0.8125 C 2.144531 -1.132812 1.644531 -1.617188 1.25 -2.265625 C 0.863281 -2.910156 0.671875 -3.722656 0.671875 -4.703125 C 0.671875 -5.785156 0.875 -6.78125 1.28125 -7.6875 C 1.6875 -8.601562 2.257812 -9.335938 3 -9.890625 C 3.738281 -10.441406 4.613281 -10.71875 5.625 -10.71875 C 6.375 -10.71875 7.054688 -10.550781 7.671875 -10.21875 C 8.296875 -9.882812 8.742188 -9.425781 9.015625 -8.84375 L 9.859375 -10.5 L 11.171875 -10.5 C 10.835938 -8.914062 10.503906 -7.332031 10.171875 -5.75 C 9.835938 -4.175781 9.503906 -2.59375 9.171875 -1 C 9.097656 -0.6875 9.007812 -0.3125 8.90625 0.125 C 8.8125 0.5625 8.660156 1.003906 8.453125 1.453125 C 8.253906 1.910156 7.96875 2.332031 7.59375 2.71875 C 7.21875 3.101562 6.722656 3.414062 6.109375 3.65625 C 5.492188 3.894531 4.726562 4.015625 3.8125 4.015625 Z M 5.25 -1.890625 C 5.914062 -1.890625 6.488281 -2.109375 6.96875 -2.546875 C 7.445312 -2.992188 7.816406 -3.550781 8.078125 -4.21875 C 8.335938 -4.894531 8.46875 -5.578125 8.46875 -6.265625 C 8.46875 -7.210938 8.207031 -7.925781 7.6875 -8.40625 C 7.164062 -8.894531 6.550781 -9.140625 5.84375 -9.140625 C 5.125 -9.140625 4.519531 -8.925781 4.03125 -8.5 C 3.539062 -8.082031 3.171875 -7.539062 2.921875 -6.875 C 2.679688 -6.21875 2.5625 -5.519531 2.5625 -4.78125 C 2.5625 -3.882812 2.804688 -3.175781 3.296875 -2.65625 C 3.796875 -2.144531 4.445312 -1.890625 5.25 -1.890625 Z M 5.25 -1.890625 "/></g></g></g><g fill="#289db9" fill-opacity="1"><g transform="translate(188.697603, 239.151833)"><g/></g></g><g fill="#289db9" fill-opacity="1"><g transform="translate(194.625164, 239.151833)"><g><path d="M 4.703125 0.25 C 3.390625 0.25 2.367188 -0.132812 1.640625 -0.90625 C 0.910156 -1.6875 0.546875 -2.738281 0.546875 -4.0625 C 0.546875 -5.257812 0.78125 -6.351562 1.25 -7.34375 C 1.726562 -8.34375 2.398438 -9.144531 3.265625 -9.75 C 4.140625 -10.363281 5.15625 -10.671875 6.3125 -10.671875 C 7.269531 -10.671875 8.070312 -10.46875 8.71875 -10.0625 C 9.375 -9.664062 9.875 -9.085938 10.21875 -8.328125 L 8.46875 -7.703125 C 8.320312 -8.128906 8.046875 -8.46875 7.640625 -8.71875 C 7.234375 -8.976562 6.757812 -9.109375 6.21875 -9.109375 C 5.414062 -9.109375 4.738281 -8.875 4.1875 -8.40625 C 3.632812 -7.9375 3.210938 -7.328125 2.921875 -6.578125 C 2.640625 -5.835938 2.5 -5.035156 2.5 -4.171875 C 2.5 -3.367188 2.691406 -2.691406 3.078125 -2.140625 C 3.460938 -1.585938 4.140625 -1.3125 5.109375 -1.3125 C 5.679688 -1.3125 6.179688 -1.429688 6.609375 -1.671875 C 7.046875 -1.921875 7.421875 -2.257812 7.734375 -2.6875 L 9.234375 -2.09375 C 8.753906 -1.320312 8.113281 -0.738281 7.3125 -0.34375 C 6.519531 0.0507812 5.648438 0.25 4.703125 0.25 Z M 4.703125 0.25 "/></g></g></g><g fill="#289db9" fill-opacity="1"><g transform="translate(205.104233, 239.151833)"><g><path d="M 2.671875 0 C 1.847656 0 1.289062 -0.113281 1 -0.34375 C 0.71875 -0.582031 0.578125 -0.941406 0.578125 -1.421875 C 0.578125 -1.796875 0.625 -2.203125 0.71875 -2.640625 L 3.15625 -14.140625 L 4.96875 -14.140625 L 2.609375 -2.96875 C 2.578125 -2.8125 2.550781 -2.664062 2.53125 -2.53125 C 2.507812 -2.40625 2.5 -2.296875 2.5 -2.203125 C 2.5 -1.992188 2.5625 -1.835938 2.6875 -1.734375 C 2.8125 -1.640625 3.050781 -1.59375 3.40625 -1.59375 L 4.1875 -1.59375 L 3.859375 0 Z M 2.671875 0 "/></g></g></g><g fill="#289db9" fill-opacity="1"><g transform="translate(210.587218, 239.151833)"><g><path d="M 3.65625 0.234375 C 2.625 0.234375 1.894531 -0.046875 1.46875 -0.609375 C 1.050781 -1.171875 0.84375 -1.867188 0.84375 -2.703125 C 0.84375 -3.210938 0.90625 -3.742188 1.03125 -4.296875 L 2.34375 -10.5 L 4.171875 -10.5 L 2.859375 -4.34375 C 2.804688 -4.082031 2.757812 -3.828125 2.71875 -3.578125 C 2.6875 -3.335938 2.671875 -3.113281 2.671875 -2.90625 C 2.671875 -2.4375 2.785156 -2.050781 3.015625 -1.75 C 3.242188 -1.457031 3.671875 -1.3125 4.296875 -1.3125 C 5.128906 -1.3125 5.863281 -1.597656 6.5 -2.171875 C 7.132812 -2.742188 7.59375 -3.6875 7.875 -5 L 9.0625 -10.5 L 10.859375 -10.5 L 8.640625 0 L 7.265625 0 L 7.140625 -1.484375 C 6.679688 -0.890625 6.1875 -0.453125 5.65625 -0.171875 C 5.132812 0.0976562 4.46875 0.234375 3.65625 0.234375 Z M 3.65625 0.234375 "/></g></g></g><g fill="#289db9" fill-opacity="1"><g transform="translate(222.01893, 239.151833)"><g><path d="M 5.625 0.25 C 4.84375 0.25 4.1875 0.0703125 3.65625 -0.28125 C 3.125 -0.644531 2.695312 -1.128906 2.375 -1.734375 L 1.5 0 L 0.140625 0 L 3.15625 -14.140625 L 4.96875 -14.140625 L 3.890625 -9.109375 C 4.367188 -9.722656 4.867188 -10.132812 5.390625 -10.34375 C 5.921875 -10.5625 6.410156 -10.671875 6.859375 -10.671875 C 7.859375 -10.671875 8.640625 -10.453125 9.203125 -10.015625 C 9.773438 -9.578125 10.179688 -9.015625 10.421875 -8.328125 C 10.660156 -7.640625 10.78125 -6.929688 10.78125 -6.203125 C 10.78125 -5.441406 10.671875 -4.679688 10.453125 -3.921875 C 10.234375 -3.171875 9.90625 -2.476562 9.46875 -1.84375 C 9.039062 -1.207031 8.503906 -0.695312 7.859375 -0.3125 C 7.222656 0.0625 6.476562 0.25 5.625 0.25 Z M 5.4375 -1.265625 C 6.039062 -1.265625 6.554688 -1.421875 6.984375 -1.734375 C 7.421875 -2.054688 7.773438 -2.460938 8.046875 -2.953125 C 8.328125 -3.453125 8.535156 -3.984375 8.671875 -4.546875 C 8.804688 -5.117188 8.875 -5.65625 8.875 -6.15625 C 8.875 -7.03125 8.679688 -7.742188 8.296875 -8.296875 C 7.921875 -8.859375 7.320312 -9.140625 6.5 -9.140625 C 5.914062 -9.140625 5.398438 -8.992188 4.953125 -8.703125 C 4.515625 -8.421875 4.144531 -8.046875 3.84375 -7.578125 C 3.539062 -7.109375 3.3125 -6.597656 3.15625 -6.046875 C 3 -5.503906 2.921875 -4.976562 2.921875 -4.46875 C 2.921875 -3.914062 3.007812 -3.394531 3.1875 -2.90625 C 3.375 -2.425781 3.65625 -2.03125 4.03125 -1.71875 C 4.40625 -1.414062 4.875 -1.265625 5.4375 -1.265625 Z M 5.4375 -1.265625 "/></g></g></g></svg>