<svg xmlns="http://www.w3.org/2000/svg" xmlns:xlink="http://www.w3.org/1999/xlink" width="500" zoomAndPan="magnify" viewBox="0 0 375 374.999991" height="500" preserveAspectRatio="xMidYMid meet" version="1.0"><defs><g/><clipPath id="b15e4c4c7a"><path d="M 170 84.863281 L 193 84.863281 L 193 88 L 170 88 Z M 170 84.863281 " clip-rule="nonzero"/></clipPath><clipPath id="3a9af46d48"><path d="M 87.363281 162 L 91 162 L 91 185 L 87.363281 185 Z M 87.363281 162 " clip-rule="nonzero"/></clipPath><clipPath id="5a9047bdeb"><path d="M 87.363281 177 L 90 177 L 90 200 L 87.363281 200 Z M 87.363281 177 " clip-rule="nonzero"/></clipPath><clipPath id="75d39a07c0"><path d="M 106 235 L 121 235 L 121 246.863281 L 106 246.863281 Z M 106 235 " clip-rule="nonzero"/></clipPath><clipPath id="42d22164ae"><path d="M 285 149 L 287.613281 149 L 287.613281 161 L 285 161 Z M 285 149 " clip-rule="nonzero"/></clipPath><clipPath id="d443d60a48"><path d="M 285 149 L 287.613281 149 L 287.613281 155 L 285 155 Z M 285 149 " clip-rule="nonzero"/></clipPath></defs><path fill="#393536" d="M 146.246094 95.542969 C 146.421875 94.976562 146.679688 94.617188 147.019531 94.457031 L 151.582031 92.472656 C 155.863281 90.929688 161.632812 89.011719 166.015625 87.78125 L 168.171875 87.285156 C 167.808594 87.425781 167.53125 87.789062 167.351562 88.378906 C 164.066406 89.515625 159.695312 91.078125 156.492188 92.429688 C 153.394531 93.285156 149.273438 94.460938 146.246094 95.542969 " fill-opacity="1" fill-rule="nonzero"/><path fill="#393536" d="M 124.886719 108.832031 C 125.015625 108.410156 125.195312 108.109375 125.421875 107.921875 L 125.5 107.863281 C 134.121094 101.433594 134.285156 101.308594 139.132812 98.53125 L 143.917969 95.960938 C 143.589844 96.125 143.34375 96.480469 143.175781 97.027344 C 140.207031 98.914062 136.269531 101.464844 133.433594 103.542969 C 130.828125 105.0625 127.367188 107.121094 124.886719 108.832031 " fill-opacity="1" fill-rule="nonzero"/><path fill="#393536" d="M 283.800781 144.386719 L 283.890625 144.445312 L 285.886719 149.253906 L 283.800781 144.386719 " fill-opacity="1" fill-rule="nonzero"/><path fill="#393536" d="M 277.308594 133.085938 C 277.339844 132.980469 277.390625 132.914062 277.457031 132.890625 C 279.152344 135.753906 281.390625 139.59375 282.914062 142.550781 L 285.886719 149.253906 L 282.796875 142.710938 C 281.199219 139.796875 279.042969 135.921875 277.308594 133.085938 " fill-opacity="1" fill-rule="nonzero"/><path fill="#393536" d="M 261.375 114.089844 C 261.453125 113.847656 261.566406 113.695312 261.714844 113.636719 C 264.023438 115.929688 267.078125 119.011719 269.25 121.433594 C 271.203125 123.996094 273.789062 127.429688 275.617188 130.085938 C 275.539062 130.117188 275.480469 130.191406 275.441406 130.316406 C 273.484375 127.816406 270.847656 124.496094 268.734375 122.125 C 266.566406 119.679688 263.652344 116.433594 261.375 114.089844 " fill-opacity="1" fill-rule="nonzero"/><path fill="#393536" d="M 241.742188 99.640625 C 241.855469 99.277344 242.023438 99.050781 242.25 98.964844 C 245.03125 100.632812 248.730469 102.886719 251.410156 104.714844 C 253.820312 106.679688 257.019531 109.328125 259.324219 111.417969 C 259.164062 111.480469 259.039062 111.640625 258.960938 111.898438 C 256.476562 110.039062 253.140625 107.578125 250.539062 105.882812 C 247.929688 103.96875 244.4375 101.429688 241.742188 99.640625 " fill-opacity="1" fill-rule="nonzero"/><path fill="#393536" d="M 219.40625 90.152344 C 219.550781 89.6875 219.765625 89.398438 220.054688 89.289062 C 223.175781 90.28125 227.332031 91.632812 230.390625 92.8125 C 233.132812 94.128906 236.777344 95.910156 239.4375 97.382812 C 239.207031 97.472656 239.027344 97.707031 238.910156 98.085938 C 236.027344 96.910156 232.171875 95.371094 229.214844 94.390625 C 226.296875 93.066406 222.390625 91.320312 219.40625 90.152344 " fill-opacity="1" fill-rule="nonzero"/><path fill="#393536" d="M 195.371094 86.03125 C 195.535156 85.492188 195.789062 85.160156 196.121094 85.03125 C 199.359375 85.289062 203.679688 85.648438 206.890625 86.097656 L 207.335938 86.171875 C 210.234375 86.777344 214.101562 87.613281 216.957031 88.402344 C 216.660156 88.515625 216.441406 88.808594 216.292969 89.285156 C 213.144531 88.839844 208.9375 88.277344 205.761719 88.046875 C 202.660156 87.378906 198.507812 86.515625 195.371094 86.03125 " fill-opacity="1" fill-rule="nonzero"/><g clip-path="url(#b15e4c4c7a)"><path fill="#393536" d="M 170.632812 87.699219 C 170.816406 87.113281 171.089844 86.753906 171.449219 86.613281 L 175.710938 85.882812 C 178.191406 85.621094 181.492188 85.175781 183.980469 85.011719 L 187.03125 84.863281 L 192.867188 84.898438 C 192.53125 85.027344 192.273438 85.363281 192.105469 85.914062 C 188.824219 86.238281 184.441406 86.710938 181.1875 87.257812 C 178.019531 87.316406 173.792969 87.425781 170.632812 87.699219 " fill-opacity="1" fill-rule="nonzero"/></g><path fill="#393536" d="M 107.925781 126.335938 C 108.007812 126.082031 108.105469 125.871094 108.222656 125.710938 C 109.871094 123.703125 112.007812 120.972656 113.738281 119.03125 C 116.417969 116.277344 120.03125 112.640625 122.875 110.058594 C 122.664062 110.242188 122.496094 110.535156 122.375 110.933594 C 119.964844 113.382812 116.78125 116.675781 114.527344 119.265625 C 112.492188 121.335938 109.800781 124.125 107.925781 126.335938 " fill-opacity="1" fill-rule="nonzero"/><path fill="#393536" d="M 283.703125 144.710938 C 283.695312 144.640625 283.691406 144.578125 283.695312 144.53125 L 285.886719 149.253906 L 283.703125 144.710938 " fill-opacity="1" fill-rule="nonzero"/><path fill="#393536" d="M 270.039062 124.820312 C 269.992188 124.40625 269.976562 124.0625 269.988281 123.785156 C 272.003906 126.214844 274.671875 129.484375 276.53125 132.039062 C 278.265625 134.863281 280.554688 138.644531 282.15625 141.542969 C 282.152344 141.625 282.15625 141.726562 282.167969 141.84375 C 280.558594 139.269531 278.386719 135.847656 276.601562 133.390625 C 274.671875 130.789062 271.289062 127.804688 270.039062 124.820312 " fill-opacity="1" fill-rule="nonzero"/><path fill="#393536" d="M 252.160156 109.140625 C 252.078125 108.417969 252.050781 107.816406 252.070312 107.335938 C 254.59375 109.09375 257.945312 111.46875 260.347656 113.394531 C 262.628906 115.742188 265.652344 118.894531 267.828125 121.34375 C 267.816406 121.652344 267.835938 122.03125 267.886719 122.488281 C 265.71875 120.59375 262.804688 118.085938 260.5 116.363281 C 258.027344 114.160156 253.742188 112.046875 252.160156 109.140625 " fill-opacity="1" fill-rule="nonzero"/><path fill="#393536" d="M 231.070312 98.039062 C 230.957031 97.054688 230.917969 96.234375 230.945312 95.578125 C 233.839844 96.625 237.695312 98.058594 240.515625 99.300781 C 243.21875 101.117188 246.8125 103.558594 249.429688 105.492188 C 249.40625 106 249.4375 106.632812 249.523438 107.394531 C 246.921875 106.210938 243.429688 104.664062 240.742188 103.691406 C 237.867188 101.957031 234.015625 99.660156 231.070312 98.039062 " fill-opacity="1" fill-rule="nonzero"/><path fill="#393536" d="M 207.769531 91.902344 C 207.632812 90.707031 207.585938 89.710938 207.617188 88.914062 C 210.753906 89.21875 214.933594 89.65625 218.042969 90.175781 C 221.039062 91.386719 225.023438 93.03125 227.953125 94.390625 C 227.925781 95.070312 227.96875 95.917969 228.082031 96.933594 C 225.167969 96.496094 221.269531 95.949219 218.332031 95.738281 C 215.179688 94.539062 210.96875 92.960938 207.769531 91.902344 " fill-opacity="1" fill-rule="nonzero"/><path fill="#393536" d="M 183.261719 91.09375 C 183.109375 89.753906 183.050781 88.640625 183.089844 87.742188 C 186.332031 87.269531 190.660156 86.671875 193.929688 86.421875 C 197.085938 86.960938 201.289062 87.714844 204.410156 88.433594 C 204.375 89.25 204.425781 90.261719 204.566406 91.480469 C 201.464844 91.8125 197.328125 92.296875 194.261719 92.859375 C 190.96875 92.269531 186.578125 91.507812 183.261719 91.09375 " fill-opacity="1" fill-rule="nonzero"/><path fill="#393536" d="M 158.542969 95.992188 C 158.382812 94.582031 158.324219 93.410156 158.359375 92.46875 C 161.574219 91.1875 165.878906 89.511719 169.175781 88.449219 C 172.355469 88.25 176.605469 88.015625 179.796875 88.023438 C 179.757812 88.925781 179.816406 90.054688 179.96875 91.40625 C 176.808594 92.53125 172.609375 94.070312 169.535156 95.402344 C 166.230469 95.503906 161.828125 95.675781 158.542969 95.992188 " fill-opacity="1" fill-rule="nonzero"/><path fill="#393536" d="M 135.230469 106.636719 C 135.070312 105.242188 135.011719 104.082031 135.054688 103.148438 C 137.949219 101.128906 141.839844 98.460938 144.863281 96.632812 C 147.914062 95.632812 152 94.332031 155.121094 93.558594 C 155.078125 94.503906 155.136719 95.679688 155.296875 97.089844 C 152.234375 99.003906 148.164062 101.589844 145.226562 103.695312 C 142.207031 104.503906 138.183594 105.613281 135.230469 106.636719 " fill-opacity="1" fill-rule="nonzero"/><path fill="#393536" d="M 115.96875 121.742188 C 115.820312 120.445312 115.769531 119.367188 115.804688 118.5 C 118.128906 115.949219 121.257812 112.5625 123.734375 110.15625 C 126.246094 108.523438 129.617188 106.375 132.246094 104.941406 C 132.210938 105.867188 132.265625 107.019531 132.421875 108.40625 C 129.871094 110.90625 126.488281 114.261719 124.082031 116.902344 C 121.605469 118.285156 118.324219 120.164062 115.96875 121.742188 " fill-opacity="1" fill-rule="nonzero"/><path fill="#393536" d="M 101.316406 140.316406 C 101.1875 139.1875 101.144531 138.25 101.175781 137.496094 C 102.875 134.558594 105.171875 130.652344 107.039062 127.8125 C 108.945312 125.667969 111.519531 122.828125 113.589844 120.835938 C 113.554688 121.6875 113.605469 122.75 113.75 124.03125 C 111.777344 126.945312 109.171875 130.851562 107.351562 133.863281 C 105.484375 135.742188 103.015625 138.28125 101.316406 140.316406 " fill-opacity="1" fill-rule="nonzero"/><path fill="#393536" d="M 91.683594 161.402344 C 91.582031 160.503906 91.546875 159.757812 91.570312 159.160156 C 92.597656 155.976562 93.992188 151.738281 95.1875 148.617188 C 96.449219 146.070312 98.160156 142.6875 99.601562 140.238281 C 99.570312 140.972656 99.617188 141.890625 99.742188 142.988281 C 98.398438 146.164062 96.636719 150.410156 95.445312 153.644531 C 94.25 155.9375 92.6875 159.019531 91.683594 161.402344 " fill-opacity="1" fill-rule="nonzero"/><g clip-path="url(#3a9af46d48)"><path fill="#393536" d="M 87.480469 184.058594 C 87.414062 183.441406 87.386719 182.929688 87.402344 182.515625 L 87.46875 181.441406 L 87.902344 176.539062 L 88.796875 170.339844 C 89.332031 167.886719 90.023438 164.601562 90.695312 162.183594 C 90.671875 162.757812 90.710938 163.476562 90.804688 164.339844 C 90.144531 167.621094 89.285156 172.003906 88.777344 175.3125 C 88.320312 177.925781 87.746094 181.417969 87.480469 184.058594 " fill-opacity="1" fill-rule="nonzero"/></g><path fill="#393536" d="M 277.605469 135.691406 C 277.59375 135.636719 277.582031 135.582031 277.566406 135.53125 C 277.492188 135.199219 277.433594 134.898438 277.382812 134.628906 C 279.074219 137.121094 281.300781 140.472656 282.816406 143.074219 L 285.886719 149.253906 L 282.992188 143.925781 C 281.417969 141.429688 278.804688 138.390625 277.605469 135.691406 " fill-opacity="1" fill-rule="nonzero"/><path fill="#393536" d="M 262.058594 120.078125 C 262.03125 119.949219 262.003906 119.824219 261.972656 119.703125 C 261.800781 118.941406 261.660156 118.25 261.554688 117.632812 C 263.78125 119.402344 266.726562 121.796875 268.8125 123.730469 C 270.867188 126.222656 273.585938 129.5625 275.535156 132.140625 C 275.589844 132.457031 275.660156 132.808594 275.75 133.199219 C 275.761719 133.265625 275.777344 133.328125 275.792969 133.394531 C 273.984375 131.550781 271.546875 129.113281 269.582031 127.4375 C 267.351562 125.203125 263.636719 122.808594 262.058594 120.078125 " fill-opacity="1" fill-rule="nonzero"/><path fill="#393536" d="M 242.765625 108.605469 C 242.722656 108.417969 242.679688 108.230469 242.636719 108.042969 C 242.378906 106.902344 242.167969 105.871094 242.007812 104.945312 C 244.636719 105.96875 248.132812 107.375 250.671875 108.605469 C 253.242188 110.695312 256.660156 113.503906 259.148438 115.695312 C 259.265625 116.355469 259.417969 117.09375 259.601562 117.910156 C 259.632812 118.039062 259.660156 118.175781 259.691406 118.308594 C 257.414062 117.207031 254.351562 115.765625 251.972656 114.878906 C 249.230469 112.96875 244.683594 111.34375 242.765625 108.605469 " fill-opacity="1" fill-rule="nonzero"/><path fill="#393536" d="M 220.710938 101.582031 C 220.65625 101.339844 220.601562 101.101562 220.546875 100.867188 C 220.21875 99.410156 219.949219 98.09375 219.742188 96.917969 C 222.644531 97.179688 226.519531 97.566406 229.394531 98.0625 C 232.355469 99.683594 236.289062 101.871094 239.1875 103.605469 C 239.355469 104.566406 239.574219 105.640625 239.84375 106.828125 C 239.886719 107.019531 239.929688 107.214844 239.976562 107.410156 C 237.339844 107.066406 233.8125 106.640625 231.152344 106.527344 C 228.035156 105.007812 223.871094 103.003906 220.710938 101.582031 " fill-opacity="1" fill-rule="nonzero"/><path fill="#393536" d="M 196.886719 99.308594 C 196.820312 99.027344 196.757812 98.753906 196.695312 98.476562 C 196.3125 96.785156 196.003906 95.257812 195.761719 93.890625 C 198.816406 93.382812 202.894531 92.742188 205.976562 92.464844 C 209.191406 93.542969 213.472656 95.003906 216.636719 96.21875 C 216.851562 97.425781 217.125 98.773438 217.460938 100.265625 C 217.515625 100.507812 217.574219 100.753906 217.632812 101 C 214.757812 101.421875 210.929688 102.019531 208.09375 102.65625 C 204.746094 101.613281 200.273438 100.234375 196.886719 99.308594 " fill-opacity="1" fill-rule="nonzero"/><path fill="#393536" d="M 172.28125 102.089844 C 172.207031 101.789062 172.140625 101.488281 172.070312 101.191406 C 171.65625 99.355469 171.320312 97.699219 171.058594 96.21875 C 174.140625 94.9375 178.265625 93.257812 181.429688 92.1875 C 184.757812 92.636719 189.199219 93.265625 192.503906 93.886719 C 192.746094 95.273438 193.0625 96.820312 193.453125 98.539062 C 193.515625 98.816406 193.578125 99.097656 193.644531 99.378906 C 190.660156 100.566406 186.691406 102.179688 183.789062 103.550781 C 180.34375 103.0625 175.742188 102.429688 172.28125 102.089844 " fill-opacity="1" fill-rule="nonzero"/><path fill="#393536" d="M 147.921875 110.210938 C 147.851562 109.902344 147.78125 109.59375 147.710938 109.289062 C 147.289062 107.421875 146.945312 105.734375 146.679688 104.222656 C 149.65625 102.167969 153.644531 99.457031 156.742188 97.589844 C 160.046875 97.324219 164.464844 97.003906 167.777344 96.949219 C 168.039062 98.4375 168.378906 100.105469 168.796875 101.949219 C 168.863281 102.25 168.933594 102.550781 169.007812 102.859375 C 166.03125 104.789062 162.082031 107.398438 159.214844 109.484375 C 155.824219 109.640625 151.300781 109.875 147.921875 110.210938 " fill-opacity="1" fill-rule="nonzero"/><path fill="#393536" d="M 126.492188 122.894531 C 126.421875 122.597656 126.355469 122.304688 126.289062 122.015625 C 125.882812 120.222656 125.554688 118.601562 125.300781 117.15625 C 127.761719 114.546875 131.070312 111.085938 133.679688 108.621094 C 136.632812 107.667969 140.589844 106.433594 143.605469 105.691406 C 143.871094 107.199219 144.214844 108.882812 144.636719 110.75 C 144.703125 111.050781 144.773438 111.355469 144.847656 111.664062 C 142.179688 114.21875 138.644531 117.648438 136.109375 120.332031 C 133.207031 121.035156 129.339844 122 126.492188 122.894531 " fill-opacity="1" fill-rule="nonzero"/><path fill="#393536" d="M 109.371094 138.992188 C 109.308594 138.726562 109.25 138.460938 109.191406 138.199219 C 108.824219 136.585938 108.53125 135.132812 108.300781 133.828125 C 110.183594 130.835938 112.722656 126.859375 114.753906 123.964844 C 117.121094 122.457031 120.304688 120.480469 122.78125 119.171875 C 123.035156 120.605469 123.359375 122.207031 123.761719 123.980469 C 123.824219 124.269531 123.894531 124.558594 123.964844 124.851562 C 121.832031 127.808594 119.011719 131.761719 117.007812 134.804688 C 114.683594 135.996094 111.589844 137.613281 109.371094 138.992188 " fill-opacity="1" fill-rule="nonzero"/><path fill="#393536" d="M 96.992188 157.632812 C 96.9375 157.410156 96.886719 157.1875 96.839844 156.96875 C 96.535156 155.625 96.285156 154.410156 96.097656 153.320312 C 97.355469 150.097656 99.058594 145.808594 100.46875 142.648438 C 102.1875 140.683594 104.511719 138.082031 106.394531 136.273438 C 106.621094 137.550781 106.910156 138.980469 107.269531 140.5625 C 107.328125 140.820312 107.386719 141.078125 107.445312 141.339844 C 105.894531 144.523438 103.84375 148.777344 102.417969 152.023438 C 100.730469 153.648438 98.507812 155.847656 96.992188 157.632812 " fill-opacity="1" fill-rule="nonzero"/><path fill="#393536" d="M 89.769531 177.929688 C 89.730469 177.761719 89.691406 177.597656 89.65625 177.433594 C 89.429688 176.429688 89.242188 175.519531 89.101562 174.707031 C 89.683594 171.40625 90.488281 167.003906 91.226562 163.734375 C 92.25 161.402344 93.640625 158.304688 94.859375 156.070312 C 95.042969 157.125 95.285156 158.304688 95.578125 159.609375 C 95.625 159.820312 95.675781 160.03125 95.726562 160.25 C 94.792969 163.5 93.570312 167.84375 92.765625 171.132812 C 91.796875 173.136719 90.53125 175.835938 89.769531 177.929688 " fill-opacity="1" fill-rule="nonzero"/><g clip-path="url(#5a9047bdeb)"><path fill="#393536" d="M 88.128906 199.003906 C 88.105469 198.90625 88.082031 198.804688 88.058594 198.707031 C 87.921875 198.101562 87.8125 197.554688 87.726562 197.066406 C 87.582031 193.835938 87.421875 189.519531 87.445312 186.28125 C 87.71875 183.679688 88.113281 180.210938 88.585938 177.640625 C 88.722656 178.410156 88.894531 179.273438 89.113281 180.230469 C 89.148438 180.382812 89.183594 180.539062 89.222656 180.699219 C 88.949219 183.871094 88.609375 188.101562 88.480469 191.28125 C 88.304688 193.59375 88.105469 196.683594 88.128906 199.003906 " fill-opacity="1" fill-rule="nonzero"/></g><path fill="#393536" d="M 283.976562 145.875 C 283.933594 145.734375 283.894531 145.597656 283.863281 145.46875 L 285.886719 149.253906 L 283.976562 145.875 " fill-opacity="1" fill-rule="nonzero"/><path fill="#393536" d="M 271.589844 131.449219 C 271.347656 130.632812 271.128906 129.859375 270.9375 129.132812 C 272.800781 130.855469 275.253906 133.191406 276.953125 135.070312 C 278.632812 137.449219 280.863281 140.636719 282.429688 143.089844 C 282.484375 143.300781 282.546875 143.523438 282.617188 143.757812 C 281.230469 142.007812 279.355469 139.683594 277.796875 138.082031 C 275.960938 136.066406 272.96875 133.796875 271.589844 131.449219 " fill-opacity="1" fill-rule="nonzero"/><path fill="#393536" d="M 254.863281 120.695312 C 254.441406 119.273438 254.066406 117.925781 253.730469 116.65625 C 256.027344 117.601562 259.078125 118.90625 261.273438 120.066406 C 263.582031 122.195312 266.648438 125.042969 268.878906 127.25 C 269.09375 128.050781 269.332031 128.90625 269.597656 129.804688 C 267.695312 128.796875 265.132812 127.476562 263.125 126.691406 C 260.664062 124.871094 256.648438 123.183594 254.863281 120.695312 " fill-opacity="1" fill-rule="nonzero"/><path fill="#393536" d="M 234.757812 113.824219 C 234.183594 111.882812 233.667969 110.039062 233.210938 108.308594 C 235.820312 108.488281 239.304688 108.761719 241.886719 109.175781 C 244.691406 110.984375 248.425781 113.414062 251.175781 115.304688 C 251.527344 116.640625 251.925781 118.058594 252.367188 119.554688 C 250.050781 119.300781 246.957031 118.996094 244.628906 118.972656 C 241.679688 117.40625 237.742188 115.328125 234.757812 113.824219 " fill-opacity="1" fill-rule="nonzero"/><path fill="#393536" d="M 212.242188 111.039062 C 211.546875 108.6875 210.921875 106.449219 210.367188 104.351562 C 213.175781 103.777344 216.933594 103.042969 219.777344 102.683594 C 222.949219 104.105469 227.167969 106.011719 230.296875 107.527344 C 230.765625 109.3125 231.296875 111.210938 231.886719 113.214844 C 229.28125 113.707031 225.8125 114.402344 223.253906 115.101562 C 219.960938 113.855469 215.5625 112.207031 212.242188 111.039062 " fill-opacity="1" fill-rule="nonzero"/><path fill="#393536" d="M 163.8125 118.558594 C 162.996094 115.78125 162.257812 113.144531 161.605469 110.671875 C 164.488281 108.640625 168.355469 105.953125 171.34375 104.078125 C 174.820312 104.457031 179.453125 104.984375 182.910156 105.507812 C 183.539062 107.882812 184.246094 110.414062 185.035156 113.082031 C 182.195312 114.988281 178.425781 117.558594 175.6875 119.597656 C 172.128906 119.234375 167.382812 118.777344 163.8125 118.558594 " fill-opacity="1" fill-rule="nonzero"/><path fill="#393536" d="M 140.445312 128.957031 C 139.636719 126.207031 138.90625 123.601562 138.261719 121.15625 C 140.855469 118.515625 144.339844 115.015625 147.066406 112.511719 C 150.453125 112.234375 154.972656 111.898438 158.371094 111.800781 C 159.023438 114.28125 159.761719 116.921875 160.582031 119.703125 C 157.8125 122.230469 154.136719 125.625 151.476562 128.273438 C 148.164062 128.429688 143.746094 128.65625 140.445312 128.957031 " fill-opacity="1" fill-rule="nonzero"/><path fill="#393536" d="M 120.820312 142.503906 C 120.066406 139.949219 119.386719 137.523438 118.789062 135.25 C 120.859375 132.242188 123.644531 128.242188 125.839844 125.324219 C 128.699219 124.515625 132.527344 123.464844 135.4375 122.839844 C 136.078125 125.269531 136.804688 127.859375 137.609375 130.589844 C 135.304688 133.5 132.246094 137.394531 130.050781 140.386719 C 127.269531 140.960938 123.5625 141.757812 120.820312 142.503906 " fill-opacity="1" fill-rule="nonzero"/><path fill="#393536" d="M 105.535156 158.375 C 104.882812 156.148438 104.289062 154.042969 103.769531 152.0625 C 105.273438 148.847656 107.300781 144.570312 108.925781 141.414062 C 111.171875 140.128906 114.1875 138.441406 116.527344 137.34375 C 117.121094 139.585938 117.789062 141.976562 118.53125 144.496094 C 116.75 147.601562 114.386719 151.757812 112.707031 154.921875 C 110.523438 155.890625 107.625 157.214844 105.535156 158.375 " fill-opacity="1" fill-rule="nonzero"/><path fill="#393536" d="M 95.042969 175.777344 C 94.523438 174.007812 94.050781 172.332031 93.636719 170.753906 C 94.527344 167.492188 95.738281 163.144531 96.753906 159.914062 C 98.308594 158.222656 100.417969 155.984375 102.132812 154.453125 C 102.644531 156.382812 103.21875 158.441406 103.859375 160.609375 C 102.636719 163.753906 101.019531 167.953125 99.894531 171.132812 C 98.386719 172.46875 96.390625 174.277344 95.042969 175.777344 " fill-opacity="1" fill-rule="nonzero"/><path fill="#393536" d="M 89.789062 193.9375 C 89.429688 192.722656 89.109375 191.570312 88.824219 190.488281 C 89.054688 187.324219 89.382812 183.109375 89.75 179.964844 C 90.554688 177.941406 91.667969 175.253906 92.683594 173.332031 C 93.082031 174.847656 93.535156 176.460938 94.035156 178.160156 C 93.410156 181.1875 92.589844 185.226562 92.074219 188.277344 C 91.3125 189.941406 90.335938 192.191406 89.789062 193.9375 " fill-opacity="1" fill-rule="nonzero"/><path fill="#393536" d="M 90.222656 212.078125 C 90.050781 211.492188 89.898438 210.941406 89.761719 210.421875 C 89.277344 207.511719 88.660156 203.621094 88.335938 200.6875 C 88.347656 198.421875 88.390625 195.394531 88.605469 193.140625 C 88.875 194.152344 89.175781 195.230469 89.511719 196.363281 C 89.523438 199.132812 89.558594 202.828125 89.710938 205.597656 C 89.792969 207.546875 89.945312 210.148438 90.222656 212.078125 " fill-opacity="1" fill-rule="nonzero"/><path fill="#393536" d="M 90.996094 215.535156 L 90.550781 213.878906 L 90.339844 213.035156 C 90.457031 213.476562 90.585938 213.945312 90.734375 214.441406 L 91.546875 217.445312 C 91.378906 216.871094 91.152344 216.109375 90.996094 215.535156 " fill-opacity="1" fill-rule="nonzero"/><path fill="#393536" d="M 279.101562 140.800781 C 278.914062 140.226562 278.734375 139.675781 278.570312 139.148438 C 280.027344 140.773438 281.941406 142.980469 283.222656 144.75 L 285.886719 149.253906 L 283.648438 146.070312 C 282.316406 144.464844 280.164062 142.597656 279.101562 140.800781 " fill-opacity="1" fill-rule="nonzero"/><path fill="#393536" d="M 265.5 131.804688 C 265.0625 130.492188 264.65625 129.226562 264.273438 128.007812 C 266.203125 128.84375 268.769531 129.996094 270.589844 131.046875 C 272.515625 132.949219 275.078125 135.496094 276.929688 137.46875 C 277.125 138.09375 277.335938 138.742188 277.558594 139.417969 C 276.070312 138.5625 274.054688 137.449219 272.457031 136.820312 C 270.382812 135.296875 267.039062 133.867188 265.5 131.804688 " fill-opacity="1" fill-rule="nonzero"/><path fill="#393536" d="M 247.917969 126.164062 C 247.261719 124.199219 246.648438 122.300781 246.082031 120.480469 C 248.367188 120.550781 251.417969 120.683594 253.683594 120.992188 C 256.210938 122.710938 259.578125 125.015625 262.0625 126.800781 C 262.46875 128.097656 262.90625 129.457031 263.375 130.859375 C 261.417969 130.75 258.796875 130.644531 256.84375 130.769531 C 254.171875 129.375 249.886719 128.441406 247.917969 126.164062 " fill-opacity="1" fill-rule="nonzero"/><path fill="#393536" d="M 227.277344 123.964844 C 226.445312 121.460938 225.664062 119.042969 224.9375 116.722656 C 227.476562 116.066406 230.875 115.21875 233.457031 114.773438 C 236.457031 116.25 240.453125 118.226562 243.425781 119.761719 C 244.015625 121.652344 244.652344 123.628906 245.332031 125.667969 C 243.027344 126.289062 239.960938 127.160156 237.71875 127.96875 C 234.59375 126.753906 230.421875 125.140625 227.277344 123.964844 " fill-opacity="1" fill-rule="nonzero"/><path fill="#393536" d="M 204.511719 125.304688 C 203.546875 122.398438 202.636719 119.585938 201.796875 116.894531 C 204.488281 115.542969 208.097656 113.765625 210.871094 112.589844 C 214.207031 113.738281 218.652344 115.289062 221.960938 116.515625 C 222.703125 118.894531 223.507812 121.371094 224.359375 123.9375 C 221.824219 125.246094 218.457031 127.019531 216 128.476562 C 212.5625 127.503906 207.96875 126.21875 204.511719 125.304688 " fill-opacity="1" fill-rule="nonzero"/><path fill="#393536" d="M 180.546875 130.273438 C 179.496094 127.121094 178.511719 124.074219 177.601562 121.152344 C 180.351562 119.148438 184.039062 116.492188 186.882812 114.625 C 190.414062 115.367188 195.117188 116.378906 198.625 117.21875 C 199.480469 119.953125 200.398438 122.804688 201.382812 125.753906 C 198.71875 127.691406 195.183594 130.292969 192.605469 132.34375 C 188.992188 131.691406 184.171875 130.835938 180.546875 130.273438 " fill-opacity="1" fill-rule="nonzero"/><path fill="#393536" d="M 156.351562 138.933594 C 155.28125 135.722656 154.277344 132.617188 153.347656 129.640625 C 156.042969 127.035156 159.652344 123.574219 162.453125 121.074219 C 166.027344 121.316406 170.792969 121.660156 174.359375 122.035156 C 175.277344 124.972656 176.269531 128.039062 177.324219 131.210938 C 174.628906 133.703125 171.054688 137.042969 168.441406 139.621094 C 164.816406 139.378906 159.980469 139.070312 156.351562 138.933594 " fill-opacity="1" fill-rule="nonzero"/><path fill="#393536" d="M 116.644531 163.777344 C 115.71875 161.003906 114.855469 158.324219 114.054688 155.757812 C 115.789062 152.621094 118.125 148.445312 119.960938 145.363281 C 122.691406 144.683594 126.34375 143.804688 129.109375 143.289062 C 129.992188 146.113281 130.941406 149.058594 131.957031 152.105469 C 129.96875 155.136719 127.328125 159.183594 125.414062 162.261719 C 122.773438 162.664062 119.253906 163.222656 116.644531 163.777344 " fill-opacity="1" fill-rule="nonzero"/><path fill="#393536" d="M 103.058594 178.316406 C 102.289062 176.003906 101.566406 173.765625 100.894531 171.621094 C 102.082031 168.46875 103.683594 164.269531 104.96875 161.152344 C 107.058594 160.078125 109.863281 158.679688 112.039062 157.785156 C 112.824219 160.304688 113.671875 162.933594 114.578125 165.652344 C 113.085938 168.671875 111.105469 172.707031 109.6875 175.761719 C 107.675781 176.46875 105 177.433594 103.058594 178.316406 " fill-opacity="1" fill-rule="nonzero"/><path fill="#393536" d="M 94.300781 193.378906 C 93.726562 191.648438 93.1875 189.980469 92.6875 188.378906 C 93.277344 185.359375 94.085938 181.335938 94.777344 178.335938 C 96.140625 176.921875 97.992188 175.058594 99.511719 173.808594 C 100.160156 175.886719 100.859375 178.054688 101.609375 180.296875 C 100.652344 183.160156 99.382812 186.980469 98.5 189.867188 C 97.191406 190.859375 95.457031 192.214844 94.300781 193.378906 " fill-opacity="1" fill-rule="nonzero"/><path fill="#393536" d="M 90.855469 208.300781 C 90.511719 207.261719 90.183594 206.253906 89.886719 205.292969 C 89.824219 202.550781 89.773438 198.894531 89.84375 196.152344 C 90.414062 194.46875 91.203125 192.222656 91.992188 190.628906 C 92.46875 192.152344 92.980469 193.738281 93.527344 195.378906 C 93.148438 197.945312 92.644531 201.367188 92.359375 203.945312 C 91.828125 205.222656 91.160156 206.953125 90.855469 208.300781 " fill-opacity="1" fill-rule="nonzero"/><path fill="#393536" d="M 92.605469 220.792969 C 92.398438 220.167969 92.128906 219.332031 91.925781 218.703125 L 91.765625 218.175781 L 90.617188 213.828125 C 90.347656 211.941406 90.007812 209.417969 89.945312 207.511719 C 90.21875 208.382812 90.511719 209.292969 90.824219 210.234375 C 91.058594 212.382812 91.382812 215.246094 91.761719 217.371094 C 92.007812 218.398438 92.273438 219.789062 92.605469 220.792969 " fill-opacity="1" fill-rule="nonzero"/><path fill="#393536" d="M 284.546875 147.59375 C 284.480469 147.410156 284.417969 147.234375 284.359375 147.058594 L 285.886719 149.253906 L 284.546875 147.59375 " fill-opacity="1" fill-rule="nonzero"/><path fill="#393536" d="M 274.835938 141.203125 C 274.460938 140.171875 274.105469 139.160156 273.761719 138.171875 C 275.261719 138.847656 277.257812 139.796875 278.640625 140.695312 C 280.046875 142.175781 281.914062 144.152344 283.246094 145.703125 C 283.34375 145.988281 283.449219 146.277344 283.554688 146.578125 C 282.546875 145.917969 281.164062 145.058594 280.035156 144.636719 C 278.484375 143.59375 276.003906 142.664062 274.835938 141.203125 " fill-opacity="1" fill-rule="nonzero"/><path fill="#393536" d="M 260.523438 137.703125 C 259.871094 135.902344 259.246094 134.136719 258.652344 132.417969 C 260.550781 132.34375 263.089844 132.277344 264.984375 132.4375 C 267.097656 133.859375 269.914062 135.761719 271.996094 137.226562 C 272.371094 138.316406 272.769531 139.433594 273.179688 140.574219 C 271.636719 140.652344 269.574219 140.808594 268.058594 141.113281 C 265.800781 140.085938 262.789062 138.71875 260.523438 137.703125 " fill-opacity="1" fill-rule="nonzero"/><path fill="#393536" d="M 242.488281 137.050781 C 241.597656 134.589844 240.742188 132.179688 239.929688 129.832031 C 242.144531 129.058594 245.105469 128.050781 247.378906 127.476562 C 250.074219 128.789062 253.671875 130.542969 256.351562 131.890625 C 256.980469 133.699219 257.636719 135.558594 258.324219 137.453125 C 256.378906 138.25 253.796875 139.34375 251.925781 140.304688 C 249.097656 139.324219 245.324219 138.023438 242.488281 137.050781 " fill-opacity="1" fill-rule="nonzero"/><path fill="#393536" d="M 198.78125 144.121094 C 197.570312 140.777344 196.410156 137.5 195.304688 134.308594 C 197.878906 132.292969 201.324219 129.613281 203.984375 127.710938 C 207.449219 128.613281 212.066406 129.824219 215.519531 130.777344 C 216.523438 133.675781 217.578125 136.65625 218.679688 139.699219 C 216.246094 141.710938 213.007812 144.414062 210.648438 146.511719 C 207.089844 145.785156 202.347656 144.816406 198.78125 144.121094 " fill-opacity="1" fill-rule="nonzero"/><path fill="#393536" d="M 151.378906 161.796875 C 150.121094 158.320312 148.910156 154.910156 147.761719 151.59375 C 150.167969 148.671875 153.398438 144.789062 155.898438 141.949219 C 159.527344 142.121094 164.371094 142.367188 167.996094 142.640625 C 169.160156 146 170.382812 149.453125 171.660156 152.980469 C 169.101562 155.839844 165.703125 159.664062 163.214844 162.582031 C 159.664062 162.328125 154.933594 161.996094 151.378906 161.796875 " fill-opacity="1" fill-rule="nonzero"/><path fill="#393536" d="M 130.992188 173.058594 C 129.820312 169.820312 128.695312 166.648438 127.625 163.5625 C 129.59375 160.511719 132.234375 156.449219 134.277344 153.449219 C 137.457031 153.300781 141.695312 153.128906 144.878906 153.09375 C 146.023438 156.390625 147.222656 159.78125 148.476562 163.238281 C 146.292969 166.199219 143.390625 170.160156 141.265625 173.164062 C 138.183594 173.101562 134.074219 173.027344 130.992188 173.058594 " fill-opacity="1" fill-rule="nonzero"/><path fill="#393536" d="M 114.382812 184.945312 C 113.363281 182.128906 112.386719 179.371094 111.457031 176.6875 C 112.941406 173.660156 114.9375 169.628906 116.492188 166.636719 C 119.109375 166.171875 122.601562 165.578125 125.242188 165.25 C 126.296875 168.292969 127.402344 171.417969 128.558594 174.609375 C 126.804688 177.515625 124.472656 181.386719 122.761719 184.316406 C 120.246094 184.464844 116.886719 184.675781 114.382812 184.945312 " fill-opacity="1" fill-rule="nonzero"/><path fill="#393536" d="M 94.628906 208.476562 C 94.074219 206.9375 93.535156 205.425781 93.027344 203.960938 C 93.410156 201.410156 93.9375 198.019531 94.40625 195.488281 C 95.605469 194.433594 97.234375 193.054688 98.566406 192.179688 C 99.277344 194.234375 100.027344 196.34375 100.804688 198.496094 C 100.027344 200.855469 98.996094 204 98.265625 206.371094 C 97.140625 206.941406 95.640625 207.722656 94.628906 208.476562 " fill-opacity="1" fill-rule="nonzero"/><path fill="#393536" d="M 92.546875 219.054688 C 92.277344 218.316406 92.023438 217.589844 91.777344 216.886719 C 91.523438 214.78125 91.210938 211.96875 91.085938 209.855469 C 91.441406 208.589844 91.953125 206.902344 92.535156 205.726562 C 93.011719 207.101562 93.511719 208.511719 94.03125 209.949219 C 93.804688 211.84375 93.507812 214.375 93.363281 216.28125 C 93.035156 217.085938 92.640625 218.191406 92.546875 219.054688 " fill-opacity="1" fill-rule="nonzero"/><path fill="#393536" d="M 93.347656 222.933594 C 93.171875 222.4375 92.941406 221.773438 92.769531 221.277344 L 92.050781 218.515625 C 92.257812 219.113281 92.476562 219.730469 92.703125 220.355469 C 92.960938 221.320312 93.238281 222.625 93.578125 223.5625 L 93.347656 222.933594 " fill-opacity="1" fill-rule="nonzero"/><path fill="#393536" d="M 281.449219 147.28125 C 281.195312 146.625 280.945312 145.972656 280.707031 145.328125 C 281.746094 145.792969 283.125 146.464844 284.035156 147.152344 L 285.886719 149.253906 L 284.628906 148.714844 C 283.671875 148.289062 282.167969 148.042969 281.449219 147.28125 " fill-opacity="1" fill-rule="nonzero"/><path fill="#393536" d="M 270.886719 146.691406 C 270.300781 145.175781 269.734375 143.675781 269.183594 142.203125 C 270.65625 141.929688 272.632812 141.589844 274.132812 141.550781 C 275.730469 142.503906 277.867188 143.777344 279.453125 144.757812 C 279.734375 145.515625 280.027344 146.285156 280.328125 147.0625 C 279.226562 147.390625 277.761719 147.878906 276.726562 148.386719 C 274.972656 147.890625 272.632812 147.222656 270.886719 146.691406 " fill-opacity="1" fill-rule="nonzero"/><path fill="#393536" d="M 255.984375 148.449219 C 255.105469 146.183594 254.253906 143.9375 253.429688 141.726562 C 255.277344 140.789062 257.753906 139.550781 259.679688 138.777344 C 261.96875 139.742188 265.023438 141.023438 267.316406 141.988281 C 267.90625 143.566406 268.515625 145.171875 269.140625 146.792969 C 267.589844 147.816406 265.539062 149.214844 264.074219 150.355469 C 261.644531 149.800781 258.40625 149.046875 255.984375 148.449219 " fill-opacity="1" fill-rule="nonzero"/><path fill="#393536" d="M 237.5625 152.386719 C 236.445312 149.492188 235.359375 146.632812 234.308594 143.8125 C 236.449219 142.261719 239.320312 140.207031 241.546875 138.777344 C 244.402344 139.699219 248.210938 140.933594 251.066406 141.859375 C 251.925781 144.160156 252.808594 146.496094 253.722656 148.851562 C 251.824219 150.484375 249.304688 152.679688 247.480469 154.398438 C 244.503906 153.804688 240.535156 153.007812 237.5625 152.386719 " fill-opacity="1" fill-rule="nonzero"/><path fill="#393536" d="M 216.457031 158.3125 C 215.160156 154.953125 213.898438 151.628906 212.679688 148.359375 C 215.03125 146.265625 218.179688 143.488281 220.609375 141.484375 C 223.898438 142.320312 228.28125 143.433594 231.5625 144.277344 C 232.640625 147.164062 233.753906 150.097656 234.898438 153.058594 C 232.730469 155.207031 229.855469 158.085938 227.753906 160.292969 C 224.363281 159.703125 219.84375 158.914062 216.457031 158.3125 " fill-opacity="1" fill-rule="nonzero"/><path fill="#393536" d="M 169.546875 175.40625 C 168.117188 171.699219 166.71875 168.023438 165.371094 164.40625 C 167.886719 161.507812 171.25 157.652344 173.820312 154.804688 C 177.542969 155.246094 182.511719 155.847656 186.226562 156.351562 C 187.558594 159.917969 188.933594 163.542969 190.351562 167.207031 C 187.882812 170.0625 184.597656 173.875 182.15625 176.757812 C 178.375 176.34375 173.332031 175.796875 169.546875 175.40625 " fill-opacity="1" fill-rule="nonzero"/><path fill="#393536" d="M 128.03125 195.242188 C 126.792969 192.039062 125.589844 188.871094 124.425781 185.75 C 126.179688 182.847656 128.523438 178.976562 130.316406 176.09375 C 133.378906 176.117188 137.457031 176.167969 140.515625 176.273438 C 141.796875 179.703125 143.121094 183.191406 144.480469 186.710938 C 142.503906 189.523438 139.871094 193.273438 137.914062 196.097656 C 134.949219 195.820312 130.996094 195.457031 128.03125 195.242188 " fill-opacity="1" fill-rule="nonzero"/><path fill="#393536" d="M 112.5625 204.574219 C 111.53125 201.90625 110.523438 199.257812 109.554688 196.65625 C 110.855469 193.96875 112.59375 190.390625 113.921875 187.722656 C 116.40625 187.527344 119.722656 187.292969 122.214844 187.210938 C 123.355469 190.269531 124.535156 193.378906 125.75 196.519531 C 124.171875 199.066406 122.066406 202.464844 120.492188 205.015625 C 118.113281 204.855469 114.941406 204.652344 112.5625 204.574219 " fill-opacity="1" fill-rule="nonzero"/><path fill="#393536" d="M 101.402344 212.992188 C 100.628906 211 99.878906 209.023438 99.152344 207.078125 C 99.945312 204.742188 101.011719 201.628906 101.847656 199.304688 C 103.652344 198.882812 106.070312 198.351562 107.902344 198.078125 C 108.84375 200.601562 109.820312 203.164062 110.820312 205.753906 C 109.683594 207.914062 108.167969 210.792969 107.027344 212.953125 C 105.339844 212.929688 103.089844 212.90625 101.402344 212.992188 " fill-opacity="1" fill-rule="nonzero"/><path fill="#393536" d="M 95.125 220.101562 C 94.664062 218.902344 94.210938 217.714844 93.777344 216.542969 C 94.003906 214.675781 94.324219 212.183594 94.621094 210.328125 C 95.640625 209.683594 97.027344 208.863281 98.136719 208.398438 C 98.828125 210.246094 99.542969 212.125 100.273438 214.023438 C 99.625 215.679688 98.765625 217.890625 98.125 219.554688 C 97.21875 219.667969 96 219.828125 95.125 220.101562 " fill-opacity="1" fill-rule="nonzero"/><path fill="#393536" d="M 94.234375 225.308594 L 93.953125 224.570312 L 93.710938 223.921875 C 93.410156 222.832031 92.988281 221.382812 92.789062 220.269531 C 92.910156 219.484375 93.105469 218.410156 93.46875 217.703125 C 93.863281 218.761719 94.273438 219.839844 94.691406 220.925781 C 94.574219 221.984375 94.417969 223.402344 94.378906 224.464844 C 94.292969 224.703125 94.167969 225.058594 94.234375 225.308594 " fill-opacity="1" fill-rule="nonzero"/><path fill="#393536" d="M 285.316406 149.574219 C 285.234375 149.378906 285.15625 149.183594 285.078125 148.992188 L 285.886719 149.253906 L 285.316406 149.574219 " fill-opacity="1" fill-rule="nonzero"/><path fill="#393536" d="M 279.195312 152.472656 C 278.742188 151.363281 278.296875 150.257812 277.859375 149.160156 C 278.835938 148.671875 280.15625 148.023438 281.210938 147.722656 C 282.171875 148.078125 283.457031 148.550781 284.429688 148.875 C 284.554688 149.191406 284.683594 149.511719 284.816406 149.832031 C 284.226562 150.46875 283.46875 151.339844 282.949219 152.03125 C 281.828125 152.214844 280.328125 152.421875 279.195312 152.472656 " fill-opacity="1" fill-rule="nonzero"/><path fill="#393536" d="M 252.867188 163.875 C 251.789062 161.242188 250.726562 158.609375 249.6875 155.992188 C 251.480469 154.273438 253.878906 151.992188 255.746094 150.355469 C 258.179688 150.878906 261.425781 151.574219 263.871094 152.046875 C 264.671875 154.066406 265.492188 156.097656 266.324219 158.125 C 264.828125 159.984375 262.84375 162.476562 261.402344 164.378906 C 258.839844 164.257812 255.425781 164.078125 252.867188 163.875 " fill-opacity="1" fill-rule="nonzero"/><path fill="#393536" d="M 234.203125 171.730469 C 232.890625 168.535156 231.605469 165.34375 230.34375 162.167969 C 232.421875 159.960938 235.199219 157.019531 237.339844 154.871094 C 240.324219 155.4375 244.300781 156.183594 247.289062 156.714844 C 248.359375 159.417969 249.457031 162.132812 250.570312 164.847656 C 248.734375 167.171875 246.296875 170.28125 244.507812 172.636719 C 241.414062 172.386719 237.289062 172.042969 234.203125 171.730469 " fill-opacity="1" fill-rule="nonzero"/><path fill="#393536" d="M 144.644531 208.339844 C 143.222656 204.878906 141.824219 201.414062 140.457031 197.96875 C 142.457031 195.15625 145.125 191.410156 147.136719 188.613281 C 150.574219 188.976562 155.15625 189.46875 158.59375 189.855469 C 160.050781 193.539062 161.546875 197.238281 163.0625 200.941406 C 160.894531 203.707031 158.003906 207.398438 155.828125 210.15625 C 152.472656 209.613281 148 208.882812 144.644531 208.339844 " fill-opacity="1" fill-rule="nonzero"/><path fill="#393536" d="M 111.539062 221.359375 C 110.554688 218.960938 109.585938 216.5625 108.640625 214.175781 C 109.835938 212.042969 111.429688 209.195312 112.617188 207.058594 C 114.992188 207.21875 118.15625 207.449219 120.527344 207.683594 C 121.6875 210.609375 122.871094 213.546875 124.078125 216.488281 C 122.597656 218.484375 120.617188 221.144531 119.09375 223.105469 C 116.828125 222.574219 113.808594 221.859375 111.539062 221.359375 " fill-opacity="1" fill-rule="nonzero"/><path fill="#393536" d="M 101.125 225.265625 C 100.449219 223.617188 99.785156 221.972656 99.132812 220.332031 C 99.847656 218.703125 100.792969 216.527344 101.503906 214.898438 C 103.1875 214.917969 105.429688 214.96875 107.109375 215.082031 C 108.019531 217.375 108.949219 219.679688 109.894531 221.984375 C 108.835938 223.441406 107.417969 225.378906 106.300781 226.792969 C 104.753906 226.324219 102.6875 225.703125 101.125 225.265625 " fill-opacity="1" fill-rule="nonzero"/><path fill="#393536" d="M 95.664062 227.113281 C 95.339844 226.320312 95.019531 225.53125 94.707031 224.742188 C 94.859375 223.710938 95.078125 222.339844 95.277344 221.320312 C 96.160156 221.179688 97.347656 221.035156 98.242188 221.023438 C 98.847656 222.554688 99.472656 224.09375 100.101562 225.636719 C 99.523438 226.460938 98.753906 227.5625 98.113281 228.34375 C 97.378906 227.976562 96.222656 227.714844 95.664062 227.113281 " fill-opacity="1" fill-rule="nonzero"/><path fill="#393536" d="M 95.125 227.519531 C 94.726562 226.554688 94.726562 226.554688 94.535156 226.070312 L 94.375 225.667969 C 94.40625 225.53125 94.441406 225.351562 94.472656 225.214844 L 94.535156 225.179688 C 94.800781 225.847656 95.070312 226.519531 95.34375 227.1875 C 95.292969 227.316406 95.285156 227.546875 95.160156 227.617188 L 95.125 227.519531 " fill-opacity="1" fill-rule="nonzero"/><path fill="#393536" d="M 284.296875 154.234375 C 284.011719 153.574219 283.726562 152.90625 283.445312 152.238281 C 283.925781 151.523438 284.558594 150.5625 285.105469 149.898438 L 285.886719 149.253906 L 285.785156 151.492188 C 285.421875 152.355469 284.890625 153.507812 284.296875 154.234375 " fill-opacity="1" fill-rule="nonzero"/><path fill="#393536" d="M 277.429688 162.648438 C 276.769531 161.128906 276.117188 159.597656 275.472656 158.0625 C 276.453125 156.695312 277.769531 154.878906 278.8125 153.558594 C 279.980469 153.414062 281.546875 153.210938 282.683594 152.90625 C 283.015625 153.691406 283.351562 154.480469 283.6875 155.257812 C 283.117188 156.84375 282.363281 158.953125 281.792969 160.539062 C 280.519531 161.238281 278.789062 162.128906 277.429688 162.648438 " fill-opacity="1" fill-rule="nonzero"/><path fill="#393536" d="M 265.777344 172.339844 C 264.792969 170.070312 263.816406 167.777344 262.847656 165.476562 C 264.257812 163.554688 266.144531 160.996094 267.605469 159.113281 C 269.539062 159.109375 272.121094 159.089844 274.046875 158.964844 C 274.738281 160.609375 275.4375 162.246094 276.144531 163.871094 C 275.089844 165.984375 273.6875 168.804688 272.652344 170.929688 C 270.601562 171.40625 267.859375 172.011719 265.777344 172.339844 " fill-opacity="1" fill-rule="nonzero"/><path fill="#393536" d="M 162.582031 222.855469 C 161.035156 219.292969 159.503906 215.699219 157.988281 212.089844 C 160.179688 209.332031 163.101562 205.65625 165.285156 202.894531 C 168.988281 203.394531 173.929688 204.054688 177.636719 204.523438 C 179.214844 208.28125 180.8125 212.023438 182.421875 215.730469 C 180.113281 218.503906 177.035156 222.199219 174.703125 224.953125 C 171.066406 224.339844 166.214844 223.515625 162.582031 222.855469 " fill-opacity="1" fill-rule="nonzero"/><path fill="#393536" d="M 141.855469 228.964844 C 140.464844 225.757812 139.085938 222.523438 137.722656 219.277344 C 139.617188 216.867188 142.140625 213.65625 144.011719 211.226562 C 147.351562 211.800781 151.800781 212.570312 155.140625 213.140625 C 156.640625 216.714844 158.15625 220.269531 159.6875 223.796875 C 157.617188 226.164062 154.847656 229.316406 152.730469 231.644531 C 149.46875 230.847656 145.113281 229.785156 141.855469 228.964844 " fill-opacity="1" fill-rule="nonzero"/><path fill="#393536" d="M 124.101562 232.722656 C 122.941406 230.046875 121.789062 227.347656 120.652344 224.636719 C 122.199219 222.6875 124.257812 220.078125 125.765625 218.097656 C 128.613281 218.691406 132.414062 219.488281 135.257812 220.097656 C 136.59375 223.28125 137.949219 226.457031 139.3125 229.601562 C 137.53125 231.464844 135.148438 233.949219 133.304688 235.75 C 130.539062 234.847656 126.859375 233.640625 124.101562 232.722656 " fill-opacity="1" fill-rule="nonzero"/><path fill="#393536" d="M 110.019531 234.019531 C 109.152344 232.019531 108.292969 230.003906 107.441406 227.980469 C 108.589844 226.585938 110.101562 224.714844 111.191406 223.277344 C 113.433594 223.84375 116.425781 224.605469 118.660156 225.199219 C 119.765625 227.824219 120.882812 230.445312 122.007812 233.035156 C 120.574219 234.320312 118.652344 236.023438 117.140625 237.207031 C 115 236.257812 111.660156 235.6875 110.019531 234.019531 " fill-opacity="1" fill-rule="nonzero"/><path fill="#393536" d="M 100.316406 232.753906 C 99.792969 231.550781 99.273438 230.335938 98.765625 229.117188 C 99.441406 228.363281 100.324219 227.339844 100.9375 226.53125 C 102.464844 227.042969 104.496094 227.730469 106.015625 228.261719 C 106.824219 230.183594 107.640625 232.101562 108.464844 234 C 107.445312 234.636719 106.066406 235.476562 104.960938 235.953125 C 103.558594 235.003906 101.375 234.070312 100.316406 232.753906 " fill-opacity="1" fill-rule="nonzero"/><path fill="#393536" d="M 95.855469 229.242188 L 95.75 229.003906 C 95.613281 228.679688 95.429688 228.253906 95.292969 227.929688 C 95.421875 227.875 95.578125 227.753906 95.660156 227.636719 C 96.351562 228.085938 97.277344 228.671875 97.988281 229.09375 C 98.449219 230.195312 98.917969 231.296875 99.394531 232.386719 C 98.804688 232.332031 97.996094 232.210938 97.484375 231.917969 C 96.976562 231.125 96.246094 230.097656 95.855469 229.242188 " fill-opacity="1" fill-rule="nonzero"/><path fill="#393536" d="M 286.175781 151.554688 C 286.09375 151.375 286.007812 151.1875 285.921875 151 L 285.886719 149.253906 L 286.175781 151.554688 " fill-opacity="1" fill-rule="nonzero"/><path fill="#393536" d="M 284.097656 163.746094 C 283.617188 162.710938 283.140625 161.65625 282.660156 160.585938 C 283.15625 158.964844 283.8125 156.808594 284.296875 155.183594 C 284.832031 154.328125 285.519531 153.144531 285.816406 152.175781 C 285.953125 152.484375 286.09375 152.789062 286.230469 153.089844 C 286.238281 154.949219 286.230469 157.433594 286.160156 159.292969 C 285.625 160.664062 284.867188 162.492188 284.097656 163.746094 " fill-opacity="1" fill-rule="nonzero"/><g clip-path="url(#75d39a07c0)"><path fill="#393536" d="M 108.429688 242.070312 C 107.71875 240.527344 107.003906 238.953125 106.292969 237.359375 C 107.4375 236.859375 108.953125 236.148438 110.019531 235.492188 C 112.148438 236.523438 114.984375 237.894531 117.121094 238.902344 C 118.117188 241.132812 119.113281 243.335938 120.109375 245.492188 C 118.648438 245.96875 116.683594 246.578125 115.167969 246.84375 C 113.132812 245.429688 109.996094 243.988281 108.429688 242.070312 " fill-opacity="1" fill-rule="nonzero"/></g><path fill="#393536" d="M 99.167969 235.175781 C 98.828125 234.433594 98.484375 233.679688 98.144531 232.914062 C 98.765625 233.171875 99.636719 233.472656 100.308594 233.480469 C 101.679688 234.535156 103.519531 235.929688 104.929688 236.933594 C 105.59375 238.425781 106.261719 239.894531 106.925781 241.335938 C 105.828125 241.074219 104.359375 240.679688 103.347656 240.183594 C 102.0625 238.707031 100.179688 236.851562 99.167969 235.175781 " fill-opacity="1" fill-rule="nonzero"/><path fill="#393536" d="M 96.457031 230.597656 C 96.328125 230.308594 96.152344 229.921875 96.023438 229.628906 C 96.445312 230.375 96.964844 231.398438 97.449219 232.109375 C 97.738281 232.757812 98.027344 233.398438 98.316406 234.027344 L 97.027344 231.835938 C 96.855469 231.464844 96.625 230.96875 96.457031 230.597656 " fill-opacity="1" fill-rule="nonzero"/><g clip-path="url(#42d22164ae)"><path fill="#393536" d="M 287.28125 160.6875 C 287.015625 160.148438 286.738281 159.578125 286.449219 158.976562 L 286.445312 158.960938 C 286.429688 157.058594 286.40625 154.523438 286.296875 152.625 L 285.886719 149.253906 L 286.964844 153.996094 C 287.140625 156 287.347656 158.679688 287.28125 160.6875 " fill-opacity="1" fill-rule="nonzero"/></g><path fill="#393536" d="M 286.980469 153.175781 C 286.914062 153.054688 286.84375 152.921875 286.769531 152.777344 L 285.886719 149.253906 L 286.980469 153.175781 " fill-opacity="1" fill-rule="nonzero"/><g clip-path="url(#d443d60a48)"><path fill="#393536" d="M 287.546875 154.070312 C 287.503906 154.019531 287.460938 153.960938 287.410156 153.890625 L 285.886719 149.253906 L 287.546875 154.070312 " fill-opacity="1" fill-rule="nonzero"/></g><g fill="#312f30" fill-opacity="1"><g transform="translate(78.872795, 273.107001)"><g><path d="M 1.953125 -14.484375 L 4.640625 -14.484375 L 4.640625 0 L 1.953125 0 Z M 1.953125 -14.484375 "/></g></g></g><g fill="#312f30" fill-opacity="1"><g transform="translate(85.062075, 273.107001)"><g><path d="M 14.828125 -14.484375 L 14.828125 0 L 12.609375 0 L 4.609375 -9.8125 L 4.609375 0 L 1.953125 0 L 1.953125 -14.484375 L 4.15625 -14.484375 L 12.15625 -4.671875 L 12.15625 -14.484375 Z M 14.828125 -14.484375 "/></g></g></g><g fill="#312f30" fill-opacity="1"><g transform="translate(101.415381, 273.107001)"><g><path d="M 11.84375 -7.40625 L 14.390625 -7.40625 L 14.390625 -1.640625 C 13.640625 -1.046875 12.769531 -0.585938 11.78125 -0.265625 C 10.789062 0.046875 9.769531 0.203125 8.71875 0.203125 C 7.238281 0.203125 5.90625 -0.113281 4.71875 -0.75 C 3.53125 -1.394531 2.597656 -2.28125 1.921875 -3.40625 C 1.242188 -4.539062 0.90625 -5.820312 0.90625 -7.25 C 0.90625 -8.664062 1.242188 -9.941406 1.921875 -11.078125 C 2.597656 -12.210938 3.53125 -13.097656 4.71875 -13.734375 C 5.914062 -14.378906 7.257812 -14.703125 8.75 -14.703125 C 9.96875 -14.703125 11.070312 -14.5 12.0625 -14.09375 C 13.0625 -13.695312 13.898438 -13.113281 14.578125 -12.34375 L 12.875 -10.6875 C 11.769531 -11.789062 10.4375 -12.34375 8.875 -12.34375 C 7.851562 -12.34375 6.945312 -12.128906 6.15625 -11.703125 C 5.363281 -11.273438 4.742188 -10.671875 4.296875 -9.890625 C 3.847656 -9.117188 3.625 -8.238281 3.625 -7.25 C 3.625 -6.28125 3.847656 -5.410156 4.296875 -4.640625 C 4.742188 -3.867188 5.363281 -3.257812 6.15625 -2.8125 C 6.945312 -2.375 7.847656 -2.15625 8.859375 -2.15625 C 9.992188 -2.15625 10.988281 -2.398438 11.84375 -2.890625 Z M 11.84375 -7.40625 "/></g></g></g><g fill="#312f30" fill-opacity="1"><g transform="translate(116.982062, 273.107001)"><g><path d="M 8.71875 0.203125 C 7.238281 0.203125 5.90625 -0.113281 4.71875 -0.75 C 3.53125 -1.394531 2.597656 -2.285156 1.921875 -3.421875 C 1.242188 -4.566406 0.90625 -5.84375 0.90625 -7.25 C 0.90625 -8.65625 1.242188 -9.925781 1.921875 -11.0625 C 2.597656 -12.207031 3.53125 -13.097656 4.71875 -13.734375 C 5.90625 -14.378906 7.238281 -14.703125 8.71875 -14.703125 C 10.195312 -14.703125 11.523438 -14.378906 12.703125 -13.734375 C 13.890625 -13.097656 14.820312 -12.210938 15.5 -11.078125 C 16.175781 -9.941406 16.515625 -8.664062 16.515625 -7.25 C 16.515625 -5.820312 16.175781 -4.539062 15.5 -3.40625 C 14.820312 -2.28125 13.890625 -1.394531 12.703125 -0.75 C 11.523438 -0.113281 10.195312 0.203125 8.71875 0.203125 Z M 8.71875 -2.15625 C 9.6875 -2.15625 10.554688 -2.367188 11.328125 -2.796875 C 12.097656 -3.234375 12.703125 -3.84375 13.140625 -4.625 C 13.585938 -5.40625 13.8125 -6.28125 13.8125 -7.25 C 13.8125 -8.207031 13.585938 -9.078125 13.140625 -9.859375 C 12.703125 -10.640625 12.097656 -11.25 11.328125 -11.6875 C 10.554688 -12.125 9.6875 -12.34375 8.71875 -12.34375 C 7.75 -12.34375 6.878906 -12.125 6.109375 -11.6875 C 5.335938 -11.25 4.726562 -10.640625 4.28125 -9.859375 C 3.84375 -9.078125 3.625 -8.207031 3.625 -7.25 C 3.625 -6.28125 3.84375 -5.40625 4.28125 -4.625 C 4.726562 -3.84375 5.335938 -3.234375 6.109375 -2.796875 C 6.878906 -2.367188 7.75 -2.15625 8.71875 -2.15625 Z M 8.71875 -2.15625 "/></g></g></g><g fill="#312f30" fill-opacity="1"><g transform="translate(133.99779, 273.107001)"><g><path d="M 8.171875 0.203125 C 6.171875 0.203125 4.613281 -0.359375 3.5 -1.484375 C 2.382812 -2.609375 1.828125 -4.21875 1.828125 -6.3125 L 1.828125 -14.484375 L 4.515625 -14.484375 L 4.515625 -6.421875 C 4.515625 -3.578125 5.742188 -2.15625 8.203125 -2.15625 C 10.640625 -2.15625 11.859375 -3.578125 11.859375 -6.421875 L 11.859375 -14.484375 L 14.515625 -14.484375 L 14.515625 -6.3125 C 14.515625 -4.21875 13.957031 -2.609375 12.84375 -1.484375 C 11.726562 -0.359375 10.171875 0.203125 8.171875 0.203125 Z M 8.171875 0.203125 "/></g></g></g><g fill="#312f30" fill-opacity="1"><g transform="translate(149.916388, 273.107001)"><g><path d="M 1.953125 -14.484375 L 8.28125 -14.484375 C 9.820312 -14.484375 11.191406 -14.179688 12.390625 -13.578125 C 13.597656 -12.984375 14.53125 -12.140625 15.1875 -11.046875 C 15.851562 -9.953125 16.1875 -8.6875 16.1875 -7.25 C 16.1875 -5.8125 15.851562 -4.539062 15.1875 -3.4375 C 14.53125 -2.34375 13.597656 -1.492188 12.390625 -0.890625 C 11.191406 -0.296875 9.820312 0 8.28125 0 L 1.953125 0 Z M 8.15625 -2.28125 C 9.21875 -2.28125 10.148438 -2.484375 10.953125 -2.890625 C 11.765625 -3.296875 12.390625 -3.875 12.828125 -4.625 C 13.265625 -5.375 13.484375 -6.25 13.484375 -7.25 C 13.484375 -8.238281 13.265625 -9.109375 12.828125 -9.859375 C 12.390625 -10.617188 11.765625 -11.203125 10.953125 -11.609375 C 10.148438 -12.015625 9.21875 -12.21875 8.15625 -12.21875 L 4.640625 -12.21875 L 4.640625 -2.28125 Z M 8.15625 -2.28125 "/></g></g></g><g fill="#312f30" fill-opacity="1"><g transform="translate(166.600905, 273.107001)"><g><path d="M 12.8125 -2.25 L 12.8125 0 L 1.953125 0 L 1.953125 -14.484375 L 12.53125 -14.484375 L 12.53125 -12.234375 L 4.640625 -12.234375 L 4.640625 -8.46875 L 11.640625 -8.46875 L 11.640625 -6.25 L 4.640625 -6.25 L 4.640625 -2.25 Z M 12.8125 -2.25 "/></g></g></g><g fill="#312f30" fill-opacity="1"><g transform="translate(180.056117, 273.107001)"><g/></g></g><g fill="#312f30" fill-opacity="1"><g transform="translate(185.355261, 273.107001)"><g><path d="M 8.65625 0.203125 C 7.1875 0.203125 5.863281 -0.113281 4.6875 -0.75 C 3.507812 -1.394531 2.582031 -2.28125 1.90625 -3.40625 C 1.238281 -4.539062 0.90625 -5.820312 0.90625 -7.25 C 0.90625 -8.664062 1.242188 -9.941406 1.921875 -11.078125 C 2.597656 -12.210938 3.523438 -13.097656 4.703125 -13.734375 C 5.890625 -14.378906 7.210938 -14.703125 8.671875 -14.703125 C 9.859375 -14.703125 10.941406 -14.492188 11.921875 -14.078125 C 12.898438 -13.660156 13.726562 -13.0625 14.40625 -12.28125 L 12.671875 -10.640625 C 11.617188 -11.773438 10.328125 -12.34375 8.796875 -12.34375 C 7.804688 -12.34375 6.914062 -12.125 6.125 -11.6875 C 5.34375 -11.25 4.726562 -10.644531 4.28125 -9.875 C 3.84375 -9.101562 3.625 -8.226562 3.625 -7.25 C 3.625 -6.269531 3.84375 -5.390625 4.28125 -4.609375 C 4.726562 -3.835938 5.34375 -3.234375 6.125 -2.796875 C 6.914062 -2.367188 7.804688 -2.15625 8.796875 -2.15625 C 10.328125 -2.15625 11.617188 -2.726562 12.671875 -3.875 L 14.40625 -2.21875 C 13.726562 -1.425781 12.894531 -0.820312 11.90625 -0.40625 C 10.925781 0 9.84375 0.203125 8.65625 0.203125 Z M 8.65625 0.203125 "/></g></g></g><g fill="#312f30" fill-opacity="1"><g transform="translate(199.990417, 273.107001)"><g><path d="M 8.71875 0.203125 C 7.238281 0.203125 5.90625 -0.113281 4.71875 -0.75 C 3.53125 -1.394531 2.597656 -2.285156 1.921875 -3.421875 C 1.242188 -4.566406 0.90625 -5.84375 0.90625 -7.25 C 0.90625 -8.65625 1.242188 -9.925781 1.921875 -11.0625 C 2.597656 -12.207031 3.53125 -13.097656 4.71875 -13.734375 C 5.90625 -14.378906 7.238281 -14.703125 8.71875 -14.703125 C 10.195312 -14.703125 11.523438 -14.378906 12.703125 -13.734375 C 13.890625 -13.097656 14.820312 -12.210938 15.5 -11.078125 C 16.175781 -9.941406 16.515625 -8.664062 16.515625 -7.25 C 16.515625 -5.820312 16.175781 -4.539062 15.5 -3.40625 C 14.820312 -2.28125 13.890625 -1.394531 12.703125 -0.75 C 11.523438 -0.113281 10.195312 0.203125 8.71875 0.203125 Z M 8.71875 -2.15625 C 9.6875 -2.15625 10.554688 -2.367188 11.328125 -2.796875 C 12.097656 -3.234375 12.703125 -3.84375 13.140625 -4.625 C 13.585938 -5.40625 13.8125 -6.28125 13.8125 -7.25 C 13.8125 -8.207031 13.585938 -9.078125 13.140625 -9.859375 C 12.703125 -10.640625 12.097656 -11.25 11.328125 -11.6875 C 10.554688 -12.125 9.6875 -12.34375 8.71875 -12.34375 C 7.75 -12.34375 6.878906 -12.125 6.109375 -11.6875 C 5.335938 -11.25 4.726562 -10.640625 4.28125 -9.859375 C 3.84375 -9.078125 3.625 -8.207031 3.625 -7.25 C 3.625 -6.28125 3.84375 -5.40625 4.28125 -4.625 C 4.726562 -3.84375 5.335938 -3.234375 6.109375 -2.796875 C 6.878906 -2.367188 7.75 -2.15625 8.71875 -2.15625 Z M 8.71875 -2.15625 "/></g></g></g><g fill="#312f30" fill-opacity="1"><g transform="translate(217.006145, 273.107001)"><g><path d="M 15.265625 0 L 15.234375 -9.609375 L 10.46875 -1.65625 L 9.28125 -1.65625 L 4.515625 -9.484375 L 4.515625 0 L 1.953125 0 L 1.953125 -14.484375 L 4.15625 -14.484375 L 9.921875 -4.890625 L 15.5625 -14.484375 L 17.78125 -14.484375 L 17.796875 0 Z M 15.265625 0 "/></g></g></g><g fill="#312f30" fill-opacity="1"><g transform="translate(236.361056, 273.107001)"><g><path d="M 7.90625 -14.484375 C 9.164062 -14.484375 10.257812 -14.273438 11.1875 -13.859375 C 12.125 -13.453125 12.835938 -12.863281 13.328125 -12.09375 C 13.828125 -11.320312 14.078125 -10.40625 14.078125 -9.34375 C 14.078125 -8.289062 13.828125 -7.375 13.328125 -6.59375 C 12.835938 -5.8125 12.125 -5.210938 11.1875 -4.796875 C 10.257812 -4.390625 9.164062 -4.1875 7.90625 -4.1875 L 4.640625 -4.1875 L 4.640625 0 L 1.953125 0 L 1.953125 -14.484375 Z M 7.78125 -6.453125 C 8.957031 -6.453125 9.847656 -6.703125 10.453125 -7.203125 C 11.054688 -7.703125 11.359375 -8.414062 11.359375 -9.34375 C 11.359375 -10.257812 11.054688 -10.96875 10.453125 -11.46875 C 9.847656 -11.96875 8.957031 -12.21875 7.78125 -12.21875 L 4.640625 -12.21875 L 4.640625 -6.453125 Z M 7.78125 -6.453125 "/></g></g></g><g fill="#312f30" fill-opacity="1"><g transform="translate(250.975505, 273.107001)"><g><path d="M 11.34375 -3.359375 L 4.09375 -3.359375 L 2.671875 0 L -0.109375 0 L 6.421875 -14.484375 L 9.0625 -14.484375 L 15.609375 0 L 12.796875 0 Z M 10.453125 -5.46875 L 7.71875 -11.796875 L 5.015625 -5.46875 Z M 10.453125 -5.46875 "/></g></g></g><g fill="#312f30" fill-opacity="1"><g transform="translate(266.066065, 273.107001)"><g><path d="M 14.828125 -14.484375 L 14.828125 0 L 12.609375 0 L 4.609375 -9.8125 L 4.609375 0 L 1.953125 0 L 1.953125 -14.484375 L 4.15625 -14.484375 L 12.15625 -4.671875 L 12.15625 -14.484375 Z M 14.828125 -14.484375 "/></g></g></g><g fill="#312f30" fill-opacity="1"><g transform="translate(282.419371, 273.107001)"><g><path d="M 8.203125 -5.109375 L 8.203125 0 L 5.5 0 L 5.5 -5.078125 L -0.1875 -14.484375 L 2.6875 -14.484375 L 6.9375 -7.4375 L 11.21875 -14.484375 L 13.875 -14.484375 Z M 8.203125 -5.109375 "/></g></g></g><g fill="#312f30" fill-opacity="1"><g transform="translate(127.655974, 286.994836)"><g><path d="M 5.671875 -3.546875 L 6.890625 -3.546875 L 6.890625 -0.78125 C 6.535156 -0.5 6.117188 -0.28125 5.640625 -0.125 C 5.171875 0.0195312 4.679688 0.09375 4.171875 0.09375 C 3.460938 0.09375 2.820312 -0.0546875 2.25 -0.359375 C 1.6875 -0.671875 1.242188 -1.097656 0.921875 -1.640625 C 0.597656 -2.179688 0.4375 -2.789062 0.4375 -3.46875 C 0.4375 -4.15625 0.597656 -4.769531 0.921875 -5.3125 C 1.242188 -5.851562 1.691406 -6.273438 2.265625 -6.578125 C 2.835938 -6.890625 3.484375 -7.046875 4.203125 -7.046875 C 4.773438 -7.046875 5.300781 -6.945312 5.78125 -6.75 C 6.257812 -6.5625 6.660156 -6.28125 6.984375 -5.90625 L 6.171875 -5.125 C 5.640625 -5.644531 5 -5.90625 4.25 -5.90625 C 3.757812 -5.90625 3.320312 -5.800781 2.9375 -5.59375 C 2.5625 -5.394531 2.265625 -5.109375 2.046875 -4.734375 C 1.835938 -4.367188 1.734375 -3.945312 1.734375 -3.46875 C 1.734375 -3.007812 1.835938 -2.59375 2.046875 -2.21875 C 2.265625 -1.851562 2.5625 -1.5625 2.9375 -1.34375 C 3.320312 -1.132812 3.757812 -1.03125 4.25 -1.03125 C 4.789062 -1.03125 5.265625 -1.148438 5.671875 -1.390625 Z M 5.671875 -3.546875 "/></g></g></g><g fill="#312f30" fill-opacity="1"><g transform="translate(139.932886, 286.994836)"><g><path d="M 0.9375 -6.9375 L 2.21875 -6.9375 L 2.21875 -1.09375 L 5.859375 -1.09375 L 5.859375 0 L 0.9375 0 Z M 0.9375 -6.9375 "/></g></g></g><g fill="#312f30" fill-opacity="1"><g transform="translate(150.494195, 286.994836)"><g><path d="M 4.171875 0.09375 C 3.460938 0.09375 2.820312 -0.0546875 2.25 -0.359375 C 1.6875 -0.671875 1.242188 -1.097656 0.921875 -1.640625 C 0.597656 -2.179688 0.4375 -2.789062 0.4375 -3.46875 C 0.4375 -4.144531 0.597656 -4.753906 0.921875 -5.296875 C 1.242188 -5.847656 1.6875 -6.273438 2.25 -6.578125 C 2.820312 -6.890625 3.460938 -7.046875 4.171875 -7.046875 C 4.878906 -7.046875 5.515625 -6.890625 6.078125 -6.578125 C 6.648438 -6.273438 7.097656 -5.851562 7.421875 -5.3125 C 7.753906 -4.769531 7.921875 -4.15625 7.921875 -3.46875 C 7.921875 -2.789062 7.753906 -2.179688 7.421875 -1.640625 C 7.097656 -1.097656 6.648438 -0.671875 6.078125 -0.359375 C 5.515625 -0.0546875 4.878906 0.09375 4.171875 0.09375 Z M 4.171875 -1.03125 C 4.640625 -1.03125 5.054688 -1.132812 5.421875 -1.34375 C 5.796875 -1.550781 6.085938 -1.84375 6.296875 -2.21875 C 6.515625 -2.59375 6.625 -3.007812 6.625 -3.46875 C 6.625 -3.9375 6.515625 -4.351562 6.296875 -4.71875 C 6.085938 -5.09375 5.796875 -5.382812 5.421875 -5.59375 C 5.054688 -5.800781 4.640625 -5.90625 4.171875 -5.90625 C 3.710938 -5.90625 3.296875 -5.800781 2.921875 -5.59375 C 2.554688 -5.382812 2.265625 -5.09375 2.046875 -4.71875 C 1.835938 -4.351562 1.734375 -3.9375 1.734375 -3.46875 C 1.734375 -3.007812 1.835938 -2.59375 2.046875 -2.21875 C 2.265625 -1.84375 2.554688 -1.550781 2.921875 -1.34375 C 3.296875 -1.132812 3.710938 -1.03125 4.171875 -1.03125 Z M 4.171875 -1.03125 "/></g></g></g><g fill="#312f30" fill-opacity="1"><g transform="translate(163.465272, 286.994836)"><g><path d="M 5.859375 -3.609375 C 6.234375 -3.484375 6.535156 -3.273438 6.765625 -2.984375 C 6.992188 -2.691406 7.109375 -2.328125 7.109375 -1.890625 C 7.109375 -1.285156 6.875 -0.816406 6.40625 -0.484375 C 5.945312 -0.160156 5.273438 0 4.390625 0 L 0.9375 0 L 0.9375 -6.9375 L 4.1875 -6.9375 C 5.007812 -6.9375 5.640625 -6.773438 6.078125 -6.453125 C 6.523438 -6.140625 6.75 -5.703125 6.75 -5.140625 C 6.75 -4.796875 6.664062 -4.488281 6.5 -4.21875 C 6.34375 -3.957031 6.128906 -3.753906 5.859375 -3.609375 Z M 2.21875 -5.9375 L 2.21875 -4.015625 L 4.046875 -4.015625 C 4.492188 -4.015625 4.835938 -4.09375 5.078125 -4.25 C 5.328125 -4.414062 5.453125 -4.65625 5.453125 -4.96875 C 5.453125 -5.289062 5.328125 -5.53125 5.078125 -5.6875 C 4.835938 -5.851562 4.492188 -5.9375 4.046875 -5.9375 Z M 4.3125 -1.015625 C 5.300781 -1.015625 5.796875 -1.347656 5.796875 -2.015625 C 5.796875 -2.679688 5.300781 -3.015625 4.3125 -3.015625 L 2.21875 -3.015625 L 2.21875 -1.015625 Z M 4.3125 -1.015625 "/></g></g></g><g fill="#312f30" fill-opacity="1"><g transform="translate(175.633096, 286.994836)"><g><path d="M 5.4375 -1.609375 L 1.96875 -1.609375 L 1.28125 0 L -0.046875 0 L 3.078125 -6.9375 L 4.34375 -6.9375 L 7.484375 0 L 6.125 0 Z M 5.015625 -2.625 L 3.703125 -5.65625 L 2.40625 -2.625 Z M 5.015625 -2.625 "/></g></g></g><g fill="#312f30" fill-opacity="1"><g transform="translate(187.681923, 286.994836)"><g><path d="M 0.9375 -6.9375 L 2.21875 -6.9375 L 2.21875 -1.09375 L 5.859375 -1.09375 L 5.859375 0 L 0.9375 0 Z M 0.9375 -6.9375 "/></g></g></g><g fill="#312f30" fill-opacity="1"><g transform="translate(198.243234, 286.994836)"><g/></g></g><g fill="#312f30" fill-opacity="1"><g transform="translate(205.601438, 286.994836)"><g><path d="M 2.34375 -5.859375 L 0.046875 -5.859375 L 0.046875 -6.9375 L 5.9375 -6.9375 L 5.9375 -5.859375 L 3.625 -5.859375 L 3.625 0 L 2.34375 0 Z M 2.34375 -5.859375 "/></g></g></g><g fill="#312f30" fill-opacity="1"><g transform="translate(216.192496, 286.994836)"><g><path d="M 6.140625 -1.078125 L 6.140625 0 L 0.9375 0 L 0.9375 -6.9375 L 6 -6.9375 L 6 -5.859375 L 2.21875 -5.859375 L 2.21875 -4.0625 L 5.578125 -4.0625 L 5.578125 -3 L 2.21875 -3 L 2.21875 -1.078125 Z M 6.140625 -1.078125 "/></g></g></g><g fill="#312f30" fill-opacity="1"><g transform="translate(227.457897, 286.994836)"><g><path d="M 4.140625 0.09375 C 3.441406 0.09375 2.8125 -0.0546875 2.25 -0.359375 C 1.6875 -0.671875 1.242188 -1.097656 0.921875 -1.640625 C 0.597656 -2.179688 0.4375 -2.789062 0.4375 -3.46875 C 0.4375 -4.15625 0.597656 -4.769531 0.921875 -5.3125 C 1.242188 -5.851562 1.6875 -6.273438 2.25 -6.578125 C 2.820312 -6.890625 3.457031 -7.046875 4.15625 -7.046875 C 4.726562 -7.046875 5.25 -6.945312 5.71875 -6.75 C 6.1875 -6.550781 6.582031 -6.265625 6.90625 -5.890625 L 6.078125 -5.09375 C 5.566406 -5.632812 4.945312 -5.90625 4.21875 -5.90625 C 3.738281 -5.90625 3.3125 -5.800781 2.9375 -5.59375 C 2.5625 -5.382812 2.265625 -5.09375 2.046875 -4.71875 C 1.835938 -4.351562 1.734375 -3.9375 1.734375 -3.46875 C 1.734375 -3 1.835938 -2.578125 2.046875 -2.203125 C 2.265625 -1.835938 2.5625 -1.550781 2.9375 -1.34375 C 3.3125 -1.132812 3.738281 -1.03125 4.21875 -1.03125 C 4.945312 -1.03125 5.566406 -1.304688 6.078125 -1.859375 L 6.90625 -1.0625 C 6.582031 -0.6875 6.179688 -0.398438 5.703125 -0.203125 C 5.234375 -0.00390625 4.710938 0.09375 4.140625 0.09375 Z M 4.140625 0.09375 "/></g></g></g><g fill="#312f30" fill-opacity="1"><g transform="translate(239.288553, 286.994836)"><g><path d="M 7.109375 -6.9375 L 7.109375 0 L 5.8125 0 L 5.8125 -2.96875 L 2.21875 -2.96875 L 2.21875 0 L 0.9375 0 L 0.9375 -6.9375 L 2.21875 -6.9375 L 2.21875 -4.078125 L 5.8125 -4.078125 L 5.8125 -6.9375 Z M 7.109375 -6.9375 "/></g></g></g></svg>