<svg xmlns="http://www.w3.org/2000/svg" xmlns:xlink="http://www.w3.org/1999/xlink" width="500" zoomAndPan="magnify" viewBox="0 0 375 374.999991" height="500" preserveAspectRatio="xMidYMid meet" version="1.0"><defs><g/></defs><path fill="#f68712" d="M 155.476562 67.480469 C 151.46875 70.003906 146.292969 72.421875 139.742188 74.609375 C 125.203125 79.457031 109.886719 77.039062 95.332031 80.910156 C 91.652344 81.894531 86.179688 84.507812 82.859375 87.933594 C 82.859375 87.933594 93.011719 68.675781 122.589844 57.175781 C 125.261719 56.136719 128.085938 55.160156 131.082031 54.269531 C 149.25 48.851562 144.128906 41.230469 136.179688 43.472656 C 136.179688 43.472656 142.761719 38.832031 152.101562 39.1875 C 166.171875 39.722656 175.558594 54.855469 155.476562 67.480469 " fill-opacity="1" fill-rule="nonzero"/><path fill="#f68712" d="M 227.742188 67.601562 C 224.816406 79.925781 215.851562 90.753906 205.730469 99.449219 C 194.523438 109.082031 181.898438 116.101562 174.496094 119.640625 C 126.210938 142.753906 77.75 134.089844 72 157.65625 C 72 157.65625 60.507812 136.464844 87.617188 121.453125 C 102.542969 113.1875 110.910156 108.910156 145.753906 96.265625 C 156.285156 92.445312 169.128906 87.78125 180.5 80.316406 C 188.246094 75.226562 195.308594 68.835938 200.492188 60.519531 C 209.453125 46.125 198.140625 31.839844 177.667969 30.632812 C 208.851562 28.886719 233.035156 45.289062 227.742188 67.601562 " fill-opacity="1" fill-rule="nonzero"/><path fill="#3871c1" d="M 245.4375 153.152344 C 235.386719 160.914062 222.964844 168.242188 208.042969 174.84375 C 150.691406 200.21875 103.050781 194.664062 91.953125 218.929688 C 91.953125 218.929688 76.773438 187.105469 129.703125 169.859375 C 176.246094 154.703125 208.285156 140.109375 229.34375 126.210938 C 275.269531 95.90625 268.960938 68.878906 246.886719 46.375 C 248.203125 47.171875 249.464844 47.949219 250.605469 48.675781 C 288 74.917969 290.453125 118.394531 245.4375 153.152344 " fill-opacity="1" fill-rule="nonzero"/><path fill="#40b93c" d="M 291.4375 175.929688 C 284.894531 187.367188 275.304688 196.925781 263.824219 205.015625 C 250.046875 214.71875 233.535156 222.308594 216.273438 228.496094 C 193.601562 236.621094 137.910156 243.382812 136.113281 256.371094 C 136.113281 256.371094 129.011719 243.15625 154.203125 230.285156 C 183.125 215.507812 213.566406 203.96875 242.273438 188.742188 C 245.074219 187.257812 250.453125 184.546875 256.769531 180.527344 C 276.390625 168.058594 305.089844 143.042969 293.898438 103.351562 C 294.308594 103.976562 314.761719 135.179688 291.4375 175.929688 " fill-opacity="1" fill-rule="nonzero"/><path fill="#40b93c" d="M 293.527344 187.953125 C 293.527344 187.953125 292.371094 205.058594 268.242188 227.132812 C 268.179688 227.195312 268.113281 227.253906 268.046875 227.316406 C 255.128906 239.089844 239.566406 247.601562 226.285156 253.183594 C 205.839844 261.777344 187.820312 261.929688 187.632812 261.984375 C 210.171875 254.929688 243.089844 236.296875 266.53125 217.5625 C 279.679688 207.050781 289.851562 196.503906 293.527344 187.953125 " fill-opacity="1" fill-rule="nonzero"/><path fill="#fbc108" d="M 155.476562 67.480469 C 144.042969 62.71875 132.878906 59.429688 122.589844 57.175781 C 125.261719 56.136719 128.085938 55.160156 131.082031 54.269531 C 149.25 48.851562 144.128906 41.230469 136.179688 43.472656 C 136.179688 43.472656 142.761719 38.832031 152.101562 39.1875 C 166.171875 39.722656 175.558594 54.855469 155.476562 67.480469 " fill-opacity="1" fill-rule="nonzero"/><path fill="#fbc108" d="M 227.742188 67.601562 C 224.816406 79.925781 215.851562 90.753906 205.730469 99.449219 C 197.566406 91.953125 189.078125 85.636719 180.5 80.316406 C 188.246094 75.226562 195.308594 68.835938 200.492188 60.519531 C 209.453125 46.125 198.140625 31.839844 177.667969 30.632812 C 208.851562 28.886719 233.035156 45.289062 227.742188 67.601562 " fill-opacity="1" fill-rule="nonzero"/><path fill="#00adef" d="M 245.4375 153.152344 C 240.53125 143.234375 235.128906 134.28125 229.34375 126.210938 C 275.269531 95.90625 268.960938 68.878906 246.886719 46.375 C 248.203125 47.171875 249.464844 47.949219 250.605469 48.675781 C 288 74.917969 290.453125 118.394531 245.4375 153.152344 " fill-opacity="1" fill-rule="nonzero"/><path fill="#80cc28" d="M 293.527344 187.953125 C 293.527344 187.953125 292.371094 205.058594 268.242188 227.132812 C 267.710938 223.882812 267.140625 220.691406 266.53125 217.5625 C 279.679688 207.050781 289.851562 196.503906 293.527344 187.953125 " fill-opacity="1" fill-rule="nonzero"/><path fill="#80cc28" d="M 263.824219 205.015625 C 261.757812 196.371094 259.394531 188.21875 256.769531 180.527344 C 276.390625 168.058594 305.089844 143.042969 293.898438 103.351562 C 294.308594 103.976562 314.761719 135.179688 291.4375 175.929688 C 284.894531 187.367188 275.304688 196.925781 263.824219 205.015625 " fill-opacity="1" fill-rule="nonzero"/><g fill="#000000" fill-opacity="1"><g transform="translate(43.958151, 316.632513)"><g><path d="M 25.546875 -14.734375 L 28.53125 -14.734375 L 28.53125 -3.5 C 27.15625 -2.289062 25.523438 -1.363281 23.640625 -0.71875 C 21.765625 -0.0703125 19.789062 0.25 17.71875 0.25 C 14.769531 0.25 12.117188 -0.394531 9.765625 -1.6875 C 7.410156 -2.976562 5.554688 -4.765625 4.203125 -7.046875 C 2.859375 -9.335938 2.1875 -11.898438 2.1875 -14.734375 C 2.1875 -17.566406 2.859375 -20.125 4.203125 -22.40625 C 5.554688 -24.6875 7.410156 -26.472656 9.765625 -27.765625 C 12.117188 -29.054688 14.78125 -29.703125 17.75 -29.703125 C 20 -29.703125 22.0625 -29.34375 23.9375 -28.625 C 25.820312 -27.914062 27.410156 -26.859375 28.703125 -25.453125 L 26.765625 -23.484375 C 24.429688 -25.785156 21.472656 -26.9375 17.890625 -26.9375 C 15.503906 -26.9375 13.347656 -26.410156 11.421875 -25.359375 C 9.503906 -24.304688 8 -22.84375 6.90625 -20.96875 C 5.8125 -19.101562 5.265625 -17.023438 5.265625 -14.734375 C 5.265625 -12.429688 5.8125 -10.351562 6.90625 -8.5 C 8 -6.644531 9.5 -5.1875 11.40625 -4.125 C 13.3125 -3.0625 15.457031 -2.53125 17.84375 -2.53125 C 20.875 -2.53125 23.441406 -3.285156 25.546875 -4.796875 Z M 25.546875 -14.734375 "/></g></g></g><g fill="#000000" fill-opacity="1"><g transform="translate(74.294104, 316.632513)"><g><path d="M 4.796875 -29.453125 L 7.90625 -29.453125 L 7.90625 -2.6875 L 24.40625 -2.6875 L 24.40625 0 L 4.796875 0 Z M 4.796875 -29.453125 "/></g></g></g><g fill="#000000" fill-opacity="1"><g transform="translate(96.888118, 316.632513)"><g><path d="M 17.671875 0.25 C 14.753906 0.25 12.109375 -0.398438 9.734375 -1.703125 C 7.367188 -3.003906 5.519531 -4.789062 4.1875 -7.0625 C 2.851562 -9.34375 2.1875 -11.898438 2.1875 -14.734375 C 2.1875 -17.566406 2.851562 -20.117188 4.1875 -22.390625 C 5.519531 -24.660156 7.367188 -26.445312 9.734375 -27.75 C 12.109375 -29.050781 14.753906 -29.703125 17.671875 -29.703125 C 20.585938 -29.703125 23.21875 -29.054688 25.5625 -27.765625 C 27.90625 -26.472656 29.75 -24.6875 31.09375 -22.40625 C 32.4375 -20.125 33.109375 -17.566406 33.109375 -14.734375 C 33.109375 -11.898438 32.4375 -9.335938 31.09375 -7.046875 C 29.75 -4.765625 27.90625 -2.976562 25.5625 -1.6875 C 23.21875 -0.394531 20.585938 0.25 17.671875 0.25 Z M 17.671875 -2.53125 C 20.003906 -2.53125 22.109375 -3.054688 23.984375 -4.109375 C 25.859375 -5.160156 27.328125 -6.617188 28.390625 -8.484375 C 29.460938 -10.347656 30 -12.429688 30 -14.734375 C 30 -17.023438 29.460938 -19.101562 28.390625 -20.96875 C 27.328125 -22.84375 25.859375 -24.304688 23.984375 -25.359375 C 22.109375 -26.410156 20.003906 -26.9375 17.671875 -26.9375 C 15.347656 -26.9375 13.238281 -26.410156 11.34375 -25.359375 C 9.445312 -24.304688 7.957031 -22.84375 6.875 -20.96875 C 5.800781 -19.101562 5.265625 -17.023438 5.265625 -14.734375 C 5.265625 -12.429688 5.800781 -10.347656 6.875 -8.484375 C 7.957031 -6.617188 9.445312 -5.160156 11.34375 -4.109375 C 13.238281 -3.054688 15.347656 -2.53125 17.671875 -2.53125 Z M 17.671875 -2.53125 "/></g></g></g><g fill="#000000" fill-opacity="1"><g transform="translate(130.001081, 316.632513)"><g><path d="M 23.359375 -15.1875 C 25.285156 -14.769531 26.773438 -13.9375 27.828125 -12.6875 C 28.878906 -11.4375 29.40625 -9.832031 29.40625 -7.875 C 29.40625 -5.34375 28.472656 -3.394531 26.609375 -2.03125 C 24.742188 -0.675781 21.988281 0 18.34375 0 L 4.796875 0 L 4.796875 -29.453125 L 17.5 -29.453125 C 20.78125 -29.453125 23.328125 -28.789062 25.140625 -27.46875 C 26.953125 -26.15625 27.859375 -24.289062 27.859375 -21.875 C 27.859375 -20.25 27.457031 -18.867188 26.65625 -17.734375 C 25.851562 -16.597656 24.753906 -15.75 23.359375 -15.1875 Z M 7.90625 -26.890625 L 7.90625 -16.203125 L 17.296875 -16.203125 C 19.679688 -16.203125 21.515625 -16.65625 22.796875 -17.5625 C 24.085938 -18.476562 24.734375 -19.804688 24.734375 -21.546875 C 24.734375 -23.285156 24.085938 -24.609375 22.796875 -25.515625 C 21.515625 -26.429688 19.679688 -26.890625 17.296875 -26.890625 Z M 18.296875 -2.5625 C 20.941406 -2.5625 22.9375 -3.007812 24.28125 -3.90625 C 25.625 -4.8125 26.296875 -6.21875 26.296875 -8.125 C 26.296875 -11.800781 23.628906 -13.640625 18.296875 -13.640625 L 7.90625 -13.640625 L 7.90625 -2.5625 Z M 18.296875 -2.5625 "/></g></g></g><g fill="#000000" fill-opacity="1"><g transform="translate(159.5376, 316.632513)"><g><path d="M 23.265625 -7.875 L 6.859375 -7.875 L 3.328125 0 L 0.078125 0 L 13.546875 -29.453125 L 16.625 -29.453125 L 30.078125 0 L 26.796875 0 Z M 22.140625 -10.390625 L 15.0625 -26.21875 L 8 -10.390625 Z M 22.140625 -10.390625 "/></g></g></g><g fill="#000000" fill-opacity="1"><g transform="translate(187.51731, 316.632513)"><g><path d="M 4.796875 -29.453125 L 7.90625 -29.453125 L 7.90625 -2.6875 L 24.40625 -2.6875 L 24.40625 0 L 4.796875 0 Z M 4.796875 -29.453125 "/></g></g></g><g fill="#000000" fill-opacity="1"><g transform="translate(210.117412, 316.632513)"><g/></g></g><g fill="#323232" fill-opacity="1"><g transform="translate(103.344033, 343.859952)"><g><path d="M 9.359375 0 L 7.8125 0 L 2.8125 -6.71875 L 2.8125 0 L 1.234375 0 L 1.234375 -9.375 L 2.78125 -9.375 L 7.8125 -2.640625 L 7.8125 -9.375 L 9.359375 -9.375 Z M 9.359375 0 "/></g></g></g><g fill="#323232" fill-opacity="1"><g transform="translate(122.041588, 343.859952)"><g><path d="M 7.921875 -7.953125 L 2.8125 -7.953125 L 2.8125 -5.421875 L 7.390625 -5.421875 L 7.390625 -4 L 2.8125 -4 L 2.8125 -1.421875 L 8.09375 -1.421875 L 8.09375 0 L 1.234375 0 L 1.234375 -9.375 L 7.921875 -9.375 Z M 7.921875 -7.953125 "/></g></g></g><g fill="#323232" fill-opacity="1"><g transform="translate(138.918897, 343.859952)"><g><path d="M 7.625 -7.953125 L 4.65625 -7.953125 L 4.65625 0 L 3.078125 0 L 3.078125 -7.953125 L 0.125 -7.953125 L 0.125 -9.375 L 7.625 -9.375 Z M 7.625 -7.953125 "/></g></g></g><g fill="#323232" fill-opacity="1"><g transform="translate(154.765621, 343.859952)"><g><path d="M 10.875 0 L 9.25 0 L 7.03125 -7.3125 L 4.78125 0 L 3.140625 0 L 0.046875 -9.375 L 1.734375 -9.375 L 4.015625 -1.75 L 6.28125 -9.359375 L 7.828125 -9.375 L 10.109375 -1.75 L 12.375 -9.375 L 14 -9.375 Z M 10.875 0 "/></g></g></g><g fill="#323232" fill-opacity="1"><g transform="translate(176.728888, 343.859952)"><g><path d="M 1.890625 -8.046875 C 2.847656 -8.953125 4.023438 -9.40625 5.421875 -9.40625 C 6.828125 -9.40625 8.003906 -8.953125 8.953125 -8.046875 C 9.910156 -7.140625 10.390625 -6.015625 10.390625 -4.671875 C 10.390625 -3.335938 9.910156 -2.210938 8.953125 -1.296875 C 8.003906 -0.390625 6.828125 0.0625 5.421875 0.0625 C 4.023438 0.0625 2.847656 -0.390625 1.890625 -1.296875 C 0.929688 -2.210938 0.453125 -3.335938 0.453125 -4.671875 C 0.453125 -6.015625 0.929688 -7.140625 1.890625 -8.046875 Z M 5.4375 -8 C 4.507812 -8 3.710938 -7.675781 3.046875 -7.03125 C 2.390625 -6.394531 2.0625 -5.613281 2.0625 -4.6875 C 2.0625 -3.757812 2.394531 -2.972656 3.0625 -2.328125 C 3.726562 -1.679688 4.519531 -1.359375 5.4375 -1.359375 C 6.351562 -1.359375 7.132812 -1.679688 7.78125 -2.328125 C 8.4375 -2.972656 8.765625 -3.757812 8.765625 -4.6875 C 8.765625 -5.613281 8.4375 -6.394531 7.78125 -7.03125 C 7.132812 -7.675781 6.351562 -8 5.4375 -8 Z M 5.4375 -8 "/></g></g></g><g fill="#323232" fill-opacity="1"><g transform="translate(195.667345, 343.859952)"><g><path d="M 7.171875 0 L 5.46875 -2.84375 C 5.375 -2.832031 5.226562 -2.828125 5.03125 -2.828125 L 2.8125 -2.828125 L 2.8125 0 L 1.234375 0 L 1.234375 -9.375 L 5.03125 -9.375 C 6.226562 -9.375 7.15625 -9.09375 7.8125 -8.53125 C 8.476562 -7.976562 8.8125 -7.191406 8.8125 -6.171875 C 8.8125 -5.421875 8.644531 -4.785156 8.3125 -4.265625 C 7.976562 -3.753906 7.5 -3.378906 6.875 -3.140625 L 8.96875 0 Z M 2.8125 -4.25 L 5.03125 -4.25 C 6.550781 -4.25 7.3125 -4.878906 7.3125 -6.140625 C 7.3125 -7.347656 6.550781 -7.953125 5.03125 -7.953125 L 2.8125 -7.953125 Z M 2.8125 -4.25 "/></g></g></g><g fill="#323232" fill-opacity="1"><g transform="translate(213.441385, 343.859952)"><g><path d="M 7.484375 0 L 4.40625 -4.140625 L 2.8125 -2.390625 L 2.8125 0 L 1.234375 0 L 1.234375 -9.375 L 2.8125 -9.375 L 2.8125 -4.53125 L 7.28125 -9.375 L 9.140625 -9.375 L 5.515625 -5.375 L 9.390625 0 Z M 7.484375 0 "/></g></g></g><g fill="#323232" fill-opacity="1"><g transform="translate(231.148508, 343.859952)"><g><path d="M 2.8125 0 L 1.234375 0 L 1.234375 -9.375 L 2.8125 -9.375 Z M 2.8125 0 "/></g></g></g><g fill="#323232" fill-opacity="1"><g transform="translate(243.287841, 343.859952)"><g><path d="M 9.359375 0 L 7.8125 0 L 2.8125 -6.71875 L 2.8125 0 L 1.234375 0 L 1.234375 -9.375 L 2.78125 -9.375 L 7.8125 -2.640625 L 7.8125 -9.375 L 9.359375 -9.375 Z M 9.359375 0 "/></g></g></g><g fill="#323232" fill-opacity="1"><g transform="translate(261.985399, 343.859952)"><g><path d="M 7.640625 -4.609375 L 9.03125 -4.609375 L 9.03125 -1.15625 C 8.539062 -0.789062 7.96875 -0.492188 7.3125 -0.265625 C 6.65625 -0.046875 6.015625 0.0625 5.390625 0.0625 C 4.003906 0.0625 2.832031 -0.390625 1.875 -1.296875 C 0.925781 -2.210938 0.453125 -3.335938 0.453125 -4.671875 C 0.453125 -6.015625 0.929688 -7.140625 1.890625 -8.046875 C 2.859375 -8.953125 4.054688 -9.40625 5.484375 -9.40625 C 6.140625 -9.40625 6.785156 -9.285156 7.421875 -9.046875 C 8.054688 -8.816406 8.609375 -8.5 9.078125 -8.09375 L 8.1875 -6.9375 C 7.414062 -7.644531 6.515625 -8 5.484375 -8 C 4.523438 -8 3.710938 -7.675781 3.046875 -7.03125 C 2.390625 -6.394531 2.0625 -5.613281 2.0625 -4.6875 C 2.0625 -3.75 2.394531 -2.957031 3.0625 -2.3125 C 3.726562 -1.675781 4.535156 -1.359375 5.484375 -1.359375 C 6.210938 -1.359375 6.929688 -1.570312 7.640625 -2 Z M 7.640625 -4.609375 "/></g></g></g><g fill="#1c9ae1" fill-opacity="1"><g transform="translate(221.156973, 316.632513)"><g><path d="M 9.59375 -23.90625 L 0.171875 -23.90625 L 0.171875 -29.453125 L 25.828125 -29.453125 L 25.828125 -23.90625 L 16.40625 -23.90625 L 16.40625 0 L 9.59375 0 Z M 9.59375 -23.90625 "/></g></g></g><g fill="#1c9ae1" fill-opacity="1"><g transform="translate(244.971188, 316.632513)"><g><path d="M 26.296875 -5.46875 L 26.296875 0 L 3.5 0 L 3.5 -29.453125 L 25.75 -29.453125 L 25.75 -23.984375 L 10.265625 -23.984375 L 10.265625 -17.59375 L 23.9375 -17.59375 L 23.9375 -12.28125 L 10.265625 -12.28125 L 10.265625 -5.46875 Z M 26.296875 -5.46875 "/></g></g></g><g fill="#1c9ae1" fill-opacity="1"><g transform="translate(271.01541, 316.632513)"><g><path d="M 17.59375 0.5 C 14.59375 0.5 11.878906 -0.148438 9.453125 -1.453125 C 7.023438 -2.753906 5.113281 -4.5625 3.71875 -6.875 C 2.332031 -9.1875 1.640625 -11.804688 1.640625 -14.734375 C 1.640625 -17.648438 2.332031 -20.265625 3.71875 -22.578125 C 5.113281 -24.890625 7.023438 -26.695312 9.453125 -28 C 11.878906 -29.300781 14.601562 -29.953125 17.625 -29.953125 C 20.175781 -29.953125 22.484375 -29.503906 24.546875 -28.609375 C 26.609375 -27.710938 28.34375 -26.421875 29.75 -24.734375 L 25.375 -20.703125 C 23.382812 -23.003906 20.914062 -24.15625 17.96875 -24.15625 C 16.144531 -24.15625 14.515625 -23.753906 13.078125 -22.953125 C 11.648438 -22.148438 10.535156 -21.035156 9.734375 -19.609375 C 8.941406 -18.179688 8.546875 -16.554688 8.546875 -14.734375 C 8.546875 -12.910156 8.941406 -11.28125 9.734375 -9.84375 C 10.535156 -8.414062 11.648438 -7.300781 13.078125 -6.5 C 14.515625 -5.695312 16.144531 -5.296875 17.96875 -5.296875 C 20.914062 -5.296875 23.382812 -6.460938 25.375 -8.796875 L 29.75 -4.75 C 28.34375 -3.039062 26.601562 -1.738281 24.53125 -0.84375 C 22.457031 0.0507812 20.144531 0.5 17.59375 0.5 Z M 17.59375 0.5 "/></g></g></g><g fill="#1c9ae1" fill-opacity="1"><g transform="translate(299.668341, 316.632513)"><g><path d="M 30.5 -29.453125 L 30.5 0 L 23.6875 0 L 23.6875 -12.078125 L 10.3125 -12.078125 L 10.3125 0 L 3.5 0 L 3.5 -29.453125 L 10.3125 -29.453125 L 10.3125 -17.84375 L 23.6875 -17.84375 L 23.6875 -29.453125 Z M 30.5 -29.453125 "/></g></g></g></svg>