<svg xmlns="http://www.w3.org/2000/svg" xmlns:xlink="http://www.w3.org/1999/xlink" width="500" zoomAndPan="magnify" viewBox="0 0 375 374.999991" height="500" preserveAspectRatio="xMidYMid meet" version="1.0"><defs><g/><clipPath id="02416ed92d"><path d="M 53.535156 53.203125 L 274 53.203125 L 274 321.703125 L 53.535156 321.703125 Z M 53.535156 53.203125 " clip-rule="nonzero"/></clipPath><clipPath id="c39befd4c1"><path d="M 145 80 L 321.285156 80 L 321.285156 295 L 145 295 Z M 145 80 " clip-rule="nonzero"/></clipPath><clipPath id="91b4c71113"><path d="M 42.460938 154.261719 L 332.539062 154.261719 L 332.539062 234.035156 L 42.460938 234.035156 Z M 42.460938 154.261719 " clip-rule="nonzero"/></clipPath></defs><g clip-path="url(#02416ed92d)"><path fill="#163b6d" d="M 215.296875 305.867188 C 149.917969 305.867188 96.917969 252.851562 96.917969 187.453125 C 96.917969 122.050781 149.917969 69.035156 215.296875 69.035156 C 236.511719 69.035156 256.40625 74.644531 273.625 84.421875 C 250.347656 64.96875 220.382812 53.246094 187.675781 53.246094 C 113.578125 53.246094 53.511719 113.332031 53.511719 187.453125 C 53.511719 261.570312 113.578125 321.65625 187.675781 321.65625 C 220.382812 321.65625 250.34375 309.933594 273.625 290.480469 C 256.40625 300.257812 236.511719 305.867188 215.296875 305.867188 " fill-opacity="1" fill-rule="nonzero"/></g><g clip-path="url(#c39befd4c1)"><path fill="#4f4c4c" d="M 192.035156 282.019531 C 244.246094 282.019531 286.574219 239.679688 286.574219 187.453125 C 286.574219 135.222656 244.246094 92.886719 192.035156 92.886719 C 175.09375 92.886719 159.207031 97.367188 145.457031 105.171875 C 164.046875 89.636719 187.972656 80.277344 214.09375 80.277344 C 273.269531 80.277344 321.234375 128.261719 321.234375 187.453125 C 321.234375 246.644531 273.269531 294.625 214.09375 294.625 C 187.972656 294.625 164.046875 285.265625 145.457031 269.730469 C 159.207031 277.535156 175.09375 282.019531 192.035156 282.019531 " fill-opacity="1" fill-rule="nonzero"/></g><g clip-path="url(#91b4c71113)"><path fill="#ffffff" d="M 42.460938 154.261719 L 332.574219 154.261719 L 332.574219 234.035156 L 42.460938 234.035156 Z M 42.460938 154.261719 " fill-opacity="1" fill-rule="nonzero"/></g><g fill="#163b6d" fill-opacity="1"><g transform="translate(46.669806, 212.279854)"><g><path d="M 2.953125 -0.53125 C 3.878906 -0.53125 4.675781 -0.863281 5.34375 -1.53125 C 6.007812 -2.195312 6.359375 -2.992188 6.390625 -3.921875 L 6.390625 -33.71875 C 6.359375 -34.65625 6.007812 -35.445312 5.34375 -36.09375 C 4.675781 -36.738281 3.878906 -37.0625 2.953125 -37.0625 L 2.25 -37.0625 L 2.25 -37.59375 L 18.578125 -37.59375 L 18.53125 -37.0625 L 17.890625 -37.0625 C 16.953125 -37.0625 16.144531 -36.738281 15.46875 -36.09375 C 14.789062 -35.445312 14.453125 -34.65625 14.453125 -33.71875 L 14.453125 -3.921875 C 14.453125 -2.992188 14.789062 -2.195312 15.46875 -1.53125 C 16.144531 -0.863281 16.953125 -0.53125 17.890625 -0.53125 L 18.53125 -0.53125 L 18.578125 0 L 2.25 0 L 2.25 -0.53125 Z M 2.953125 -0.53125 "/></g></g></g><g fill="#163b6d" fill-opacity="1"><g transform="translate(67.397481, 212.279854)"><g><path d="M 43.875 -37.0625 C 42.625 -37.0625 41.675781 -36.519531 41.03125 -35.4375 C 40.738281 -34.976562 40.578125 -34.441406 40.546875 -33.828125 L 40.546875 -6.125 C 40.546875 -3.726562 40.707031 -1.703125 41.03125 -0.046875 L 41.1875 0.75 L 40.703125 0.75 L 13.59375 -25.078125 L 13.59375 -3.765625 C 13.59375 -2.867188 13.910156 -2.101562 14.546875 -1.46875 C 15.191406 -0.84375 15.960938 -0.53125 16.859375 -0.53125 L 17.890625 -0.53125 L 17.890625 0 L 1.609375 0 L 1.609375 -0.53125 L 2.578125 -0.53125 C 3.503906 -0.53125 4.289062 -0.84375 4.9375 -1.46875 C 5.582031 -2.101562 5.90625 -2.882812 5.90625 -3.8125 L 5.90625 -31.6875 C 5.90625 -34.050781 5.742188 -36.019531 5.421875 -37.59375 L 5.3125 -38.390625 L 5.796875 -38.390625 L 32.921875 -12.5625 L 32.921875 -33.78125 C 32.878906 -34.707031 32.535156 -35.484375 31.890625 -36.109375 C 31.253906 -36.742188 30.488281 -37.0625 29.59375 -37.0625 L 28.625 -37.0625 L 28.625 -37.59375 L 44.890625 -37.59375 L 44.890625 -37.0625 Z M 43.875 -37.0625 "/></g></g></g><g fill="#163b6d" fill-opacity="1"><g transform="translate(113.8468, 212.279854)"><g><path d="M 22.71875 0.75 C 16.59375 0.75 11.675781 -1.007812 7.96875 -4.53125 C 4.269531 -8.0625 2.421875 -12.820312 2.421875 -18.8125 C 2.421875 -24.8125 4.269531 -29.566406 7.96875 -33.078125 C 11.675781 -36.585938 16.695312 -38.34375 23.03125 -38.34375 C 25.894531 -38.34375 28.671875 -38.0625 31.359375 -37.5 C 34.046875 -36.945312 36.210938 -36.257812 37.859375 -35.4375 L 37.96875 -26.203125 L 37.484375 -26.203125 C 36.554688 -29.679688 34.960938 -32.195312 32.703125 -33.75 C 30.453125 -35.3125 27.769531 -36.09375 24.65625 -36.09375 C 20.320312 -36.09375 16.988281 -34.539062 14.65625 -31.4375 C 12.332031 -28.34375 11.171875 -24.101562 11.171875 -18.71875 C 11.171875 -13.332031 12.234375 -9.113281 14.359375 -6.0625 C 16.492188 -3.019531 19.515625 -1.5 23.421875 -1.5 C 26.242188 -1.5 28.601562 -2.304688 30.5 -3.921875 C 31.4375 -4.742188 32.117188 -5.707031 32.546875 -6.8125 L 32.546875 -15.03125 C 32.546875 -15.820312 32.300781 -16.421875 31.8125 -16.828125 C 31.332031 -17.242188 30.644531 -17.453125 29.75 -17.453125 L 28.890625 -17.453125 L 28.890625 -17.984375 L 43.984375 -17.984375 L 43.984375 -17.453125 L 43.171875 -17.453125 C 42.316406 -17.453125 41.65625 -17.242188 41.1875 -16.828125 C 40.71875 -16.421875 40.484375 -15.820312 40.484375 -15.03125 L 40.484375 -6.171875 C 39.085938 -4.347656 36.78125 -2.738281 33.5625 -1.34375 C 30.34375 0.0507812 26.726562 0.75 22.71875 0.75 Z M 22.71875 0.75 "/></g></g></g><g fill="#163b6d" fill-opacity="1"><g transform="translate(158.738864, 212.279854)"><g><path d="M 8.34375 -33.078125 C 12.15625 -36.585938 17.289062 -38.34375 23.75 -38.34375 C 30.21875 -38.34375 35.359375 -36.585938 39.171875 -33.078125 C 42.984375 -29.566406 44.890625 -24.804688 44.890625 -18.796875 C 44.890625 -12.785156 42.984375 -8.023438 39.171875 -4.515625 C 35.359375 -1.003906 30.21875 0.75 23.75 0.75 C 17.289062 0.75 12.15625 -1.003906 8.34375 -4.515625 C 4.53125 -8.023438 2.625 -12.785156 2.625 -18.796875 C 2.625 -24.804688 4.53125 -29.566406 8.34375 -33.078125 Z M 14.734375 -6.140625 C 16.941406 -3.046875 19.941406 -1.5 23.734375 -1.5 C 27.523438 -1.5 30.53125 -3.046875 32.75 -6.140625 C 34.976562 -9.242188 36.09375 -13.460938 36.09375 -18.796875 C 36.09375 -24.128906 34.976562 -28.34375 32.75 -31.4375 C 30.53125 -34.539062 27.523438 -36.09375 23.734375 -36.09375 C 19.941406 -36.09375 16.941406 -34.539062 14.734375 -31.4375 C 12.535156 -28.34375 11.4375 -24.128906 11.4375 -18.796875 C 11.4375 -13.460938 12.535156 -9.242188 14.734375 -6.140625 Z M 14.734375 -6.140625 "/></g></g></g><g fill="#163b6d" fill-opacity="1"><g transform="translate(205.886256, 212.279854)"><g><path d="M 42.421875 -37.0625 L 41.515625 -37.0625 C 40.765625 -37.0625 40.117188 -36.816406 39.578125 -36.328125 C 39.046875 -35.847656 38.757812 -35.25 38.71875 -34.53125 L 38.71875 -13.59375 C 38.71875 -9.1875 37.335938 -5.691406 34.578125 -3.109375 C 31.828125 -0.535156 28.050781 0.75 23.25 0.75 C 17.59375 0.75 13.257812 -0.507812 10.25 -3.03125 C 7.25 -5.550781 5.75 -9.050781 5.75 -13.53125 L 5.75 -34.375 C 5.707031 -35.445312 5.222656 -36.234375 4.296875 -36.734375 C 3.867188 -36.953125 3.40625 -37.0625 2.90625 -37.0625 L 2.046875 -37.0625 L 2.046875 -37.59375 L 17.5 -37.59375 L 17.5 -37.0625 L 16.640625 -37.0625 C 15.859375 -37.0625 15.195312 -36.816406 14.65625 -36.328125 C 14.125 -35.847656 13.835938 -35.234375 13.796875 -34.484375 L 13.796875 -13.96875 C 13.796875 -10.164062 14.726562 -7.15625 16.59375 -4.9375 C 18.457031 -2.71875 21.015625 -1.609375 24.265625 -1.609375 C 27.523438 -1.609375 30.101562 -2.65625 32 -4.75 C 33.90625 -6.84375 34.875 -9.679688 34.90625 -13.265625 L 34.90625 -34.484375 C 34.832031 -35.515625 34.347656 -36.265625 33.453125 -36.734375 C 33.023438 -36.953125 32.5625 -37.0625 32.0625 -37.0625 L 31.203125 -37.0625 L 31.203125 -37.59375 L 42.421875 -37.59375 Z M 42.421875 -37.0625 "/></g></g></g><g fill="#163b6d" fill-opacity="1"><g transform="translate(249.972826, 212.279854)"><g><path d="M 21.75 -37.59375 C 28.082031 -37.59375 33.09375 -35.910156 36.78125 -32.546875 C 40.46875 -29.179688 42.3125 -24.597656 42.3125 -18.796875 C 42.3125 -12.992188 40.46875 -8.410156 36.78125 -5.046875 C 33.09375 -1.679688 28.082031 0 21.75 0 L 2.25 0 L 2.25 -0.53125 L 2.953125 -0.53125 C 3.878906 -0.53125 4.675781 -0.863281 5.34375 -1.53125 C 6.007812 -2.195312 6.359375 -2.992188 6.390625 -3.921875 L 6.390625 -34 C 6.390625 -34.851562 6.039062 -35.578125 5.34375 -36.171875 C 4.644531 -36.765625 3.847656 -37.0625 2.953125 -37.0625 L 2.25 -37.0625 L 2.25 -37.59375 Z M 21.046875 -2.3125 C 23.628906 -2.3125 25.859375 -2.972656 27.734375 -4.296875 C 29.617188 -5.617188 31.0625 -7.523438 32.0625 -10.015625 C 33.0625 -12.503906 33.5625 -15.21875 33.5625 -18.15625 C 33.5625 -21.09375 33.265625 -23.585938 32.671875 -25.640625 C 32.085938 -27.703125 31.257812 -29.445312 30.1875 -30.875 C 27.957031 -33.851562 24.910156 -35.34375 21.046875 -35.34375 L 14.453125 -35.34375 L 14.453125 -2.3125 Z M 21.046875 -2.3125 "/></g></g></g><g fill="#163b6d" fill-opacity="1"><g transform="translate(294.435288, 212.279854)"><g><path d="M 2.953125 -0.53125 C 3.878906 -0.53125 4.675781 -0.863281 5.34375 -1.53125 C 6.007812 -2.195312 6.359375 -2.992188 6.390625 -3.921875 L 6.390625 -33.828125 C 6.316406 -34.765625 6.046875 -35.445312 5.578125 -35.875 C 4.722656 -36.664062 3.847656 -37.0625 2.953125 -37.0625 L 2.25 -37.0625 L 2.25 -37.59375 L 22.828125 -37.59375 C 24.578125 -37.59375 26.023438 -37.722656 27.171875 -37.984375 C 28.316406 -38.253906 29.015625 -38.445312 29.265625 -38.5625 L 29.265625 -29.15625 L 28.734375 -29.21875 L 28.734375 -29.8125 C 28.734375 -32.03125 27.910156 -33.601562 26.265625 -34.53125 C 25.472656 -35 24.539062 -35.25 23.46875 -35.28125 L 14.453125 -35.28125 L 14.453125 -19.65625 L 21.53125 -19.65625 C 22.851562 -19.6875 23.941406 -20.140625 24.796875 -21.015625 C 25.660156 -21.898438 26.09375 -22.988281 26.09375 -24.28125 L 26.09375 -24.75 L 26.640625 -24.75 L 26.640625 -12.359375 L 26.09375 -12.359375 L 26.09375 -12.78125 C 26.09375 -14.101562 25.671875 -15.191406 24.828125 -16.046875 C 23.992188 -16.910156 22.929688 -17.363281 21.640625 -17.40625 L 14.453125 -17.40625 L 14.453125 -2.3125 L 21.484375 -2.3125 C 24.097656 -2.3125 26.289062 -3.0625 28.0625 -4.5625 C 29.832031 -6.0625 31.144531 -8.191406 32 -10.953125 L 32.546875 -10.953125 L 30.078125 0 L 2.25 0 L 2.25 -0.53125 Z M 2.953125 -0.53125 "/></g></g></g><g fill="#4f4c4c" fill-opacity="1"><g transform="translate(131.380396, 241.378001)"><g><path d="M 0.65625 -6.25 C 0.65625 -7.46875 0.9375 -8.554688 1.5 -9.515625 C 2.070312 -10.484375 2.84375 -11.238281 3.8125 -11.78125 C 4.789062 -12.332031 5.859375 -12.609375 7.015625 -12.609375 C 8.335938 -12.609375 9.515625 -12.28125 10.546875 -11.625 C 11.585938 -10.976562 12.335938 -10.054688 12.796875 -8.859375 L 10.34375 -8.859375 C 10.019531 -9.515625 9.570312 -10.003906 9 -10.328125 C 8.425781 -10.648438 7.765625 -10.8125 7.015625 -10.8125 C 6.191406 -10.8125 5.457031 -10.625 4.8125 -10.25 C 4.164062 -9.882812 3.660156 -9.351562 3.296875 -8.65625 C 2.929688 -7.96875 2.75 -7.164062 2.75 -6.25 C 2.75 -5.332031 2.929688 -4.523438 3.296875 -3.828125 C 3.660156 -3.140625 4.164062 -2.609375 4.8125 -2.234375 C 5.457031 -1.859375 6.191406 -1.671875 7.015625 -1.671875 C 7.765625 -1.671875 8.425781 -1.828125 9 -2.140625 C 9.570312 -2.460938 10.019531 -2.953125 10.34375 -3.609375 L 12.796875 -3.609375 C 12.335938 -2.421875 11.585938 -1.503906 10.546875 -0.859375 C 9.515625 -0.210938 8.335938 0.109375 7.015625 0.109375 C 5.847656 0.109375 4.78125 -0.160156 3.8125 -0.703125 C 2.84375 -1.242188 2.070312 -2 1.5 -2.96875 C 0.9375 -3.9375 0.65625 -5.03125 0.65625 -6.25 Z M 0.65625 -6.25 "/></g></g></g><g fill="#4f4c4c" fill-opacity="1"><g transform="translate(148.833758, 241.378001)"><g><path d="M 7.015625 0.125 C 5.859375 0.125 4.789062 -0.144531 3.8125 -0.6875 C 2.84375 -1.226562 2.070312 -1.984375 1.5 -2.953125 C 0.9375 -3.929688 0.65625 -5.03125 0.65625 -6.25 C 0.65625 -7.46875 0.9375 -8.554688 1.5 -9.515625 C 2.070312 -10.484375 2.84375 -11.238281 3.8125 -11.78125 C 4.789062 -12.332031 5.859375 -12.609375 7.015625 -12.609375 C 8.191406 -12.609375 9.265625 -12.332031 10.234375 -11.78125 C 11.203125 -11.238281 11.96875 -10.484375 12.53125 -9.515625 C 13.09375 -8.554688 13.375 -7.46875 13.375 -6.25 C 13.375 -5.03125 13.09375 -3.929688 12.53125 -2.953125 C 11.96875 -1.984375 11.203125 -1.226562 10.234375 -0.6875 C 9.265625 -0.144531 8.191406 0.125 7.015625 0.125 Z M 7.015625 -1.640625 C 7.835938 -1.640625 8.570312 -1.828125 9.21875 -2.203125 C 9.863281 -2.585938 10.367188 -3.128906 10.734375 -3.828125 C 11.097656 -4.523438 11.28125 -5.332031 11.28125 -6.25 C 11.28125 -7.164062 11.097656 -7.96875 10.734375 -8.65625 C 10.367188 -9.351562 9.863281 -9.882812 9.21875 -10.25 C 8.570312 -10.625 7.835938 -10.8125 7.015625 -10.8125 C 6.191406 -10.8125 5.457031 -10.625 4.8125 -10.25 C 4.164062 -9.882812 3.660156 -9.351562 3.296875 -8.65625 C 2.929688 -7.96875 2.75 -7.164062 2.75 -6.25 C 2.75 -5.332031 2.929688 -4.523438 3.296875 -3.828125 C 3.660156 -3.128906 4.164062 -2.585938 4.8125 -2.203125 C 5.457031 -1.828125 6.191406 -1.640625 7.015625 -1.640625 Z M 7.015625 -1.640625 "/></g></g></g><g fill="#4f4c4c" fill-opacity="1"><g transform="translate(166.484032, 241.378001)"><g><path d="M 14.453125 -12.4375 L 14.453125 0 L 12.40625 0 L 12.40625 -8.515625 L 8.609375 0 L 7.203125 0 L 3.390625 -8.515625 L 3.390625 0 L 1.34375 0 L 1.34375 -12.4375 L 3.546875 -12.4375 L 7.921875 -2.6875 L 12.265625 -12.4375 Z M 14.453125 -12.4375 "/></g></g></g><g fill="#4f4c4c" fill-opacity="1"><g transform="translate(185.888429, 241.378001)"><g><path d="M 10.046875 -8.734375 C 10.046875 -8.109375 9.894531 -7.515625 9.59375 -6.953125 C 9.300781 -6.390625 8.828125 -5.929688 8.171875 -5.578125 C 7.515625 -5.222656 6.671875 -5.046875 5.640625 -5.046875 L 3.390625 -5.046875 L 3.390625 0 L 1.34375 0 L 1.34375 -12.4375 L 5.640625 -12.4375 C 6.597656 -12.4375 7.40625 -12.269531 8.0625 -11.9375 C 8.726562 -11.613281 9.222656 -11.171875 9.546875 -10.609375 C 9.878906 -10.054688 10.046875 -9.429688 10.046875 -8.734375 Z M 5.640625 -6.71875 C 6.410156 -6.71875 6.988281 -6.890625 7.375 -7.234375 C 7.757812 -7.585938 7.953125 -8.085938 7.953125 -8.734375 C 7.953125 -10.097656 7.179688 -10.78125 5.640625 -10.78125 L 3.390625 -10.78125 L 3.390625 -6.71875 Z M 5.640625 -6.71875 "/></g></g></g><g fill="#4f4c4c" fill-opacity="1"><g transform="translate(200.155703, 241.378001)"><g><path d="M 8.84375 -2.546875 L 3.640625 -2.546875 L 2.734375 0 L 0.609375 0 L 5.0625 -12.46875 L 7.4375 -12.46875 L 11.890625 0 L 9.734375 0 Z M 8.265625 -4.203125 L 6.25 -9.984375 L 4.203125 -4.203125 Z M 8.265625 -4.203125 "/></g></g></g><g fill="#4f4c4c" fill-opacity="1"><g transform="translate(216.248724, 241.378001)"><g><path d="M 11.5625 0 L 9.53125 0 L 3.390625 -9.296875 L 3.390625 0 L 1.34375 0 L 1.34375 -12.46875 L 3.390625 -12.46875 L 9.53125 -3.1875 L 9.53125 -12.46875 L 11.5625 -12.46875 Z M 11.5625 0 "/></g></g></g><g fill="#4f4c4c" fill-opacity="1"><g transform="translate(232.771325, 241.378001)"><g><path d="M 10.5625 -12.4375 L 6.453125 -4.515625 L 6.453125 0 L 4.40625 0 L 4.40625 -4.515625 L 0.265625 -12.4375 L 2.546875 -12.4375 L 5.421875 -6.34375 L 8.3125 -12.4375 Z M 10.5625 -12.4375 "/></g></g></g></svg>